<?xml version="1.0" encoding="UTF-8" standalone="no"?>
<!-- Generator: Adobe Illustrator 26.0.3, SVG Export Plug-In . SVG Version: 6.00 Build 0)  -->

<svg
   version="1.1"
   id="Layer_1"
   x="0px"
   y="0px"
   viewBox="0 0 748.07 223.85"
   style="enable-background:new 0 0 748.07 223.85;"
   xml:space="preserve"
   sodipodi:docname="logo-w-black.svg"
   inkscape:version="1.2.1 (0f2f062aeb, 2022-09-21, custom)"
   xmlns:inkscape="http://www.inkscape.org/namespaces/inkscape"
   xmlns:sodipodi="http://sodipodi.sourceforge.net/DTD/sodipodi-0.dtd"
   xmlns="http://www.w3.org/2000/svg"
   xmlns:svg="http://www.w3.org/2000/svg"><defs
   id="defs217" /><sodipodi:namedview
   id="namedview215"
   pagecolor="#ffffff"
   bordercolor="#000000"
   borderopacity="0.25"
   inkscape:showpageshadow="2"
   inkscape:pageopacity="0.0"
   inkscape:pagecheckerboard="0"
   inkscape:deskcolor="#d1d1d1"
   showgrid="false"
   inkscape:zoom="1.6362105"
   inkscape:cx="300.38922"
   inkscape:cy="112.14938"
   inkscape:window-width="1366"
   inkscape:window-height="704"
   inkscape:window-x="0"
   inkscape:window-y="27"
   inkscape:window-maximized="1"
   inkscape:current-layer="Layer_1" />
<style
   type="text/css"
   id="style18">
	.st0{fill:url(#SVGID_1_);}
	.st1{fill:url(#SVGID_00000084517291515763318680000014323995904200054440_);}
	.st2{fill:url(#SVGID_00000019654115428100789770000008780907489347082631_);}
	.st3{fill:url(#SVGID_00000081608168672657439880000017686022366794392719_);}
	.st4{fill:url(#SVGID_00000056405689976968388280000018099142667335905439_);}
	.st5{opacity:0.38;}
	.st6{fill:url(#SVGID_00000021815164238627632700000001996419506711681672_);}
	.st7{fill:url(#SVGID_00000152978529962146428950000004264632518252015762_);}
	.st8{fill:#FFFFFF;}
	.st9{fill:url(#SVGID_00000078749759750644324460000011477362895189255298_);}
</style>
<g
   id="g212">
	<g
   id="g81">
		<g
   id="g29">
			<radialGradient
   id="SVGID_1_"
   cx="670.8727"
   cy="3.0191"
   r="46.7231"
   gradientUnits="userSpaceOnUse">
				<stop
   offset="0.1774"
   style="stop-color:#E52D7C"
   id="stop20" />
				<stop
   offset="0.6905"
   style="stop-color:#A5348A"
   id="stop22" />
				<stop
   offset="0.9814"
   style="stop-color:#623285"
   id="stop24" />
			</radialGradient>
			<path
   class="st0"
   d="M657.46,46.03c-12.69,0-23.02-10.33-23.02-23.02C634.45,10.33,644.77,0,657.46,0     c12.69,0,23.02,10.33,23.02,23.02C680.48,35.71,670.16,46.03,657.46,46.03z M657.46,14.65c-4.61,0-8.37,3.75-8.37,8.37     s3.75,8.37,8.37,8.37c4.61,0,8.37-3.75,8.37-8.37S662.08,14.65,657.46,14.65z"
   id="path27" />
		</g>
		
			<radialGradient
   id="SVGID_00000178906100719496804610000011105752684913997980_"
   cx="683.1423"
   cy="77.3488"
   r="105.5533"
   gradientUnits="userSpaceOnUse">
			<stop
   offset="1.198083e-07"
   style="stop-color:#623285"
   id="stop31" />
			<stop
   offset="1"
   style="stop-color:#292C61"
   id="stop33" />
		</radialGradient>
		<path
   style="fill:url(#SVGID_00000178906100719496804610000011105752684913997980_);"
   d="M694.38,87.16    c-2.3-2.25-4.59-4.33-6.86-6.23c-10.94-9.15-21.05-13.79-30.05-13.79c-11.51,0-23.11,6.38-34.49,18.96    c-8.37,9.25-16.79,22.02-25.03,37.95c-9.66,18.67-16.75,37.13-20.27,46.91c-1.4,3.89,0.71,8.17,4.64,9.45l0,0    c3.76,1.22,7.81-0.77,9.16-4.49c3.4-9.43,10.33-27.47,19.56-45.29c14.38-27.75,28.89-44.51,41.45-48.11    c0.11-0.03,0.21-0.06,0.32-0.09c0.04-0.01,0.08-0.02,0.12-0.03c1.04-0.28,2.12-0.47,3.23-0.56c0.02,0,0.03,0,0.05,0    c0.18-0.01,0.36-0.02,0.54-0.03c0.04,0,0.08,0,0.12-0.01c0.2-0.01,0.4-0.01,0.6-0.01c10.86,0,30,5.5,50.6,20.65L694.38,87.16z"
   id="path36" />
		<g
   id="g52">
			
				<linearGradient
   id="SVGID_00000030468798430095206790000014070945841234974601_"
   gradientUnits="userSpaceOnUse"
   x1="701.214"
   y1="45.7608"
   x2="684.8264"
   y2="245.4849">
				<stop
   offset="0"
   style="stop-color:#623285"
   id="stop38" />
				<stop
   offset="1"
   style="stop-color:#292C61"
   id="stop40" />
			</linearGradient>
			<path
   style="fill:url(#SVGID_00000030468798430095206790000014070945841234974601_);"
   d="M706.76,64.26     c-1.05-4.04-2.5-7.69-4.33-10.91c-2.38-4.19-8.12-4.94-11.53-1.53c-2.33,2.33-2.8,5.93-1.18,8.81     c3.28,5.81,4.81,14.31,4.66,25.76c0,0.26-0.01,0.52-0.01,0.78l13.69,15.28c0.55-5.46,0.91-10.78,0.97-15.87     C709.15,77.86,708.4,70.56,706.76,64.26z"
   id="path43" />
			
				<linearGradient
   id="SVGID_00000033335392810150193100000011553814085508395147_"
   gradientUnits="userSpaceOnUse"
   x1="705.468"
   y1="46.1098"
   x2="689.0803"
   y2="245.834">
				<stop
   offset="0"
   style="stop-color:#623285"
   id="stop45" />
				<stop
   offset="1"
   style="stop-color:#292C61"
   id="stop47" />
			</linearGradient>
			<path
   style="fill:url(#SVGID_00000033335392810150193100000011553814085508395147_);"
   d="M688.67,134.35     c-0.35,2.13-0.7,4.25-1.04,6.35c-5.52,35.73,10.29,57.99,15.15,63.64c0.01,0.01,0.02,0.03,0.04,0.04     c-3.71-4.42-5.37-12.38-5.07-24.27c0.32-12.64,2.78-27.57,5.38-43.38c0.73-4.44,1.47-8.92,2.16-13.39c0,0-6.24-9.5-12.48-16.38     C691.71,115.9,690.18,125.21,688.67,134.35z"
   id="path50" />
		</g>
		
			<radialGradient
   id="SVGID_00000122701499850360302050000008608600843393055393_"
   cx="701.7447"
   cy="173.2338"
   r="91.7699"
   fx="780.363"
   fy="220.5717"
   gradientTransform="matrix(0.853 0.5219 -0.5442 0.8894 197.4165 -347.0766)"
   gradientUnits="userSpaceOnUse">
			<stop
   offset="0.2362"
   style="stop-color:#E52D7C"
   id="stop54" />
			<stop
   offset="1"
   style="stop-color:#A5348A"
   id="stop56" />
		</radialGradient>
		<path
   style="fill:url(#SVGID_00000122701499850360302050000008608600843393055393_);"
   d="M747.93,188.36    c-0.79-10.65-4.46-23.68-10.62-37.67c-5.73-13.03-13.36-26.4-22.06-38.69c-2.35-3.32-4.75-6.52-7.18-9.56    c-20.6-15.15-39.74-20.65-50.6-20.65c5.32,0,12.65,3.69,20.66,10.38c4.8,4.01,9.76,9.01,14.7,14.79    c6.24,6.88,12.48,16.38,12.48,16.38c15.82,23.13,28.02,48.73,28.02,66.1c0,16.22-12.94,19.76-16.35,19.76c0,0-1.33,0.11-3.24-0.05    c-4.5-0.31-7.89-1.64-10.24-4.03c-0.23-0.23-0.45-0.48-0.67-0.74c-0.01-0.01-0.02-0.03-0.04-0.04    c-4.86-5.65-20.67-27.91-15.15-63.64c-2.27,13.97-4.23,27.17-4.53,39.04c-0.43,17,2.73,28.33,9.94,35.66    c5.54,5.62,13.22,8.45,22.91,8.45c6.21,0,21.36-3.22,27.51-13.9C746.82,204.14,748.6,197.42,747.93,188.36z"
   id="path59" />
		<g
   class="st5"
   id="g79">
			
				<linearGradient
   id="SVGID_00000042737527568911275940000009656827944235925130_"
   gradientUnits="userSpaceOnUse"
   x1="675.1101"
   y1="168.2192"
   x2="706.7486"
   y2="47.4488">
				<stop
   offset="0"
   style="stop-color:#FFFFFF"
   id="stop61" />
				<stop
   offset="0.5226"
   style="stop-color:#8E9193"
   id="stop63" />
				<stop
   offset="1"
   style="stop-color:#FFFFFF"
   id="stop65" />
			</linearGradient>
			<path
   style="fill:url(#SVGID_00000042737527568911275940000009656827944235925130_);"
   d="M709.04,86.57     c0.11-8.72-0.63-16.02-2.28-22.31c-1.05-4.04-2.5-7.69-4.33-10.91c-2.38-4.19-8.12-4.94-11.53-1.53v0     c-2.33,2.33-2.8,5.93-1.18,8.81c3.28,5.81,4.81,14.31,4.66,25.76c0,0.26-0.01,0.52-0.01,0.78l13.69,15.28     C708.62,96.98,708.97,91.66,709.04,86.57z"
   id="path68" />
			
				<linearGradient
   id="SVGID_00000075855217364734149150000008071317528978935942_"
   gradientUnits="userSpaceOnUse"
   x1="693.2809"
   y1="172.9794"
   x2="724.9193"
   y2="52.209">
				<stop
   offset="0"
   style="stop-color:#FFFFFF"
   id="stop70" />
				<stop
   offset="0.5226"
   style="stop-color:#8E9193"
   id="stop72" />
				<stop
   offset="1"
   style="stop-color:#FFFFFF"
   id="stop74" />
			</linearGradient>
			<path
   style="fill:url(#SVGID_00000075855217364734149150000008071317528978935942_);"
   d="M702.78,204.34     c0.01,0.01,0.02,0.03,0.04,0.04c-3.71-4.42-5.37-12.38-5.07-24.27c0.32-12.64,2.78-27.57,5.38-43.38     c0.73-4.44,1.47-8.92,2.16-13.39c0,0-6.24-9.5-12.48-16.38c-1.1,8.93-2.63,18.24-4.14,27.38c-0.35,2.13-0.7,4.25-1.04,6.35     C682.11,176.43,697.92,198.68,702.78,204.34z"
   id="path77" />
		</g>
	</g>
	<g
   id="g210">
		<g
   id="g180">
			<g
   id="g111"
   style="fill:#181818;fill-opacity:1">
				<path
   class="st8"
   d="M1.14,70.19c-0.21-0.68-0.39-1.35-0.54-2.03c-0.15-0.68-0.26-1.46-0.35-2.35      c-0.09-0.89-0.15-1.94-0.19-3.14C0.02,61.46,0,60.01,0,58.32c0-1.69,0.02-3.14,0.06-4.35c0.04-1.21,0.11-2.25,0.19-3.14      c0.08-0.89,0.2-1.67,0.35-2.35c0.15-0.68,0.33-1.35,0.54-2.03c1.1-3.43,2.98-6.02,5.65-7.78c2.67-1.76,5.92-2.63,9.78-2.63      c2.03,0,3.87,0.25,5.52,0.76c1.65,0.51,3.11,1.17,4.38,2c1.27,0.83,2.33,1.8,3.17,2.92c0.85,1.12,1.5,2.28,1.97,3.46      c0.17,0.38,0.08,0.68-0.25,0.89l-5.33,2.35c-0.38,0.13-0.66,0.02-0.83-0.32c-0.97-1.73-2.14-3.06-3.49-3.97      c-1.36-0.91-3.09-1.36-5.21-1.36c-2.2,0-3.96,0.5-5.27,1.49c-1.31,0.99-2.26,2.38-2.86,4.16c-0.13,0.38-0.24,0.83-0.35,1.33      c-0.11,0.51-0.19,1.14-0.25,1.9c-0.06,0.76-0.11,1.68-0.13,2.76c-0.02,1.08-0.03,2.38-0.03,3.9c0,1.52,0.01,2.82,0.03,3.9      c0.02,1.08,0.06,2,0.13,2.76c0.06,0.76,0.15,1.4,0.25,1.9c0.11,0.51,0.22,0.95,0.35,1.33c0.59,1.78,1.54,3.16,2.86,4.16      c1.31,0.99,3.07,1.49,5.27,1.49c1.9,0,3.6-0.45,5.08-1.36c1.48-0.91,2.52-2.25,3.11-4.03c0.21-0.68,0.38-1.47,0.51-2.38      c0.13-0.91,0.19-1.98,0.19-3.21c0-0.25-0.13-0.38-0.38-0.38H17.9c-0.42,0-0.63-0.21-0.63-0.64V56.8c0-0.42,0.21-0.63,0.63-0.63      h14.28c0.42,0,0.63,0.21,0.63,0.63v3.75c0,1.78-0.09,3.52-0.25,5.24C32.4,67.49,32.14,68.9,31.8,70c-1.06,3.39-2.93,6-5.62,7.84      c-2.69,1.84-5.89,2.76-9.62,2.76c-3.85,0-7.11-0.88-9.78-2.63C4.13,76.21,2.24,73.62,1.14,70.19z"
   id="path83"
   style="fill:#181818;fill-opacity:1" />
				<path
   class="st8"
   d="M41.07,37.37c0-0.42,0.21-0.63,0.63-0.63h6.22c0.42,0,0.63,0.21,0.63,0.63v35.42      c0,0.25,0.13,0.38,0.38,0.38h19.81c0.42,0,0.63,0.21,0.63,0.64v5.46c0,0.42-0.21,0.63-0.63,0.63H41.71      c-0.42,0-0.63-0.21-0.63-0.63V37.37z"
   id="path85"
   style="fill:#181818;fill-opacity:1" />
				<path
   class="st8"
   d="M90.78,80.6c-3.72,0-6.92-0.88-9.59-2.63c-2.67-1.76-4.55-4.35-5.65-7.78c-0.21-0.68-0.39-1.35-0.54-2.03      c-0.15-0.68-0.26-1.46-0.35-2.35c-0.09-0.89-0.15-1.94-0.19-3.14c-0.04-1.21-0.06-2.66-0.06-4.35c0-1.69,0.02-3.14,0.06-4.35      c0.04-1.21,0.11-2.25,0.19-3.14c0.08-0.89,0.2-1.67,0.35-2.35c0.15-0.68,0.33-1.35,0.54-2.03c1.1-3.43,2.98-6.02,5.65-7.78      c2.67-1.76,5.86-2.63,9.59-2.63c3.77,0,6.98,0.88,9.65,2.63c2.67,1.76,4.55,4.35,5.65,7.78c0.21,0.68,0.39,1.35,0.54,2.03      c0.15,0.68,0.26,1.46,0.35,2.35c0.08,0.89,0.15,1.94,0.19,3.14c0.04,1.21,0.06,2.66,0.06,4.35c0,1.69-0.02,3.14-0.06,4.35      c-0.04,1.21-0.11,2.25-0.19,3.14c-0.09,0.89-0.2,1.67-0.35,2.35c-0.15,0.68-0.33,1.35-0.54,2.03c-1.1,3.43-2.98,6.02-5.65,7.78      C97.76,79.73,94.54,80.6,90.78,80.6z M90.78,73.87c2.16,0,3.89-0.5,5.21-1.49c1.31-0.99,2.26-2.38,2.86-4.16      c0.13-0.38,0.23-0.83,0.32-1.33c0.08-0.51,0.16-1.14,0.22-1.9c0.06-0.76,0.12-1.68,0.16-2.76c0.04-1.08,0.06-2.38,0.06-3.9      c0-1.52-0.02-2.82-0.06-3.9c-0.04-1.08-0.1-2-0.16-2.76c-0.06-0.76-0.14-1.4-0.22-1.9c-0.09-0.51-0.19-0.95-0.32-1.33      c-0.59-1.78-1.55-3.16-2.86-4.16c-1.31-0.99-3.05-1.49-5.21-1.49c-2.16,0-3.88,0.5-5.17,1.49c-1.29,0.99-2.23,2.38-2.82,4.16      c-0.13,0.38-0.24,0.83-0.35,1.33c-0.11,0.51-0.19,1.14-0.25,1.9c-0.06,0.76-0.11,1.68-0.13,2.76c-0.02,1.08-0.03,2.38-0.03,3.9      c0,1.52,0.01,2.82,0.03,3.9c0.02,1.08,0.06,2,0.13,2.76c0.06,0.76,0.15,1.4,0.25,1.9c0.11,0.51,0.22,0.95,0.35,1.33      c0.59,1.78,1.53,3.16,2.82,4.16C86.89,73.38,88.62,73.87,90.78,73.87z"
   id="path87"
   style="fill:#181818;fill-opacity:1" />
				<path
   class="st8"
   d="M115.47,37.37c0-0.42,0.21-0.63,0.63-0.63h16.06c4.57,0,7.96,1.05,10.16,3.14c2.2,2.09,3.3,4.88,3.3,8.35      c0,2.45-0.5,4.41-1.49,5.87c-0.99,1.46-2.17,2.55-3.52,3.27v0.13c0.68,0.25,1.35,0.66,2.03,1.21c0.68,0.55,1.29,1.24,1.84,2.06      c0.55,0.83,1.01,1.78,1.37,2.86c0.36,1.08,0.54,2.28,0.54,3.59c0,4.32-1.29,7.51-3.87,9.59c-2.58,2.07-6.24,3.11-10.98,3.11      H116.1c-0.42,0-0.63-0.21-0.63-0.63V37.37z M131.97,54.7c1.9,0,3.41-0.52,4.51-1.56c1.1-1.04,1.65-2.4,1.65-4.09      c0-1.73-0.55-3.12-1.65-4.16c-1.1-1.04-2.6-1.56-4.51-1.56h-8.63c-0.25,0-0.38,0.13-0.38,0.38v10.6c0,0.25,0.13,0.38,0.38,0.38      H131.97z M122.96,72.92c0,0.25,0.13,0.38,0.38,0.38h9.01c2.12,0,3.73-0.55,4.86-1.65c1.12-1.1,1.68-2.56,1.68-4.38      c0-1.78-0.56-3.22-1.68-4.32c-1.12-1.1-2.74-1.65-4.86-1.65h-9.01c-0.25,0-0.38,0.13-0.38,0.38V72.92z"
   id="path89"
   style="fill:#181818;fill-opacity:1" />
				<path
   class="st8"
   d="M164.73,37.37c0.13-0.42,0.4-0.63,0.83-0.63h5.84c0.42,0,0.7,0.21,0.83,0.63l14.6,41.9      c0.13,0.42-0.02,0.63-0.44,0.63h-6.22c-0.42,0-0.7-0.21-0.83-0.63l-2.86-8.38h-16.25l-2.86,8.38c-0.13,0.42-0.4,0.63-0.83,0.63      h-6.16c-0.42,0-0.57-0.21-0.44-0.63L164.73,37.37z M174.19,64.22l-5.71-16.76h-0.19l-5.78,16.76H174.19z"
   id="path91"
   style="fill:#181818;fill-opacity:1" />
				<path
   class="st8"
   d="M192.73,37.37c0-0.42,0.21-0.63,0.63-0.63h6.22c0.42,0,0.63,0.21,0.63,0.63v35.42      c0,0.25,0.13,0.38,0.38,0.38h19.81c0.42,0,0.63,0.21,0.63,0.64v5.46c0,0.42-0.21,0.63-0.63,0.63h-27.04      c-0.42,0-0.63-0.21-0.63-0.63V37.37z"
   id="path93"
   style="fill:#181818;fill-opacity:1" />
				<path
   class="st8"
   d="M253.48,37.37c0.13-0.42,0.4-0.63,0.83-0.63h5.84c0.42,0,0.7,0.21,0.83,0.63l14.6,41.9      c0.13,0.42-0.02,0.63-0.44,0.63h-6.22c-0.42,0-0.7-0.21-0.83-0.63l-2.86-8.38h-16.25l-2.86,8.38c-0.13,0.42-0.4,0.63-0.83,0.63      h-6.16c-0.42,0-0.57-0.21-0.44-0.63L253.48,37.37z M262.93,64.22l-5.71-16.76h-0.19l-5.78,16.76H262.93z"
   id="path95"
   style="fill:#181818;fill-opacity:1" />
				<path
   class="st8"
   d="M281.47,37.37c0-0.42,0.21-0.63,0.63-0.63h6.22c0.42,0,0.63,0.21,0.63,0.63v41.9      c0,0.42-0.21,0.63-0.63,0.63h-6.22c-0.42,0-0.63-0.21-0.63-0.63V37.37z"
   id="path97"
   style="fill:#181818;fill-opacity:1" />
				<path
   class="st8"
   d="M327.05,80.6c-1.61,0-3.17-0.15-4.7-0.44s-2.97-0.7-4.35-1.21c-1.38-0.51-2.65-1.11-3.81-1.81      c-1.16-0.7-2.17-1.45-3.02-2.25c-0.34-0.34-0.38-0.66-0.13-0.95l3.94-4.57c0.3-0.34,0.59-0.36,0.89-0.06      c0.68,0.55,1.45,1.1,2.32,1.65c0.87,0.55,1.8,1.04,2.79,1.46c0.99,0.42,2.04,0.77,3.14,1.05c1.1,0.28,2.26,0.41,3.49,0.41      c2.58,0,4.58-0.58,6-1.75c1.42-1.16,2.13-2.66,2.13-4.48c0-1.57-0.57-2.85-1.71-3.84c-1.14-0.99-3.2-1.7-6.16-2.13l-2.29-0.32      c-4.19-0.59-7.41-1.89-9.65-3.9c-2.24-2.01-3.36-4.81-3.36-8.41c0-1.95,0.34-3.72,1.02-5.33c0.68-1.61,1.65-2.98,2.92-4.13      c1.27-1.14,2.8-2.02,4.6-2.63c1.8-0.61,3.82-0.92,6.06-0.92c2.71,0,5.28,0.39,7.71,1.17c2.43,0.78,4.52,1.83,6.25,3.14      c0.3,0.25,0.34,0.55,0.13,0.89l-3.05,4.7c-0.25,0.34-0.55,0.4-0.89,0.19c-1.78-1.14-3.49-1.99-5.14-2.54      c-1.65-0.55-3.39-0.83-5.21-0.83c-2.2,0-3.88,0.54-5.05,1.62c-1.16,1.08-1.75,2.47-1.75,4.16c0,1.48,0.59,2.72,1.78,3.71      c1.18,0.99,3.24,1.7,6.16,2.13l2.29,0.32c4.19,0.59,7.38,1.89,9.59,3.9c2.2,2.01,3.3,4.88,3.3,8.6c0,1.9-0.34,3.68-1.02,5.33      c-0.68,1.65-1.7,3.07-3.08,4.25c-1.38,1.19-3.08,2.12-5.11,2.79C332.06,80.26,329.71,80.6,327.05,80.6z"
   id="path99"
   style="fill:#181818;fill-opacity:1" />
				<path
   class="st8"
   d="M366.34,73.87c2.5,0,4.53-0.79,6.09-2.38c1.57-1.59,2.35-3.88,2.35-6.89V37.37c0-0.42,0.21-0.63,0.63-0.63      h6.22c0.42,0,0.63,0.21,0.63,0.63v27.36c0,2.5-0.4,4.73-1.21,6.7c-0.8,1.97-1.92,3.63-3.33,4.98c-1.42,1.35-3.1,2.39-5.05,3.11      c-1.95,0.72-4.06,1.08-6.35,1.08c-2.29,0-4.39-0.36-6.32-1.08c-1.93-0.72-3.6-1.76-5.01-3.11c-1.42-1.35-2.53-3.02-3.33-4.98      c-0.8-1.97-1.21-4.2-1.21-6.7V37.37c0-0.42,0.21-0.63,0.63-0.63h6.22c0.42,0,0.63,0.21,0.63,0.63v27.23      c0,3.01,0.78,5.3,2.35,6.89C361.88,73.08,363.89,73.87,366.34,73.87z"
   id="path101"
   style="fill:#181818;fill-opacity:1" />
				<path
   class="st8"
   d="M391.54,37.37c0-0.42,0.21-0.63,0.64-0.63h5.65c0.55,0,0.91,0.21,1.08,0.63l11.87,26.6h0.25l11.68-26.6      c0.17-0.42,0.53-0.63,1.08-0.63h5.59c0.42,0,0.63,0.21,0.63,0.63v41.9c0,0.42-0.21,0.63-0.63,0.63h-5.52      c-0.42,0-0.63-0.21-0.63-0.63V52.86h-0.25l-9.14,20.31c-0.25,0.55-0.66,0.83-1.21,0.83h-3.68c-0.55,0-0.95-0.27-1.21-0.83      l-9.14-20.31h-0.25v26.41c0,0.42-0.21,0.63-0.63,0.63h-5.52c-0.42,0-0.64-0.21-0.64-0.63V37.37z"
   id="path103"
   style="fill:#181818;fill-opacity:1" />
				<path
   class="st8"
   d="M439.53,37.37c0-0.42,0.21-0.63,0.64-0.63h5.65c0.55,0,0.91,0.21,1.08,0.63l11.87,26.6h0.25l11.68-26.6      c0.17-0.42,0.53-0.63,1.08-0.63h5.59c0.42,0,0.63,0.21,0.63,0.63v41.9c0,0.42-0.21,0.63-0.63,0.63h-5.52      c-0.42,0-0.63-0.21-0.63-0.63V52.86h-0.25l-9.14,20.31c-0.25,0.55-0.66,0.83-1.21,0.83h-3.68c-0.55,0-0.95-0.27-1.21-0.83      l-9.14-20.31h-0.25v26.41c0,0.42-0.21,0.63-0.63,0.63h-5.52c-0.42,0-0.64-0.21-0.64-0.63V37.37z"
   id="path105"
   style="fill:#181818;fill-opacity:1" />
				<path
   class="st8"
   d="M487.52,37.37c0-0.42,0.21-0.63,0.64-0.63h6.22c0.42,0,0.63,0.21,0.63,0.63v41.9      c0,0.42-0.21,0.63-0.63,0.63h-6.22c-0.42,0-0.64-0.21-0.64-0.63V37.37z"
   id="path107"
   style="fill:#181818;fill-opacity:1" />
				<path
   class="st8"
   d="M514.12,79.9c-0.42,0-0.63-0.21-0.63-0.63V43.85c0-0.25-0.13-0.38-0.38-0.38h-11.3      c-0.42,0-0.63-0.21-0.63-0.64v-5.46c0-0.42,0.21-0.63,0.63-0.63h30.85c0.42,0,0.63,0.21,0.63,0.63v5.46      c0,0.42-0.21,0.64-0.63,0.64h-11.3c-0.25,0-0.38,0.13-0.38,0.38v35.42c0,0.42-0.21,0.63-0.63,0.63H514.12z"
   id="path109"
   style="fill:#181818;fill-opacity:1" />
			</g>
			
				<linearGradient
   id="SVGID_00000111887567521287310350000003461999662001311391_"
   gradientUnits="userSpaceOnUse"
   x1="4.1482"
   y1="150.1367"
   x2="534.6412"
   y2="150.1367"
   gradientTransform="matrix(1.0053 0 0 1 -4.17 0)">
				<stop
   offset="0"
   style="stop-color:#292C61"
   id="stop113" />
				<stop
   offset="0.25"
   style="stop-color:#623285"
   id="stop115" />
				<stop
   offset="0.6776"
   style="stop-color:#A5348A"
   id="stop117" />
				<stop
   offset="1"
   style="stop-color:#E52D7C"
   id="stop119" />
			</linearGradient>
			<rect
   y="148.98"
   style="fill:url(#SVGID_00000111887567521287310350000003461999662001311391_);"
   width="533.29"
   height="2.32"
   id="rect122" />
			<g
   id="g178"
   style="fill:#181818;fill-opacity:1">
				<path
   class="st8"
   d="M37.03,123.43c1.16,0,1.65,0.37,1.65,1.9c0,1.49-0.41,1.9-1.65,1.9H30.3v-14.71h-2.77      c-3.35,0-4.75,1.53-4.75,4.59v8.18c0,6.78-4.05,10.91-11.37,10.91C3.84,136.2,0,132.15,0,125.17v-10.83h4.09v9.8      c0,4.96,1.98,8.27,7.32,8.27c5.41,0,7.27-3.55,7.27-8.27v-7.27c0-5.21,2.44-8.14,7.94-8.14h7.77v14.71H37.03z M10.99,140.05      c0,1.16-0.99,2.19-2.23,2.19c-1.2,0-2.23-1.03-2.23-2.19c0-1.28,1.03-2.31,2.23-2.31C10,137.73,10.99,138.76,10.99,140.05z       M16.74,140.05c0,1.16-1.03,2.19-2.23,2.19c-1.24,0-2.31-1.03-2.31-2.19c0-1.28,1.07-2.31,2.31-2.31      C15.71,137.73,16.74,138.76,16.74,140.05z"
   id="path124"
   style="fill:#181818;fill-opacity:1" />
				<path
   class="st8"
   d="M50.96,112.52c-3.39,0-4.79,1.82-4.79,4.96v5.95h10.42v3.8H37.03c-1.2,0-1.65-0.41-1.65-1.9      c0-1.53,0.5-1.9,1.65-1.9h5.04v-6.32c0-5.29,2.44-8.39,8.02-8.39h5.17v3.8H50.96z"
   id="path126"
   style="fill:#181818;fill-opacity:1" />
				<path
   class="st8"
   d="M65.14,120.45c0,2.15,0.91,2.98,2.89,2.98h0.37c1.16,0,1.65,0.37,1.65,1.9c0,1.49-0.41,1.9-1.65,1.9h-0.17      c-5.5,0-7.19-2.19-7.19-7.23V99.67h4.09V120.45z"
   id="path128"
   style="fill:#181818;fill-opacity:1" />
				<path
   class="st8"
   d="M80.88,123.43c1.16,0,1.65,0.37,1.65,1.9c0,1.49-0.41,1.9-1.65,1.9H68.4c-1.2,0-1.65-0.41-1.65-1.9      c0-1.53,0.5-1.9,1.65-1.9h5.87v-14.71h4.05v14.71H80.88z M78.57,102.72c0,1.2-0.99,2.23-2.23,2.23c-1.2,0-2.23-1.03-2.23-2.23      c0-1.24,1.03-2.27,2.23-2.27C77.58,100.45,78.57,101.48,78.57,102.72z"
   id="path130"
   style="fill:#181818;fill-opacity:1" />
				<path
   class="st8"
   d="M106.47,108.72c5.5,0,7.89,2.93,7.89,8.14v6.57h2.73c1.16,0,1.65,0.37,1.65,1.9c0,1.49-0.45,1.9-1.65,1.9      H80.88c-1.2,0-1.65-0.41-1.65-1.9c0-1.53,0.5-1.9,1.65-1.9h5.37V99.67h4.09v9.05H106.47z M90.35,123.43h19.92v-6.32      c0-3.06-1.41-4.59-4.75-4.59H90.35V123.43z"
   id="path132"
   style="fill:#181818;fill-opacity:1" />
				<path
   class="st8"
   d="M142.47,108.72c5.5,0,7.89,2.93,7.89,8.14v10.37h-33.27c-1.2,0-1.65-0.41-1.65-1.9c0-1.53,0.5-1.9,1.65-1.9      h5.37v-14.71H142.47z M126.56,123.43h19.67v-6.32c0-3.06-1.41-4.59-4.71-4.59h-14.96V123.43z"
   id="path134"
   style="fill:#181818;fill-opacity:1" />
				<path
   class="st8"
   d="M175.45,119.46c0,4.67-2.77,7.77-7.65,7.77h-14.14v-3.8h13.85c2.6,0,3.84-1.36,3.84-3.97V99.62h4.09V119.46      z M160.41,120.33v-17.32h4.09v17.32H160.41z"
   id="path136"
   style="fill:#181818;fill-opacity:1" />
				<path
   class="st8"
   d="M181.07,127.23V99.67h4.09v27.57H181.07z"
   id="path138"
   style="fill:#181818;fill-opacity:1" />
				<path
   class="st8"
   d="M205.83,119.22c-1.57,0-2.11,0.79-2.11,2.31v3.22h6.16v2.48h-11.41v-2.48h2.56v-3.1      c0-3.51,1.45-4.96,5-4.96h3.02v2.52H205.83z"
   id="path140"
   style="fill:#181818;fill-opacity:1" />
				<path
   class="st8"
   d="M217.98,120.45c0,2.15,0.91,2.98,2.89,2.98h0.37c1.16,0,1.65,0.37,1.65,1.9c0,1.49-0.41,1.9-1.65,1.9h-0.17      c-5.5,0-7.19-2.19-7.19-7.23V99.67h4.09V120.45z"
   id="path142"
   style="fill:#181818;fill-opacity:1" />
				<path
   class="st8"
   d="M230.34,108.72h10.99c5.5,0,7.89,2.93,7.89,8.14v10.37h-27.98c-1.2,0-1.65-0.41-1.65-1.9      c0-1.53,0.5-1.9,1.65-1.9h23.89v-6.32c0-3.06-1.41-4.59-4.75-4.59h-15.25v-1.65c0-2.4,1.12-3.76,4.51-6.03l12.52-8.39v4.42      L230.34,108.72z"
   id="path144"
   style="fill:#181818;fill-opacity:1" />
				<path
   class="st8"
   d="M262.49,108.72c5.5,0,7.89,2.93,7.89,8.14v6.57h2.73c1.16,0,1.65,0.37,1.65,1.9c0,1.49-0.41,1.9-1.65,1.9      h-20.58v-3.8h13.76v-6.32c0-3.06-1.41-4.59-4.75-4.59h-5.99v-3.8H262.49z M263.15,102.72c0,1.2-0.99,2.23-2.23,2.23      c-1.2,0-2.23-1.03-2.23-2.23c0-1.24,1.03-2.27,2.23-2.27C262.16,100.45,263.15,101.48,263.15,102.72z"
   id="path146"
   style="fill:#181818;fill-opacity:1" />
				<path
   class="st8"
   d="M285.6,123.43c1.16,0,1.65,0.37,1.65,1.9c0,1.49-0.41,1.9-1.65,1.9h-12.48c-1.2,0-1.65-0.41-1.65-1.9      c0-1.53,0.5-1.9,1.65-1.9h5.83V99.67h4.09v23.77H285.6z"
   id="path148"
   style="fill:#181818;fill-opacity:1" />
				<path
   class="st8"
   d="M285.6,127.23c-1.2,0-1.65-0.41-1.65-1.9c0-1.53,0.5-1.9,1.65-1.9h5.83V99.67h4.09v27.57H285.6z"
   id="path150"
   style="fill:#181818;fill-opacity:1" />
				<path
   class="st8"
   d="M328.58,123.43c1.16,0,1.65,0.37,1.65,1.9c0,1.49-0.45,1.9-1.65,1.9h-19.59v-10.13      c0-5.29,2.44-8.39,8.02-8.39h8.89v14.71H328.58z M317.88,112.52c-3.39,0-4.79,1.65-4.79,4.96v5.95h8.68v-10.91H317.88z       M317.67,102.68c0,1.2-0.99,2.23-2.23,2.23c-1.2,0-2.23-1.03-2.23-2.23c0-1.24,1.03-2.27,2.23-2.27      C316.68,100.41,317.67,101.44,317.67,102.68z M323.41,102.68c0,1.2-1.03,2.23-2.23,2.23c-1.24,0-2.31-1.03-2.31-2.23      c0-1.24,1.07-2.27,2.31-2.27C322.38,100.41,323.41,101.44,323.41,102.68z"
   id="path152"
   style="fill:#181818;fill-opacity:1" />
				<path
   class="st8"
   d="M343.13,123.43c1.16,0,1.65,0.37,1.65,1.9c0,1.49-0.41,1.9-1.65,1.9h-14.55c-1.2,0-1.65-0.41-1.65-1.9      c0-1.53,0.5-1.9,1.65-1.9h7.11v-14.71h4.05v14.71H343.13z M336.81,132.11c0,1.16-0.99,2.19-2.23,2.19      c-1.2,0-2.23-1.03-2.23-2.19c0-1.28,1.03-2.31,2.23-2.31C335.81,129.8,336.81,130.83,336.81,132.11z M342.55,132.11      c0,1.16-1.03,2.19-2.23,2.19c-1.24,0-2.31-1.03-2.31-2.19c0-1.28,1.07-2.31,2.31-2.31C341.52,129.8,342.55,130.83,342.55,132.11      z"
   id="path154"
   style="fill:#181818;fill-opacity:1" />
				<path
   class="st8"
   d="M357.18,108.72c5.58,0,8.02,3.1,8.02,8.39v6.32h2.69c1.16,0,1.65,0.37,1.65,1.9c0,1.49-0.45,1.9-1.65,1.9      h-24.76c-1.2,0-1.65-0.41-1.65-1.9c0-1.53,0.5-1.9,1.65-1.9h5.17v-14.71H357.18z M352.39,123.43h8.68v-5.95      c0-3.31-1.41-4.96-4.79-4.96h-3.89V123.43z"
   id="path156"
   style="fill:#181818;fill-opacity:1" />
				<path
   class="st8"
   d="M367.89,127.23c-1.2,0-1.65-0.41-1.65-1.9c0-1.53,0.5-1.9,1.65-1.9h5.83V99.67h4.09v27.57H367.89z"
   id="path158"
   style="fill:#181818;fill-opacity:1" />
				<path
   class="st8"
   d="M387.52,120.45c0,2.15,0.91,2.98,2.89,2.98h0.37c1.16,0,1.65,0.37,1.65,1.9c0,1.49-0.41,1.9-1.65,1.9h-0.17      c-5.5,0-7.19-2.19-7.19-7.23V99.67h4.09V120.45z"
   id="path160"
   style="fill:#181818;fill-opacity:1" />
				<path
   class="st8"
   d="M404.71,112.52c-3.39,0-4.79,1.82-4.79,4.96v5.95h11.37c1.16,0,1.65,0.37,1.65,1.9      c0,1.49-0.41,1.9-1.65,1.9h-20.5c-1.2,0-1.65-0.41-1.65-1.9c0-1.53,0.5-1.9,1.65-1.9h5.04v-6.32c0-5.29,2.44-8.39,8.02-8.39      h5.17v3.8H404.71z"
   id="path162"
   style="fill:#181818;fill-opacity:1" />
				<path
   class="st8"
   d="M411.28,127.23c-1.2,0-1.65-0.41-1.65-1.9c0-1.53,0.5-1.9,1.65-1.9h5.83V99.67h4.09v27.57H411.28z"
   id="path164"
   style="fill:#181818;fill-opacity:1" />
				<path
   class="st8"
   d="M426.82,127.23V99.67h4.09v27.57H426.82z"
   id="path166"
   style="fill:#181818;fill-opacity:1" />
				<path
   class="st8"
   d="M464.02,123.43c1.16,0,1.65,0.37,1.65,1.9c0,1.49-0.45,1.9-1.65,1.9h-19.59v-10.13      c0-5.29,2.44-8.39,8.02-8.39h8.89v14.71H464.02z M453.32,112.52c-3.39,0-4.79,1.65-4.79,4.96v5.95h8.68v-10.91H453.32z       M453.11,102.68c0,1.2-0.99,2.23-2.23,2.23c-1.2,0-2.23-1.03-2.23-2.23c0-1.24,1.03-2.27,2.23-2.27      C452.12,100.41,453.11,101.44,453.11,102.68z M458.86,102.68c0,1.2-1.03,2.23-2.23,2.23c-1.24,0-2.31-1.03-2.31-2.23      c0-1.24,1.07-2.27,2.31-2.27C457.82,100.41,458.86,101.44,458.86,102.68z"
   id="path168"
   style="fill:#181818;fill-opacity:1" />
				<path
   class="st8"
   d="M478.07,108.72c5.58,0,8.02,3.1,8.02,8.39v6.32h2.69c1.16,0,1.65,0.37,1.65,1.9c0,1.49-0.45,1.9-1.65,1.9      h-24.76c-1.2,0-1.65-0.41-1.65-1.9c0-1.53,0.5-1.9,1.65-1.9h5.17v-14.71H478.07z M473.28,123.43h8.68v-5.95      c0-3.31-1.41-4.96-4.79-4.96h-3.89V123.43z"
   id="path170"
   style="fill:#181818;fill-opacity:1" />
				<path
   class="st8"
   d="M513.66,123.43c1.16,0,1.65,0.37,1.65,1.9c0,1.49-0.45,1.9-1.65,1.9h-24.88c-1.2,0-1.65-0.41-1.65-1.9      c0-1.53,0.5-1.9,1.65-1.9h5.29v-6.32c0-5.29,2.44-8.39,8.02-8.39h8.89v14.71H513.66z M502.25,102.68c0,1.2-0.99,2.23-2.23,2.23      c-1.2,0-2.23-1.03-2.23-2.23c0-1.24,1.03-2.27,2.23-2.27C501.26,100.41,502.25,101.44,502.25,102.68z M502.96,112.52      c-3.39,0-4.79,1.65-4.79,4.96v5.95h8.68v-10.91H502.96z M508,102.68c0,1.2-1.03,2.23-2.23,2.23c-1.24,0-2.31-1.03-2.31-2.23      c0-1.24,1.07-2.27,2.31-2.27C506.96,100.41,508,101.44,508,102.68z"
   id="path172"
   style="fill:#181818;fill-opacity:1" />
				<path
   class="st8"
   d="M513.66,127.23c-1.2,0-1.65-0.41-1.65-1.9c0-1.53,0.5-1.9,1.65-1.9h5.83V99.67h4.09v27.57H513.66z"
   id="path174"
   style="fill:#181818;fill-opacity:1" />
				<path
   class="st8"
   d="M529.2,127.23V99.67h4.09v27.57H529.2z"
   id="path176"
   style="fill:#181818;fill-opacity:1" />
			</g>
		</g>
		<g
   id="g208"
   style="display:inline;fill:#181818;fill-opacity:1">
			<g
   id="g184"
   style="fill:#181818;fill-opacity:1">
				<rect
   x="277.48999"
   y="163.3"
   class="st8"
   width="1.96"
   height="21.76"
   id="rect182"
   style="fill:#181818;fill-opacity:1" />
			</g>
			<g
   id="g206"
   style="fill:#181818;fill-opacity:1">
				<path
   class="st8"
   d="m 176.9,175.68 v 5.87 h -2.42 v -14.87 h 7.3 c 2.91,0 4.59,1.48 4.59,4.48 0,3 -1.54,4.07 -3.25,4.39 l 4.03,6 h -2.93 l -3.83,-5.87 z m 4.43,-2.08 c 1.66,0 2.48,-0.76 2.48,-2.42 0,-1.66 -0.83,-2.4 -2.48,-2.4 h -4.43 v 4.81 h 4.43 z"
   id="path186"
   style="fill:#181818;fill-opacity:1" />
				<path
   class="st8"
   d="m 194.65,166.68 v 14.87 h -2.42 v -14.87 z"
   id="path188"
   style="fill:#181818;fill-opacity:1" />
				<path
   class="st8"
   d="m 199.17,166.68 h 2.66 l 3.94,7.03 3.94,-7.03 h 2.6 l -5.35,9.18 v 5.69 h -2.42 v -5.69 z"
   id="path190"
   style="fill:#181818;fill-opacity:1" />
				<path
   class="st8"
   d="m 217.8,177.96 -1.3,3.58 h -2.6 l 5.75,-14.87 h 2.87 l 5.75,14.87 h -2.69 l -1.3,-3.58 z m 5.75,-2.08 -2.51,-6.96 -2.53,6.96 z"
   id="path192"
   style="fill:#181818;fill-opacity:1" />
				<path
   class="st8"
   d="m 238.64,166.68 c 4.79,0 7.05,2.33 7.05,7.43 0,5.1 -2.26,7.43 -7.05,7.43 h -6 v -14.87 h 6 z m -0.49,12.78 c 3.72,0 4.99,-1.54 4.99,-5.35 0,-3.81 -1.28,-5.35 -4.99,-5.35 h -3.09 v 10.7 z"
   id="path194"
   style="fill:#181818;fill-opacity:1" />
				<path
   class="st8"
   d="m 253.57,175.05 v 6.49 h -2.42 v -14.87 h 2.42 v 6.29 h 7.64 v -6.29 h 2.42 v 14.87 h -2.42 v -6.49 z"
   id="path196"
   style="fill:#181818;fill-opacity:1" />
				<path
   class="st8"
   d="m 292.12,177.29 c 0,-2.84 1.48,-4.28 4.32,-4.28 h 3.31 c 1.41,0 2.13,-0.69 2.13,-2.13 0,-1.44 -0.74,-2.11 -2.15,-2.11 h -7.07 v -2.1 h 7.46 c 2.8,0 4.3,1.36 4.3,4.19 0,2.82 -1.5,4.21 -4.3,4.21 h -3.27 c -1.5,0 -2.22,0.7 -2.22,2.2 v 2.17 h 9.47 v 2.11 h -11.98 z"
   id="path198"
   style="fill:#181818;fill-opacity:1" />
				<path
   class="st8"
   d="m 309.58,174.11 c 0,-4.99 2.33,-7.68 6.76,-7.68 4.43,0 6.76,2.69 6.76,7.68 0,4.99 -2.33,7.68 -6.76,7.68 -4.43,0 -6.76,-2.68 -6.76,-7.68 z m 11,0 c 0,-3.54 -1.23,-5.62 -4.23,-5.62 -3,0 -4.23,2.08 -4.23,5.62 0,3.54 1.23,5.62 4.23,5.62 2.99,0 4.23,-2.08 4.23,-5.62 z"
   id="path200"
   style="fill:#181818;fill-opacity:1" />
				<path
   class="st8"
   d="m 328.39,177.29 c 0,-2.84 1.48,-4.28 4.32,-4.28 h 3.31 c 1.41,0 2.13,-0.69 2.13,-2.13 0,-1.44 -0.74,-2.11 -2.15,-2.11 h -7.08 v -2.1 h 7.46 c 2.8,0 4.3,1.36 4.3,4.19 0,2.82 -1.5,4.21 -4.3,4.21 h -3.27 c -1.5,0 -2.22,0.7 -2.22,2.2 v 2.17 h 9.47 v 2.11 h -11.98 v -4.26 z"
   id="path202"
   style="fill:#181818;fill-opacity:1" />
				<path
   class="st8"
   d="m 346.52,177.29 c 0,-2.84 1.48,-4.28 4.32,-4.28 h 3.31 c 1.41,0 2.13,-0.69 2.13,-2.13 0,-1.44 -0.74,-2.11 -2.15,-2.11 h -7.08 v -2.1 h 7.46 c 2.8,0 4.3,1.36 4.3,4.19 0,2.82 -1.5,4.21 -4.3,4.21 h -3.27 c -1.5,0 -2.22,0.7 -2.22,2.2 v 2.17 h 9.47 v 2.11 h -11.98 v -4.26 z"
   id="path204"
   style="fill:#181818;fill-opacity:1" />
			</g>
		</g>
	</g>
</g>
</svg>
