<?xml version="1.0" encoding="UTF-8" standalone="no"?>
<!-- Generator: Adobe Illustrator 26.4.1, SVG Export Plug-In . SVG Version: 6.00 Build 0)  -->

<svg
   version="1.1"
   id="SA_Logo_INSTITUTIONAL"
   x="0px"
   y="0px"
   viewBox="0 0 949.8 294.2"
   style="enable-background:new 0 0 949.8 294.2;"
   xml:space="preserve"
   sodipodi:docname="aramco_logo-gray.svg"
   inkscape:version="1.2.1 (9c6d41e410, 2022-07-14)"
   xmlns:inkscape="http://www.inkscape.org/namespaces/inkscape"
   xmlns:sodipodi="http://sodipodi.sourceforge.net/DTD/sodipodi-0.dtd"
   xmlns="http://www.w3.org/2000/svg"
   xmlns:svg="http://www.w3.org/2000/svg"><defs
   id="defs908" /><sodipodi:namedview
   id="namedview906"
   pagecolor="#ffffff"
   bordercolor="#000000"
   borderopacity="0.25"
   inkscape:showpageshadow="2"
   inkscape:pageopacity="0.0"
   inkscape:pagecheckerboard="0"
   inkscape:deskcolor="#d1d1d1"
   showgrid="false"
   inkscape:zoom="0.80217536"
   inkscape:cx="469.34875"
   inkscape:cy="147.10001"
   inkscape:window-width="1440"
   inkscape:window-height="837"
   inkscape:window-x="-8"
   inkscape:window-y="-8"
   inkscape:window-maximized="1"
   inkscape:current-layer="SA_Logo_INSTITUTIONAL" />
<style
   type="text/css"
   id="style456">
	.st0{fill:none;}
	.st1{fill:url(#SVGID_1_);}
	.st2{fill:#5F646A;}
	.st3{fill:#FFFFFF;}
</style>
<path
   class="st0"
   d="M949.8,294.2H655.5V0h294.2V294.2z"
   id="path458" />
<g
   id="g903">
	<radialGradient
   id="SVGID_1_"
   cx="533.7652"
   cy="365.8301"
   r="546.3948"
   gradientUnits="userSpaceOnUse">
		<stop
   offset="0.28999999"
   style="stop-color:#bebebe;stop-opacity:1;"
   id="stop460" />
		<stop
   offset="0.44"
   style="stop-color:#bebebe;stop-opacity:0.74117649;"
   id="stop462" />
		<stop
   offset="0.685"
   style="stop-color:#bebebe;stop-opacity:1;"
   id="stop464" />
		<stop
   offset="0.70499998"
   style="stop-color:#bebebe;stop-opacity:1;"
   id="stop466" />
		<stop
   offset="0.89999998"
   style="stop-color:#bebebe;stop-opacity:1;"
   id="stop468" />
		<stop
   offset="1"
   style="stop-color:#bebebe;stop-opacity:1;"
   id="stop470" />
	</radialGradient>
	<rect
   x="660.9"
   y="5.4"
   class="st1"
   width="283.5"
   height="283.5"
   id="rect473"
   style="stroke:#656565;stroke-opacity:0.8255319" />
	<g
   id="g487"
   style="fill:#bebebe;fill-opacity:1.0">
		<path
   class="st2"
   d="M557.8,193.2c-26.9,0-48.8,21.9-48.8,48.8c0,26.9,21.9,48.8,48.8,48.8c26.9,0,48.5-21.9,48.5-48.8    C606.3,215.1,584.7,193.2,557.8,193.2z M557.8,268.6c-14.8,0-26.6-12.1-26.6-26.6c0-14.5,11.8-26.3,26.6-26.3    c14.5,0,26.3,11.8,26.3,26.3C584.1,256.5,572.3,268.6,557.8,268.6z"
   id="path475"
   style="fill:#bebebe;fill-opacity:1.0" />
		<path
   class="st2"
   d="M379.2,192.1c-10.7,0-21.6,2.2-30.4,5.8c-7.1-4.1-14-5.8-23.8-5.8c-12.3,0-24.9,1.6-38.6,6.3l-2.5,0.8v89.6    h24.4v-73.4c4.9-1.6,8.8-2.2,13.7-2.2c12.1,0,15.6,3.8,15.6,16.4v59.2h24.7V228c0-5.5-0.3-9-1.1-12.3c4.9-1.6,8.8-2.5,13.1-2.5    c11.5,0,16.7,5.2,16.7,16.4v59.2h24.4v-61.1c0-12.1-1.9-19.2-7.4-25.2C401.9,196,391.8,192.1,379.2,192.1z"
   id="path477"
   style="fill:#bebebe;fill-opacity:1.0" />
		<path
   class="st2"
   d="M476.9,269.5c-16.2,0-25.6-10.1-25.6-27.7c0-18,9.4-28.4,25.8-28.4c3.4,0,6.3,0.4,9,1.2c0,0,5,1.4,9.5,4.9    l10.3-17.7c-5.6-4.7-12.2-6.7-14.5-7.3c-6.3-1.9-15.6-2.2-15.6-2.2c-29.3,0-49,20.3-49,50.6c0,29.1,18.7,47.8,47.6,47.8    c0,0,19.4,0.9,32.4-11.2l-12.1-15.6C488.1,268.1,483.6,269.5,476.9,269.5z"
   id="path479"
   style="fill:#bebebe;fill-opacity:1.0" />
		<path
   class="st2"
   d="M159.1,193c-34.8,0-51,15.3-51,47.9v47.9H133v-46v-2.2c0-16.4,9.3-26.6,23.8-26.6c6,0,10.7,1.1,14,1.9    l5.8-21.6C166.9,192.9,159.1,193,159.1,193z"
   id="path481"
   style="fill:#bebebe;fill-opacity:1.0" />
		<path
   class="st2"
   d="M269.6,238.2v50.7h-33.4c-23,0-33.2-1.6-45.2-9.6c-10.4-7.1-16.2-20.5-16.2-38.1c0-24.1,15.9-48.5,51-48.5    C254.3,192.7,269.6,208.6,269.6,238.2z M245.2,240.9c0-18.4-7.1-27.4-21.4-27.4c-14.5,0-23.8,10.7-23.8,26.9    c0,19.5,9.3,27.9,30.1,27.9h15.1V240.9z"
   id="path483"
   style="fill:#bebebe;fill-opacity:1.0" />
		<path
   class="st2"
   d="M94.5,238.2v50.7H61.4c-23,0-33.2-1.6-45.2-9.6C5.8,272.1,0,258.7,0,241.2c0-24.1,15.9-48.5,51-48.5    C79.5,192.7,94.5,208.6,94.5,238.2z M69.3,240.9c0-18.6-6.6-27.4-21.1-27.4s-23.8,10.7-23.8,26.9c0,19.5,9.3,27.9,30.1,27.9h14.8    V240.9z"
   id="path485"
   style="fill:#bebebe;fill-opacity:1.0" />
	</g>
	<g
   id="g901">
		<path
   class="st3"
   d="M817.3,124.3c3.3,1.7,5.6,5.1,5.2,7.9c-0.5,2.8-3.5,3.7-7,2.1c-3.5-1.7-5.7-5.2-5.2-8    C810.9,123.5,813.9,122.7,817.3,124.3z"
   id="path489" />
		<path
   class="st3"
   d="M827.3,69.8c2.7,1.5,4.7,3.9,4.4,5.6c-0.3,1.7-2.7,2-5.5,0.6c-2.8-1.5-4.8-4-4.5-5.7    C822.1,68.5,824.5,68.3,827.3,69.8z"
   id="path491" />
		<path
   class="st3"
   d="M828.2,64.3c2.3,1.2,3.9,3.2,3.7,4.6c-0.2,1.4-2.2,1.5-4.6,0.3c-2.4-1.2-4-3.3-3.7-4.7    C823.9,63.3,825.9,63.2,828.2,64.3z"
   id="path493" />
		<path
   class="st3"
   d="M829.1,59c2.1,1.2,3.6,3,3.5,4.2c-0.2,1.3-2,1.3-4.2,0.2c-2.2-1.2-3.7-3-3.5-4.3    C825.1,57.9,826.9,57.8,829.1,59z"
   id="path495" />
		<path
   class="st3"
   d="M829.9,53.7c2,1.1,3.4,2.7,3.2,3.9c-0.2,1.1-1.9,1.2-3.9,0.1c-2-1.1-3.4-2.8-3.2-3.9    C826.2,52.7,827.9,52.7,829.9,53.7z"
   id="path497" />
		<path
   class="st3"
   d="M830.7,48.9c1.8,1,3.1,2.5,3,3.5c-0.2,1-1.7,1-3.6,0c-1.9-1-3.2-2.6-3-3.6C827.3,47.9,828.8,47.9,830.7,48.9z    "
   id="path499" />
		<path
   class="st3"
   d="M831.4,44.5c1.7,0.9,2.9,2.3,2.8,3.2c-0.1,0.9-1.6,0.9-3.3-0.1c-1.7-0.9-2.9-2.4-2.8-3.3    C828.3,43.5,829.7,43.6,831.4,44.5z"
   id="path501" />
		<path
   class="st3"
   d="M832.1,40.2c1.5,0.9,2.7,2,2.6,2.9c-0.2,0.9-1.4,0.7-3-0.1c-1.6-0.9-2.7-2-2.6-3    C829.2,39.2,830.5,39.4,832.1,40.2z"
   id="path503" />
		<path
   class="st3"
   d="M832.7,35.9c1.3,0.8,2.3,1.7,2.2,2.5c-0.1,0.8-1.2,0.6-2.6-0.2c-1.4-0.8-2.4-1.7-2.2-2.5    C830.2,35,831.4,35.2,832.7,35.9z"
   id="path505" />
		<path
   class="st3"
   d="M833.4,31.9c1.2,0.7,2.1,1.6,2.1,2.3c-0.1,0.7-1.1,0.5-2.4-0.2c-1.3-0.7-2.2-1.6-2.1-2.3    C831.1,31,832.1,31.2,833.4,31.9z"
   id="path507" />
		<path
   class="st3"
   d="M834,27.9c1.1,0.6,1.8,1.3,1.8,1.9c-0.1,0.6-0.9,0.4-2-0.2c-1.1-0.6-1.9-1.3-1.8-1.9    C832,27.1,832.9,27.3,834,27.9z"
   id="path509" />
		<path
   class="st3"
   d="M834.6,24.2c0.9,0.5,1.6,1.2,1.6,1.7c-0.1,0.5-0.8,0.3-1.8-0.2c-0.9-0.5-1.6-1.2-1.6-1.7    C832.9,23.5,833.6,23.7,834.6,24.2z"
   id="path511" />
		<path
   class="st3"
   d="M813.8,143.4c-2.9-1.4-4.7-4.4-4.3-6.9c0.5-2.4,3.1-3.1,5.9-1.8c2.8,1.4,4.6,4.3,4.3,6.7    C819.2,143.9,816.7,144.8,813.8,143.4z"
   id="path513" />
		<path
   class="st3"
   d="M811.5,155c-2.8-1.4-4.6-4.4-4.1-6.9c0.6-2.4,3.1-3.3,5.8-2c2.7,1.4,4.5,4.3,4.1,6.8    C816.9,155.4,814.4,156.3,811.5,155z"
   id="path515" />
		<path
   class="st3"
   d="M809.2,167.2c-2.7-1.3-4.5-4.3-4-6.9c0.5-2.5,3-3.4,5.7-2.2c2.7,1.3,4.4,4.2,4,6.8    C814.4,167.4,811.9,168.4,809.2,167.2z"
   id="path517" />
		<path
   class="st3"
   d="M806.6,180.5c-2.7-1.3-4.3-4.3-3.8-6.8c0.6-2.5,3-3.5,5.6-2.3c2.6,1.3,4.3,4.2,3.8,6.7    C811.6,180.6,809.2,181.7,806.6,180.5z"
   id="path519" />
		<path
   class="st3"
   d="M803.9,193.8c-2.3-1.1-3.7-3.8-3.3-6.1c0.5-2.3,2.7-3.3,5-2.3c2.3,1.1,3.7,3.7,3.3,6    C808.3,193.8,806.2,194.8,803.9,193.8z"
   id="path521" />
		<path
   class="st3"
   d="M800.6,209.9c-2.2-1-3.6-3.7-3.1-6.1c0.6-2.4,2.6-3.4,4.9-2.5c2.2,1,3.5,3.6,3.1,6    C804.9,209.7,802.8,210.9,800.6,209.9z"
   id="path523" />
		<path
   class="st3"
   d="M796.9,227.3c-2-0.9-3.2-3.3-2.7-5.6c0.5-2.2,2.4-3.3,4.4-2.5c2,0.9,3.1,3.3,2.7,5.5    C800.8,227,798.9,228.1,796.9,227.3z"
   id="path525" />
		<path
   class="st3"
   d="M793.3,244.7c-1.7-0.7-2.7-2.9-2.2-5c0.5-2.1,2.1-3.1,3.8-2.4c1.7,0.7,2.6,2.8,2.2,4.9    C796.7,244.3,795,245.4,793.3,244.7z"
   id="path527" />
		<path
   class="st3"
   d="M829.2,130.9c2.7,1.4,4.5,4.1,4.2,6.4c-0.4,2.3-2.7,3-5.4,1.7c-2.7-1.4-4.5-4.2-4.2-6.5    C824.2,130.2,826.5,129.6,829.2,130.9z"
   id="path529" />
		<path
   class="st3"
   d="M840.9,135.8c3.2,1.7,5.5,5.2,5.3,8.1c-0.3,2.9-3.1,3.8-6.4,2.2c-3.4-1.8-5.7-5.3-5.4-8.2    C834.9,135,837.6,134.2,840.9,135.8z"
   id="path531" />
		<path
   class="st3"
   d="M922.4,131.5c-1.3-0.8-2.2-0.6-2.1,0.6c0.2,1.2,1.4,2.8,2.7,3.7c1.4,0.9,2.3,0.6,2.1-0.6    C924.9,134,923.7,132.4,922.4,131.5z"
   id="path533" />
		<path
   class="st3"
   d="M912.9,125c-1.8-1.1-3-0.7-2.9,0.8c0.2,1.5,1.7,3.6,3.5,4.7c1.8,1.1,3,0.8,2.8-0.8    C916.2,128.1,914.6,126.1,912.9,125z"
   id="path535" />
		<path
   class="st3"
   d="M886.4,213.4c-2.3-1.4-4-0.4-4.1,2.3c0,2.8,1.8,6,4.1,7.5c2.3,1.4,4,0.4,4.1-2.4    C890.4,218.1,888.7,214.8,886.4,213.4z"
   id="path537" />
		<path
   class="st3"
   d="M875.1,191c-2.7-1.5-4.7-0.5-4.9,2.4c-0.1,2.9,2,6.4,4.6,8c2.7,1.5,4.8,0.5,4.8-2.5    C879.7,196,877.7,192.6,875.1,191z"
   id="path539" />
		<path
   class="st3"
   d="M863.3,171.7c-2.6-1.4-4.7-0.5-4.9,2.1c-0.1,2.7,1.8,5.9,4.5,7.4c2.7,1.4,4.8,0.5,4.9-2.2    C867.8,176.3,865.9,173.1,863.3,171.7z"
   id="path541" />
		<path
   class="st3"
   d="M856,92.3c-2.4-1.2-4.3-1-4.4,0.7c-0.1,1.7,1.7,4,4.1,5.3c2.4,1.3,4.3,0.9,4.4-0.8    C860.1,95.9,858.3,93.6,856,92.3z"
   id="path543" />
		<path
   class="st3"
   d="M904.4,127.5c-1.9-1.1-3.1-0.7-3.1,0.9c0.2,1.6,1.7,3.7,3.6,4.9c1.9,1.1,3.2,0.7,3-0.9    C907.8,130.7,906.3,128.6,904.4,127.5z"
   id="path545" />
		<path
   class="st3"
   d="M894.9,121.7c-2-1.1-3.4-0.8-3.3,0.9c0.1,1.6,1.7,3.8,3.7,5c2,1.1,3.4,0.8,3.3-0.9    C898.4,125,896.8,122.9,894.9,121.7z"
   id="path547" />
		<path
   class="st3"
   d="M875.8,118.5c-2.3-1.3-4.1-0.8-4.1,1c0,1.9,1.8,4.4,4.2,5.7c2.3,1.3,4.1,0.8,4.1-1.1    C879.9,122.2,878.1,119.8,875.8,118.5z"
   id="path549" />
		<path
   class="st3"
   d="M885.4,115.9c-2.2-1.2-3.8-0.8-3.8,0.9c0.1,1.8,1.8,4.1,4.1,5.4c2.2,1.2,3.8,0.8,3.8-1    C889.4,119.5,887.6,117.2,885.4,115.9z"
   id="path551" />
		<path
   class="st3"
   d="M875.3,110.1c-2.5-1.3-4.4-1-4.4,0.9c0,1.9,2,4.5,4.5,5.9c2.5,1.4,4.4,0.9,4.4-1    C879.7,114,877.8,111.5,875.3,110.1z"
   id="path553" />
		<path
   class="st3"
   d="M865.6,112.6c-2.6-1.4-4.6-0.9-4.7,1.1c0,2,1.9,4.7,4.5,6.2c2.6,1.4,4.6,0.9,4.7-1.2    C870.1,116.6,868.1,114,865.6,112.6z"
   id="path555" />
		<path
   class="st3"
   d="M851.9,153.1c-2.7-1.4-4.9-0.6-5.2,1.9c-0.2,2.5,1.8,5.6,4.5,7.1c2.8,1.4,5,0.5,5.2-2    C856.5,157.6,854.6,154.6,851.9,153.1z"
   id="path557" />
		<path
   class="st3"
   d="M852.7,142.5c-2.9-1.5-5.3-0.7-5.6,1.8c-0.2,2.6,1.9,5.9,4.9,7.5c3,1.5,5.4,0.7,5.6-2    C857.7,147.2,855.6,144,852.7,142.5z"
   id="path559" />
		<path
   class="st3"
   d="M853.5,132.4c-3.2-1.6-5.7-0.9-6,1.8c-0.2,2.7,2.1,6.2,5.3,7.9c3.2,1.7,5.8,0.8,6-1.9    C858.9,137.4,856.6,134.1,853.5,132.4z"
   id="path561" />
		<path
   class="st3"
   d="M854.1,123c-3.1-1.6-5.5-0.9-5.8,1.5c-0.2,2.5,2.1,5.8,5.2,7.5c3.1,1.6,5.6,0.9,5.8-1.7    C859.4,127.8,857.1,124.7,854.1,123z"
   id="path563" />
		<path
   class="st3"
   d="M854.5,114.9c-2.7-1.4-4.8-0.9-5.1,1.2c-0.1,2.1,1.9,4.9,4.6,6.4c2.7,1.4,4.9,0.8,5.1-1.3    C859.2,119,857.2,116.3,854.5,114.9z"
   id="path565" />
		<path
   class="st3"
   d="M855.1,106.6c-2.9-1.5-5.2-1.1-5.5,1.1c-0.1,2.2,2,5.2,5,6.8c3,1.5,5.3,1,5.4-1.3    C860.1,111,858,108.1,855.1,106.6z"
   id="path567" />
		<path
   class="st3"
   d="M855.6,99c-2.8-1.5-5.1-1.1-5.3,0.9c-0.1,2.1,2,4.9,4.9,6.5c2.9,1.5,5.1,1.1,5.3-1.1    C860.5,103.3,858.4,100.5,855.6,99z"
   id="path569" />
		<path
   class="st3"
   d="M837.3,75.9c-2-1-3.6-0.9-3.8,0.4c-0.2,1.3,1.3,3.1,3.3,4.2c2,1,3.7,0.8,3.8-0.4    C840.7,78.7,839.3,77,837.3,75.9z"
   id="path571" />
		<path
   class="st3"
   d="M837.7,70c-1.8-0.9-3.3-0.8-3.5,0.3c-0.1,1.1,1.2,2.8,3,3.7c1.8,1,3.3,0.8,3.5-0.3    C840.8,72.6,839.5,71,837.7,70z"
   id="path573" />
		<path
   class="st3"
   d="M838,64.4c-1.6-0.8-2.9-0.8-3,0.2c-0.1,0.9,1,2.3,2.6,3.2c1.6,0.8,2.9,0.8,3-0.2    C840.7,66.7,839.6,65.3,838,64.4z"
   id="path575" />
		<path
   class="st3"
   d="M838.2,59.1c-1.4-0.7-2.6-0.8-2.7,0.1c-0.1,0.9,0.9,2,2.4,2.8c1.4,0.7,2.6,0.8,2.7-0.1    C840.7,61,839.6,59.8,838.2,59.1z"
   id="path577" />
		<path
   class="st3"
   d="M838.5,54.1c-1.3-0.7-2.4-0.8-2.5,0c-0.1,0.8,0.9,1.9,2.2,2.6c1.3,0.7,2.4,0.8,2.5,0    C840.8,55.8,839.8,54.8,838.5,54.1z"
   id="path579" />
		<path
   class="st3"
   d="M838.8,49c-1.2-0.6-2.1-0.7-2.2,0c-0.1,0.7,0.8,1.6,2,2.3c1.2,0.6,2.1,0.7,2.2,0    C840.8,50.5,839.9,49.7,838.8,49z"
   id="path581" />
		<path
   class="st3"
   d="M839,44.6c-1.1-0.6-2-0.7-2-0.1c-0.1,0.7,0.7,1.5,1.8,2.1c1.1,0.6,2,0.7,2,0.1C840.8,45.9,840,45.2,839,44.6z    "
   id="path583" />
		<path
   class="st3"
   d="M839.2,40c-1-0.5-1.7-0.7-1.8-0.1c0,0.6,0.6,1.3,1.6,1.8c0.9,0.5,1.7,0.6,1.8,0.1    C840.8,41.2,840.1,40.5,839.2,40z"
   id="path585" />
		<path
   class="st3"
   d="M826.6,148.4c2.1,1,3.9,0.4,4.2-1.4c0.2-1.8-1.2-4-3.2-5.1c-2.1-1-3.9-0.4-4.2,1.4    C823.2,145.1,824.5,147.3,826.6,148.4z"
   id="path587" />
		<path
   class="st3"
   d="M824.9,160.1c2,1,3.7,0.3,4-1.5c0.2-1.8-1.1-4-3.1-5c-2-0.9-3.7-0.3-4,1.5C821.5,156.8,822.9,159,824.9,160.1    z"
   id="path589" />
		<path
   class="st3"
   d="M822.1,172c2,0.9,3.7,0.2,4-1.7c0.2-1.9-1-4-3-5c-2-0.9-3.7-0.2-4,1.6C818.8,168.9,820.1,171.1,822.1,172z"
   id="path591" />
		<path
   class="st3"
   d="M819.5,185.1c1.9,0.9,3.5,0.1,3.8-1.7c0.3-1.8-0.9-3.9-2.8-4.8c-1.8-0.8-3.5-0.1-3.8,1.7    C816.5,182.1,817.7,184.2,819.5,185.1z"
   id="path593" />
		<path
   class="st3"
   d="M816.5,198.1c1.7,0.8,3.3,0,3.6-1.8c0.3-1.8-0.8-3.8-2.5-4.6c-1.7-0.8-3.3-0.1-3.6,1.7    C813.6,195.3,814.7,197.3,816.5,198.1z"
   id="path595" />
		<path
   class="st3"
   d="M812.9,213.6c1.6,0.7,3.1-0.1,3.4-1.9c0.3-1.8-0.8-3.7-2.4-4.5c-1.6-0.7-3,0-3.4,1.8    C810.2,210.9,811.3,212.9,812.9,213.6z"
   id="path597" />
		<path
   class="st3"
   d="M865.4,104.8c-2.4-1.3-4.2-0.9-4.4,0.8c0,1.8,1.8,4.2,4.2,5.6c2.4,1.3,4.3,0.9,4.3-0.9    C869.6,108.5,867.8,106.1,865.4,104.8z"
   id="path599" />
		<path
   class="st3"
   d="M864.9,121.1c-2.1-1.1-3.8-0.7-3.9,1c0,1.7,1.6,4,3.7,5.2c2.2,1.2,3.9,0.7,3.9-1.1    C868.6,124.6,867,122.3,864.9,121.1z"
   id="path601" />
		<path
   class="st3"
   d="M864.7,129.6c-2.4-1.3-4.4-0.7-4.5,1.3c-0.1,2.1,1.8,4.8,4.3,6.1c2.5,1.3,4.4,0.7,4.5-1.4    C868.9,133.5,867.1,130.9,864.7,129.6z"
   id="path603" />
		<path
   class="st3"
   d="M863.5,159.8c-2.4-1.3-4.3-0.5-4.5,1.7c-0.1,2.3,1.7,5.2,4.1,6.5c2.4,1.3,4.3,0.5,4.5-1.8    C867.6,163.9,865.9,161.1,863.5,159.8z"
   id="path605" />
		<path
   class="st3"
   d="M903.6,119.2c-2-1.2-3.4-0.8-3.3,0.8c0.2,1.7,1.9,3.9,3.9,5.1c2,1.2,3.4,0.8,3.3-0.9    C907.3,122.6,905.6,120.4,903.6,119.2z"
   id="path607" />
		<path
   class="st3"
   d="M874.3,205.5c-2.2-1.3-4-0.3-4.1,2.2c0,2.6,1.6,5.6,3.9,6.9c2.2,1.3,4,0.3,4.1-2.3    C878.1,209.8,876.5,206.8,874.3,205.5z"
   id="path609" />
		<path
   class="st3"
   d="M886.6,228.4c-2.1-1.3-3.7-0.3-3.8,2.3c0,2.7,1.6,5.8,3.7,7.2c2.1,1.4,3.7,0.3,3.8-2.4    C890.2,232.9,888.6,229.8,886.6,228.4z"
   id="path611" />
		<path
   class="st3"
   d="M862.3,184.3c-2.4-1.3-4.4-0.4-4.6,2.1c-0.1,2.6,1.7,5.7,4.1,7.1c2.5,1.3,4.4,0.4,4.6-2.2    C866.5,188.6,864.7,185.6,862.3,184.3z"
   id="path613" />
		<path
   class="st3"
   d="M851,165.5c-2.4-1.2-4.4-0.4-4.7,1.9c-0.2,2.4,1.5,5.2,4,6.5c2.5,1.3,4.5,0.4,4.7-2    C855.1,169.5,853.3,166.8,851,165.5z"
   id="path615" />
		<path
   class="st3"
   d="M839.9,147.1c-2.6-1.3-4.9-0.6-5.2,1.8c-0.3,2.4,1.6,5.3,4.2,6.7c2.7,1.3,4.9,0.5,5.2-1.9    C844.4,151.3,842.5,148.5,839.9,147.1z"
   id="path617" />
		<path
   class="st3"
   d="M863.9,149.5c-2.2-1.2-4-0.6-4.2,1.5c-0.1,2.1,1.6,4.6,3.8,5.9c2.3,1.2,4,0.5,4.1-1.5    C867.8,153.3,866.2,150.8,863.9,149.5z"
   id="path619" />
		<path
   class="st3"
   d="M856.3,85.8c-2.1-1.1-3.8-0.9-3.9,0.5c-0.1,1.4,1.5,3.4,3.6,4.6c2.1,1.1,3.8,0.9,3.8-0.5    C859.9,88.9,858.3,87,856.3,85.8z"
   id="path621" />
		<path
   class="st3"
   d="M894.3,114.3c-1.7-0.9-2.8-0.7-2.8,0.6c0.1,1.3,1.5,3.1,3.1,4.1c1.7,0.9,2.9,0.7,2.8-0.7    C897.3,117,896,115.3,894.3,114.3z"
   id="path623" />
		<path
   class="st3"
   d="M875.8,136.5c-1.9-1-3.3-0.6-3.4,1c0,1.7,1.5,3.8,3.3,4.9c1.9,1,3.3,0.6,3.3-1.1    C879.1,139.7,877.7,137.6,875.8,136.5z"
   id="path625" />
		<path
   class="st3"
   d="M874.9,178.6c-2.3-1.3-4.1-0.5-4.3,1.9c0,2.5,1.7,5.4,4.1,6.8c2.4,1.3,4.2,0.5,4.2-2    C879,182.9,877.2,180,874.9,178.6z"
   id="path627" />
		<path
   class="st3"
   d="M864.3,139.7c-2.2-1.2-3.9-0.6-4,1.3c-0.1,1.9,1.6,4.4,3.8,5.6c2.2,1.2,3.9,0.6,4-1.4    C868.1,143.3,866.5,140.9,864.3,139.7z"
   id="path629" />
		<path
   class="st3"
   d="M886.7,152.3c-2.1-1.2-3.7-0.6-3.7,1.4c0,2,1.7,4.6,3.8,5.8c2.1,1.2,3.7,0.6,3.7-1.4    C890.4,156,888.7,153.5,886.7,152.3z"
   id="path631" />
		<path
   class="st3"
   d="M895.7,254.1c-1.7-1.2-3-0.3-3,2.1c0,2.4,1.4,5.3,3.1,6.6c1.7,1.2,3,0.3,3-2.1    C898.7,258.2,897.4,255.4,895.7,254.1z"
   id="path633" />
		<path
   class="st3"
   d="M885.8,124.4c-1.9-1.1-3.4-0.7-3.4,0.9c0.1,1.6,1.6,3.8,3.6,4.9c2,1.1,3.4,0.7,3.4-1    C889.2,127.6,887.7,125.5,885.8,124.4z"
   id="path635" />
		<path
   class="st3"
   d="M846.5,80.9c-1.9-1-3.5-0.8-3.6,0.4c-0.1,1.3,1.3,3,3.2,4.1c1.9,1,3.5,0.8,3.6-0.5    C849.7,83.6,848.4,81.9,846.5,80.9z"
   id="path637" />
		<path
   class="st3"
   d="M865.7,84.9c-1.8-1-3.2-0.8-3.3,0.4c0,1.2,1.4,3,3.2,4c1.8,1,3.2,0.8,3.3-0.4    C868.9,87.6,867.5,85.9,865.7,84.9z"
   id="path639" />
		<path
   class="st3"
   d="M885.1,109.2c-1.5-0.8-2.6-0.6-2.6,0.5c0.1,1.1,1.3,2.7,2.8,3.6c1.5,0.8,2.6,0.6,2.6-0.6    C887.8,111.6,886.6,110,885.1,109.2z"
   id="path641" />
		<path
   class="st3"
   d="M875.4,146.2c-1.9-1-3.4-0.5-3.5,1.2c0,1.8,1.5,4,3.4,5.1c2,1.1,3.4,0.5,3.5-1.3    C878.8,149.5,877.3,147.3,875.4,146.2z"
   id="path643" />
		<path
   class="st3"
   d="M886,142.6c-1.7-0.9-2.9-0.5-2.9,1c0,1.5,1.4,3.5,3,4.4c1.7,1,2.9,0.5,2.9-1C889,145.5,887.7,143.6,886,142.6    z"
   id="path645" />
		<path
   class="st3"
   d="M896.9,158.8c-1.8-1.1-3.2-0.6-3.2,1.2c0.1,1.9,1.6,4.2,3.5,5.4c1.9,1.1,3.2,0.6,3.2-1.3    C900.2,162.2,898.8,159.9,896.9,158.8z"
   id="path647" />
		<path
   class="st3"
   d="M913.6,133.7c-1.4-0.8-2.4-0.6-2.3,0.7c0.2,1.3,1.4,2.9,2.8,3.8c1.4,0.9,2.4,0.6,2.2-0.7    C916.2,136.2,914.9,134.6,913.6,133.7z"
   id="path649" />
		<path
   class="st3"
   d="M865.7,79.2c-1.6-0.9-2.8-0.8-2.9,0.3c0,1,1.2,2.5,2.8,3.4c1.6,0.9,2.9,0.7,2.9-0.3    C868.5,81.5,867.3,80.1,865.7,79.2z"
   id="path651" />
		<path
   class="st3"
   d="M865.6,91.4c-1.7-0.9-3-0.7-3,0.4c0,1.2,1.3,2.8,3,3.7c1.7,0.9,3,0.7,3-0.5C868.6,93.9,867.3,92.3,865.6,91.4    z"
   id="path653" />
		<path
   class="st3"
   d="M897.5,238.5c-1.9-1.3-3.4-0.4-3.4,2.2c0.1,2.6,1.6,5.7,3.5,7.1c2,1.4,3.4,0.4,3.4-2.2    C900.9,243,899.4,239.9,897.5,238.5z"
   id="path655" />
		<path
   class="st3"
   d="M856.5,80.1c-1.7-0.9-3-0.7-3,0.3c0,1.1,1.2,2.6,2.9,3.5c1.7,0.9,3,0.7,3-0.4C859.4,82.6,858.2,81,856.5,80.1    z"
   id="path657" />
		<path
   class="st3"
   d="M875.4,127.6c-1.6-0.9-2.9-0.6-2.9,0.8c0,1.4,1.3,3.2,2.9,4.1c1.7,0.9,2.9,0.5,2.9-0.9    C878.3,130.3,877,128.5,875.4,127.6z"
   id="path659" />
		<path
   class="st3"
   d="M875.3,104c-1.4-0.7-2.4-0.5-2.4,0.5c0,1,1.1,2.4,2.5,3.2c1.4,0.8,2.4,0.6,2.4-0.5    C877.7,106.2,876.6,104.8,875.3,104z"
   id="path661" />
		<path
   class="st3"
   d="M875.1,167.6c-1.6-0.9-2.9-0.4-3,1.2c0,1.6,1.2,3.7,2.9,4.6c1.7,0.9,2.9,0.4,3-1.3    C878,170.5,876.8,168.5,875.1,167.6z"
   id="path663" />
		<path
   class="st3"
   d="M886.7,199.7c-1.9-1.1-3.3-0.4-3.4,1.8c0,2.2,1.5,4.8,3.4,6c1.9,1.2,3.3,0.4,3.4-1.8    C890,203.4,888.6,200.9,886.7,199.7z"
   id="path665" />
		<path
   class="st3"
   d="M865.5,98.9c-1.3-0.7-2.2-0.5-2.3,0.4c0,0.9,0.9,2.1,2.2,2.8c1.3,0.7,2.2,0.5,2.3-0.4    C867.7,100.8,866.8,99.6,865.5,98.9z"
   id="path667" />
		<path
   class="st3"
   d="M885.8,243.8c-1.5-1-2.7-0.2-2.7,1.8c0,2,1.2,4.3,2.6,5.4c1.5,1,2.7,0.2,2.7-1.8    C888.4,247.2,887.2,244.8,885.8,243.8z"
   id="path669" />
		<path
   class="st3"
   d="M895.5,130.6c-1.6-0.9-2.7-0.6-2.7,0.8c0.1,1.4,1.4,3.1,2.9,4.1c1.6,0.9,2.7,0.6,2.6-0.8    C898.3,133.3,897,131.6,895.5,130.6z"
   id="path671" />
		<path
   class="st3"
   d="M875.1,84.5c-1.4-0.8-2.5-0.7-2.5,0.3c0,0.9,1.2,2.3,2.6,3.1c1.4,0.8,2.5,0.6,2.5-0.3    C877.7,86.7,876.6,85.3,875.1,84.5z"
   id="path673" />
		<path
   class="st3"
   d="M931.7,137.8c-1.1-0.7-1.9-0.5-1.7,0.6c0.2,1.1,1.2,2.5,2.3,3.3c1.1,0.8,1.9,0.5,1.7-0.6    C933.8,140,932.8,138.6,931.7,137.8z"
   id="path675" />
		<path
   class="st3"
   d="M907.4,165.7c-1.6-1-2.8-0.5-2.7,1.1c0.1,1.7,1.5,3.9,3.1,5c1.7,1.1,2.8,0.6,2.7-1.2    C910.4,168.9,909,166.7,907.4,165.7z"
   id="path677" />
		<path
   class="st3"
   d="M902.4,270.8c-1.4-1.1-2.4-0.3-2.4,1.9c0.1,2.2,1.2,4.9,2.5,6.1c1.4,1.2,2.4,0.4,2.3-1.9    C904.8,274.7,903.7,272,902.4,270.8z"
   id="path679" />
		<path
   class="st3"
   d="M873.8,220.8c-1.7-0.9-3-0.2-3.1,1.8c0,2,1.2,4.3,2.9,5.3c1.7,1,3,0.2,3-1.8    C876.7,224.1,875.4,221.8,873.8,220.8z"
   id="path681" />
		<path
   class="st3"
   d="M896.5,149.5c-1.2-0.7-2-0.4-2,0.7c0.1,1.1,1,2.6,2.2,3.3c1.2,0.7,2,0.4,2-0.7    C898.6,151.6,897.7,150.2,896.5,149.5z"
   id="path683" />
		<path
   class="st3"
   d="M874.6,78.7c-1.2-0.7-2.1-0.7-2.1,0.2c0.1,0.9,1,1.9,2.2,2.6c1.2,0.7,2.1,0.7,2.1-0.2    C876.8,80.4,875.8,79.4,874.6,78.7z"
   id="path685" />
		<path
   class="st3"
   d="M883.3,83.9c-1-0.5-1.7-0.5-1.7,0.2c0.1,0.7,0.9,1.6,1.9,2.2c1,0.5,1.7,0.5,1.7-0.2    C885.1,85.3,884.3,84.5,883.3,83.9z"
   id="path687" />
		<path
   class="st3"
   d="M861.7,199.9c-1.5-0.8-2.7-0.2-2.8,1.4c-0.1,1.6,1,3.5,2.5,4.4c1.5,0.8,2.7,0.2,2.8-1.5    C864.2,202.6,863.1,200.7,861.7,199.9z"
   id="path689" />
		<path
   class="st3"
   d="M849.5,179.5c-1.5-0.7-2.7-0.2-2.8,1.3c-0.1,1.5,0.9,3.2,2.4,4c1.5,0.7,2.7,0.2,2.8-1.3    C852,182,850.9,180.3,849.5,179.5z"
   id="path691" />
		<path
   class="st3"
   d="M838.2,160.6c-1.4-0.7-2.7-0.2-2.9,1.1c-0.1,1.4,0.9,3,2.3,3.8c1.5,0.7,2.7,0.2,2.9-1.1    C840.6,163,839.6,161.4,838.2,160.6z"
   id="path693" />
		<path
   class="st3"
   d="M882.8,78.4c-1.1-0.6-1.8-0.6-1.8,0.1c0.1,0.8,0.9,1.7,2,2.3c1.1,0.6,1.8,0.6,1.8-0.1    C884.7,79.9,883.8,79,882.8,78.4z"
   id="path695" />
		<path
   class="st3"
   d="M889.6,78.6c-0.9-0.5-1.6-0.5-1.6,0.1c0.1,0.7,0.8,1.4,1.7,2c0.9,0.5,1.6,0.5,1.6-0.1    C891.2,79.9,890.5,79.1,889.6,78.6z"
   id="path697" />
		<path
   class="st3"
   d="M917.7,173.6c-1-0.7-1.8-0.4-1.7,0.8c0.1,1.2,1,2.6,2,3.4c1,0.7,1.8,0.4,1.7-0.8    C919.6,175.8,918.8,174.3,917.7,173.6z"
   id="path699" />
		<path
   class="st3"
   d="M908.2,176.2c-1.3-0.8-2.3-0.4-2.2,1c0.1,1.5,1.2,3.3,2.5,4.2c1.3,0.9,2.2,0.4,2.2-1    C910.6,178.9,909.5,177.1,908.2,176.2z"
   id="path701" />
		<path
   class="st3"
   d="M897.5,169.5c-1.2-0.8-2.1-0.4-2.1,0.9c0.1,1.3,1,2.9,2.3,3.7c1.2,0.8,2.1,0.4,2.1-0.9    C899.7,171.9,898.7,170.3,897.5,169.5z"
   id="path703" />
		<path
   class="st3"
   d="M886.5,163.1c-1.2-0.7-2-0.3-2,0.8c0,1.1,0.9,2.5,2,3.2c1.2,0.7,2,0.3,2-0.8    C888.6,165.2,887.7,163.8,886.5,163.1z"
   id="path705" />
		<path
   class="st3"
   d="M875.3,156.6c-1.2-0.6-2.1-0.3-2.1,0.8c0,1.1,0.9,2.5,2.1,3.2c1.2,0.7,2.1,0.3,2.1-0.8    C877.4,158.6,876.5,157.3,875.3,156.6z"
   id="path707" />
		<path
   class="st3"
   d="M918.3,183.6c-1.1-0.7-1.8-0.4-1.7,0.8c0.1,1.2,1,2.8,2,3.5c1.1,0.7,1.8,0.4,1.7-0.9    C920.2,185.9,919.4,184.3,918.3,183.6z"
   id="path709" />
		<path
   class="st3"
   d="M928.9,191.6c-0.9-0.7-1.6-0.4-1.5,0.8c0.1,1.2,0.9,2.6,1.8,3.3c0.9,0.7,1.6,0.4,1.5-0.8    C930.6,193.8,929.8,192.3,928.9,191.6z"
   id="path711" />
		<path
   class="st3"
   d="M875,90.7c-1.2-0.6-2-0.6-2.1,0.3c0,0.9,1,2,2.1,2.6c1.2,0.6,2.1,0.6,2-0.3C877.1,92.4,876.2,91.4,875,90.7z"
   id="path713" />
		<path
   class="st3"
   d="M804.9,118.8c-2.8-1.3-5.3-0.7-5.9,1.5c-0.5,2.2,1.2,5,4.1,6.3c2.8,1.3,5.3,0.6,5.9-1.6    C809.4,122.8,807.6,120.1,804.9,118.8z"
   id="path715" />
		<path
   class="st3"
   d="M793,112.1c-3.5-1.6-6.8-0.8-7.6,1.8c-0.8,2.7,1.4,6.2,5,7.9c3.6,1.6,6.9,0.8,7.6-2    C798.6,117,796.4,113.7,793,112.1z"
   id="path717" />
		<path
   class="st3"
   d="M712.9,27.6c1.9,0.6,2.8,1.8,2.1,2.7c-0.7,0.9-2.7,1.1-4.6,0.5c-1.9-0.6-2.9-1.8-2.2-2.7    C709,27.2,711.1,27,712.9,27.6z"
   id="path719" />
		<path
   class="st3"
   d="M726.1,31.7c2.2,0.9,3.4,2.3,2.7,3.5c-0.8,1.1-3.1,1.3-5.4,0.5c-2.3-0.9-3.5-2.3-2.7-3.5    C721.5,31,723.9,30.8,726.1,31.7z"
   id="path721" />
		<path
   class="st3"
   d="M721.1,136.1c2.1,0.8,3.1,2.8,2.4,4.5c-0.8,1.7-3.1,2.5-5.3,1.6c-2.2-0.9-3.2-2.8-2.4-4.6    C716.7,136,719,135.3,721.1,136.1z"
   id="path723" />
		<path
   class="st3"
   d="M740,126.7c2.9,1.2,4.3,3.8,3.5,6.2c-1,2.3-4,3.2-6.9,2.1c-2.9-1.2-4.4-3.9-3.4-6.3    C734.1,126.3,737.2,125.5,740,126.7z"
   id="path725" />
		<path
   class="st3"
   d="M759,121.2c3,1.3,4.7,4.1,3.9,6.6c-0.9,2.4-3.9,3.3-7,2c-3.1-1.4-4.7-4.2-3.9-6.7    C752.9,120.7,756,119.9,759,121.2z"
   id="path727" />
		<path
   class="st3"
   d="M794.5,60.6c2.5,1.3,4.2,3.4,3.7,4.9c-0.5,1.5-2.9,1.8-5.5,0.5c-2.6-1.3-4.2-3.5-3.7-5    C789.6,59.6,791.9,59.4,794.5,60.6z"
   id="path729" />
		<path
   class="st3"
   d="M734.4,42.4c2.4,0.9,3.6,2.6,2.9,3.8c-0.8,1.3-3.2,1.5-5.7,0.6c-2.4-0.9-3.7-2.6-2.9-3.9    C729.6,41.8,732,41.5,734.4,42.4z"
   id="path731" />
		<path
   class="st3"
   d="M746.6,47.1c2.4,1,3.8,2.8,3.1,4.1c-0.7,1.3-3.2,1.6-5.7,0.6c-2.5-1-3.8-2.8-3.1-4.2    C741.7,46.4,744.2,46.1,746.6,47.1z"
   id="path733" />
		<path
   class="st3"
   d="M767,63.5c2.6,1.2,4.2,3.3,3.6,5c-0.7,1.6-3.3,1.9-6,0.8c-2.7-1.2-4.3-3.4-3.6-5    C761.7,62.7,764.3,62.3,767,63.5z"
   id="path735" />
		<path
   class="st3"
   d="M758.5,51.7c2.6,1.2,4.1,3.1,3.4,4.6c-0.7,1.5-3.3,1.8-6,0.6c-2.7-1.2-4.2-3.2-3.5-4.7    C753.2,50.8,755.8,50.6,758.5,51.7z"
   id="path737" />
		<path
   class="st3"
   d="M770.2,56.8c2.7,1.3,4.3,3.5,3.7,5.1c-0.7,1.6-3.4,1.9-6.2,0.7c-2.8-1.3-4.5-3.5-3.8-5.2    C764.8,55.8,767.5,55.5,770.2,56.8z"
   id="path739" />
		<path
   class="st3"
   d="M778.6,68.5c2.9,1.4,4.6,3.7,4,5.6c-0.7,1.8-3.4,2.2-6.4,0.9c-2.9-1.4-4.7-3.8-4-5.6    C773,67.5,775.7,67.2,778.6,68.5z"
   id="path741" />
		<path
   class="st3"
   d="M776.6,116.4c2.9,1.4,4.7,4.2,4,6.5c-0.8,2.4-3.7,3.1-6.7,1.8c-3-1.4-4.8-4.3-4-6.6    C770.7,115.8,773.6,115.1,776.6,116.4z"
   id="path743" />
		<path
   class="st3"
   d="M779.6,106.6c3.2,1.5,5.1,4.4,4.4,6.9c-0.8,2.4-3.9,3.2-7.2,1.7c-3.3-1.5-5.2-4.5-4.4-7    C773.3,105.8,776.4,105.1,779.6,106.6z"
   id="path745" />
		<path
   class="st3"
   d="M782.4,97.3c3.4,1.6,5.5,4.7,4.8,7.2c-0.8,2.5-4.1,3.2-7.6,1.7c-3.5-1.7-5.6-4.9-4.8-7.4    C775.6,96.4,778.9,95.8,782.4,97.3z"
   id="path747" />
		<path
   class="st3"
   d="M785.1,88.7c3.3,1.6,5.3,4.5,4.7,6.9c-0.8,2.3-3.9,3-7.3,1.4c-3.4-1.6-5.5-4.7-4.7-7    C778.6,87.7,781.8,87.2,785.1,88.7z"
   id="path749" />
		<path
   class="st3"
   d="M787.5,81.2c2.9,1.4,4.7,3.9,4.1,5.9c-0.6,2-3.4,2.4-6.4,1.1c-3-1.4-4.8-4-4.1-6    C781.8,80.3,784.6,79.9,787.5,81.2z"
   id="path751" />
		<path
   class="st3"
   d="M790.2,73.6c3.1,1.5,5.1,4.2,4.5,6.3c-0.7,2-3.6,2.5-6.8,1c-3.2-1.6-5.2-4.3-4.5-6.4    C784.1,72.5,787.1,72.2,790.2,73.6z"
   id="path753" />
		<path
   class="st3"
   d="M792.5,66.7c3,1.5,4.9,4.1,4.4,6c-0.6,1.9-3.4,2.2-6.6,0.8c-3.1-1.5-5-4.2-4.4-6.1    C786.6,65.6,789.5,65.3,792.5,66.7z"
   id="path755" />
		<path
   class="st3"
   d="M816.7,65.2c2,1.1,3.4,2.8,3.2,4c-0.3,1.2-2.1,1.4-4.1,0.4c-2.1-1.1-3.4-2.8-3.2-4.1    C812.9,64.3,814.7,64.1,816.7,65.2z"
   id="path757" />
		<path
   class="st3"
   d="M818.3,59.6c1.8,1,3.1,2.5,2.9,3.6c-0.3,1.1-1.9,1.2-3.8,0.2c-1.9-1-3.1-2.6-2.9-3.7    C814.9,58.7,816.5,58.7,818.3,59.6z"
   id="path759" />
		<path
   class="st3"
   d="M819.9,54.4c1.6,0.9,2.7,2.2,2.5,3.1c-0.2,0.9-1.6,1-3.2,0.1c-1.6-0.9-2.7-2.2-2.5-3.1    C816.9,53.6,818.3,53.6,819.9,54.4z"
   id="path761" />
		<path
   class="st3"
   d="M821.4,49.4c1.4,0.8,2.4,1.9,2.3,2.8c-0.2,0.9-1.4,0.8-2.9,0.1c-1.5-0.8-2.5-1.9-2.3-2.8    C818.7,48.6,819.9,48.7,821.4,49.4z"
   id="path763" />
		<path
   class="st3"
   d="M822.7,44.9c1.3,0.7,2.3,1.7,2.1,2.5c-0.2,0.8-1.3,0.7-2.7,0c-1.4-0.7-2.3-1.7-2.1-2.6    C820.2,44.1,821.4,44.2,822.7,44.9z"
   id="path765" />
		<path
   class="st3"
   d="M824,40.6c1.2,0.7,2,1.5,1.9,2.2c-0.2,0.7-1.1,0.6-2.4-0.1c-1.2-0.7-2-1.5-1.9-2.2    C821.8,39.9,822.8,40,824,40.6z"
   id="path767" />
		<path
   class="st3"
   d="M825.1,37c1.1,0.6,1.9,1.4,1.8,2c-0.1,0.6-1.1,0.5-2.2-0.1c-1.1-0.6-1.9-1.4-1.8-2.1    C823,36.3,824,36.4,825.1,37z"
   id="path769" />
		<path
   class="st3"
   d="M826.2,33.3c1,0.5,1.6,1.2,1.6,1.8c-0.1,0.5-0.9,0.4-1.9-0.1c-1-0.5-1.7-1.2-1.6-1.8    C824.4,32.6,825.2,32.8,826.2,33.3z"
   id="path771" />
		<path
   class="st3"
   d="M800.9,135.7c-2.2-1.1-3.5-3.2-3.1-5c0.5-1.7,2.4-2.3,4.6-1.3c2.1,1,3.5,3.2,3.1,4.9    C805,136.2,803.1,136.7,800.9,135.7z"
   id="path773" />
		<path
   class="st3"
   d="M798.6,147.1c-2.1-1-3.3-3.1-2.9-4.9c0.5-1.7,2.4-2.3,4.4-1.4c2,1,3.3,3.1,2.9,4.9    C802.5,147.4,800.6,148.1,798.6,147.1z"
   id="path775" />
		<path
   class="st3"
   d="M796.4,159.2c-2-1-3.3-3.1-2.8-5c0.5-1.8,2.4-2.5,4.4-1.6c2,1,3.2,3.1,2.9,4.9    C800.3,159.4,798.4,160.1,796.4,159.2z"
   id="path777" />
		<path
   class="st3"
   d="M794.3,172.3c-1.9-0.9-3-3-2.6-4.8c0.5-1.8,2.3-2.5,4.2-1.6c1.9,0.9,3,2.9,2.6,4.7    C798.1,172.4,796.3,173.1,794.3,172.3z"
   id="path779" />
		<path
   class="st3"
   d="M791.7,186.5c-1.8-0.8-2.8-2.8-2.4-4.6c0.5-1.7,2.2-2.5,3.9-1.7c1.8,0.8,2.8,2.8,2.4,4.5    C795.2,186.5,793.5,187.3,791.7,186.5z"
   id="path781" />
		<path
   class="st3"
   d="M788.9,202.7c-1.7-0.7-2.6-2.7-2.2-4.4c0.5-1.7,2.1-2.5,3.7-1.8c1.7,0.7,2.6,2.6,2.2,4.4    C792.2,202.6,790.6,203.4,788.9,202.7z"
   id="path783" />
		<path
   class="st3"
   d="M781.5,62c2.6,1.3,4.2,3.4,3.7,5.1c-0.6,1.6-3.1,1.9-5.8,0.7c-2.7-1.3-4.3-3.5-3.7-5.1    C776.3,61.1,778.9,60.8,781.5,62z"
   id="path785" />
		<path
   class="st3"
   d="M775.6,76.3c2.4,1.1,3.8,3.1,3.3,4.7c-0.6,1.6-2.9,1.9-5.4,0.8c-2.4-1.1-3.9-3.2-3.3-4.8    C770.8,75.5,773.1,75.2,775.6,76.3z"
   id="path787" />
		<path
   class="st3"
   d="M772.8,83.8c2.7,1.3,4.3,3.6,3.7,5.5c-0.7,1.9-3.4,2.3-6.2,1.1c-2.8-1.3-4.4-3.7-3.7-5.6    C767.4,83,770,82.6,772.8,83.8z"
   id="path789" />
		<path
   class="st3"
   d="M762.7,110.7c2.7,1.2,4.2,3.7,3.6,5.8c-0.8,2.1-3.5,2.8-6.3,1.6c-2.8-1.2-4.3-3.8-3.6-5.9    C757.3,110.2,760,109.6,762.7,110.7z"
   id="path791" />
		<path
   class="st3"
   d="M738.4,35.9c2.5,1.1,3.9,2.8,3.1,4.2c-0.8,1.3-3.5,1.5-6.1,0.5c-2.6-1.1-4-2.9-3.1-4.2    C733.2,35.1,735.8,34.9,738.4,35.9z"
   id="path793" />
		<path
   class="st3"
   d="M735,139.4c2.7,1.1,4,3.7,3.2,6c-1,2.3-3.8,3.2-6.6,2.2c-2.7-1.1-4.1-3.8-3.1-6.1    C729.5,139.2,732.3,138.3,735,139.4z"
   id="path795" />
		<path
   class="st3"
   d="M716.1,147c2.7,1.1,4,3.6,3,6c-1.1,2.3-4.1,3.4-6.9,2.3c-2.8-1.1-4-3.7-2.9-6.1    C710.4,146.9,713.3,146,716.1,147z"
   id="path797" />
		<path
   class="st3"
   d="M754.7,133c2.8,1.2,4.3,3.9,3.5,6.3c-0.9,2.3-3.7,3.2-6.6,2.1c-2.9-1.3-4.4-4-3.5-6.4    C749,132.6,751.9,131.8,754.7,133z"
   id="path799" />
		<path
   class="st3"
   d="M772.9,127.7c2.6,1.2,4.2,3.8,3.5,6c-0.7,2.2-3.3,3-6.1,1.8c-2.7-1.2-4.2-3.9-3.6-6.1    C767.6,127.3,770.2,126.6,772.9,127.7z"
   id="path801" />
		<path
   class="st3"
   d="M789.8,122.6c2.8,1.3,4.5,4,3.9,6.3c-0.6,2.3-3.3,3-6.2,1.8c-2.9-1.4-4.6-4.1-3.9-6.4    C784.3,122.1,787,121.4,789.8,122.6z"
   id="path803" />
		<path
   class="st3"
   d="M766.2,101.2c2.5,1.2,4,3.4,3.4,5.3c-0.7,1.9-3.2,2.4-5.8,1.3c-2.6-1.2-4-3.5-3.4-5.3    C761.1,100.7,763.6,100.2,766.2,101.2z"
   id="path805" />
		<path
   class="st3"
   d="M796.4,54.7c2.2,1.1,3.7,3,3.3,4.3c-0.4,1.3-2.5,1.4-4.8,0.3c-2.3-1.2-3.7-3-3.3-4.3    C792.1,53.7,794.1,53.6,796.4,54.7z"
   id="path807" />
		<path
   class="st3"
   d="M750.3,41.4c2,0.9,3.1,2.4,2.5,3.4c-0.6,1.1-2.6,1.2-4.7,0.3c-2.1-0.9-3.2-2.4-2.6-3.5    C746.2,40.7,748.2,40.6,750.3,41.4z"
   id="path809" />
		<path
   class="st3"
   d="M760.3,79c2.2,1,3.4,2.8,2.9,4.2c-0.6,1.4-2.8,1.8-5,0.9c-2.2-1-3.5-2.8-2.9-4.3    C755.9,78.5,758.1,78.1,760.3,79z"
   id="path811" />
		<path
   class="st3"
   d="M744.6,115.4c2.8,1.2,4.2,3.7,3.4,5.8c-0.9,2.1-3.7,2.9-6.6,1.8c-2.8-1.2-4.3-3.7-3.4-5.9    C739,115,741.8,114.3,744.6,115.4z"
   id="path813" />
		<path
   class="st3"
   d="M769.3,92.8c2.4,1.1,3.9,3.3,3.3,5c-0.7,1.7-3.1,2.2-5.6,1.1c-2.5-1.1-3.9-3.3-3.3-5.1    C764.5,92.2,766.9,91.7,769.3,92.8z"
   id="path815" />
		<path
   class="st3"
   d="M743.7,81.7c2.6,1.1,4,3.1,3.2,4.8c-0.8,1.7-3.4,2.2-6.1,1.1c-2.6-1.1-4-3.2-3.2-4.9    C738.5,81.1,741.1,80.7,743.7,81.7z"
   id="path817" />
		<path
   class="st3"
   d="M699.6,155.1c1.9,0.7,2.7,2.5,1.9,4.2c-0.9,1.7-3.1,2.5-5,1.8c-1.9-0.7-2.8-2.5-1.9-4.2    C695.5,155.2,697.7,154.4,699.6,155.1z"
   id="path819" />
		<path
   class="st3"
   d="M754.8,58.6c2.3,1,3.6,2.8,3,4.2c-0.7,1.4-3,1.7-5.4,0.7c-2.4-1-3.7-2.8-3-4.2    C750.1,57.9,752.5,57.7,754.8,58.6z"
   id="path821" />
		<path
   class="st3"
   d="M806.7,60.1c2,1,3.3,2.7,3,3.9c-0.3,1.2-2.1,1.3-4.1,0.3c-2-1-3.3-2.7-3-3.9C803,59.3,804.7,59.1,806.7,60.1z    "
   id="path823" />
		<path
   class="st3"
   d="M777.7,40.4c1.5,0.6,2.5,1.7,2.3,2.5c-0.2,0.8-1.6,1-3.1,0.4c-1.5-0.6-2.5-1.7-2.3-2.5    C774.8,40,776.2,39.8,777.7,40.4z"
   id="path825" />
		<path
   class="st3"
   d="M761.3,46.1c1.8,0.8,2.8,2.1,2.4,3.1c-0.5,0.9-2.2,1.1-4.1,0.3c-1.8-0.8-2.8-2.2-2.4-3.1    C757.8,45.4,759.5,45.3,761.3,46.1z"
   id="path827" />
		<path
   class="st3"
   d="M756.5,87.6c2.2,1,3.5,2.9,2.9,4.4c-0.7,1.5-2.9,2-5.2,1c-2.3-1-3.6-2.9-2.9-4.5    C752,87.1,754.2,86.7,756.5,87.6z"
   id="path829" />
		<path
   class="st3"
   d="M747.7,74.1c2,0.8,3.1,2.5,2.5,3.7c-0.6,1.3-2.6,1.6-4.7,0.8c-2.1-0.9-3.2-2.5-2.6-3.8    C743.6,73.6,745.6,73.3,747.7,74.1z"
   id="path831" />
		<path
   class="st3"
   d="M730.2,77c2.4,0.9,3.6,2.8,2.9,4.3c-0.8,1.5-3.3,1.9-5.7,1.1c-2.4-0.9-3.7-2.8-2.9-4.3    C725.3,76.6,727.8,76.1,730.2,77z"
   id="path833" />
		<path
   class="st3"
   d="M722,38.6c1.9,0.7,2.9,1.9,2.2,2.9c-0.7,0.9-2.6,1.2-4.6,0.6c-1.9-0.7-2.9-1.9-2.3-2.9    C718.2,38.2,720.1,37.9,722,38.6z"
   id="path835" />
		<path
   class="st3"
   d="M780.3,35.2c1.6,0.7,2.7,1.8,2.5,2.6c-0.2,0.9-1.7,1-3.4,0.4c-1.7-0.7-2.8-1.8-2.5-2.7    C777.1,34.7,778.6,34.6,780.3,35.2z"
   id="path837" />
		<path
   class="st3"
   d="M786,49.9c2,1,3.2,2.6,2.9,3.7c-0.4,1.1-2.3,1.2-4.4,0.3c-2-1-3.3-2.6-2.9-3.8C782.1,49.1,784,49,786,49.9z"
   id="path839" />
		<path
   class="st3"
   d="M788.4,44.3c1.8,0.9,2.9,2.3,2.6,3.3c-0.3,1-1.9,1.1-3.7,0.2c-1.8-0.9-2.9-2.4-2.6-3.4    C785,43.5,786.6,43.5,788.4,44.3z"
   id="path841" />
		<path
   class="st3"
   d="M763.4,71.8c1.9,0.9,3,2.4,2.5,3.6c-0.5,1.2-2.4,1.5-4.3,0.6c-1.9-0.9-3-2.4-2.5-3.7    C759.6,71.2,761.5,71,763.4,71.8z"
   id="path843" />
		<path
   class="st3"
   d="M772.7,51.4c1.6,0.7,2.5,2,2.2,2.9c-0.4,0.9-1.9,1-3.5,0.3c-1.6-0.7-2.5-2-2.2-2.9    C769.7,50.8,771.2,50.7,772.7,51.4z"
   id="path845" />
		<path
   class="st3"
   d="M748.7,106c1.9,0.8,3,2.6,2.5,4c-0.6,1.4-2.6,1.9-4.6,1.1c-2-0.9-3-2.6-2.4-4    C744.8,105.6,746.7,105.2,748.7,106z"
   id="path847" />
		<path
   class="st3"
   d="M783.4,56.6c1.4,0.7,2.2,1.8,2,2.6c-0.3,0.8-1.6,0.9-3,0.3c-1.4-0.7-2.3-1.8-2-2.6    C780.7,56.1,782,56,783.4,56.6z"
   id="path849" />
		<path
   class="st3"
   d="M797.9,49.4c1.6,0.8,2.6,2.1,2.4,3c-0.2,0.9-1.6,1-3.3,0.2c-1.6-0.8-2.6-2.2-2.4-3.1    C794.9,48.7,796.3,48.6,797.9,49.4z"
   id="path851" />
		<path
   class="st3"
   d="M742.4,54.1c2,0.8,3,2.2,2.5,3.4c-0.6,1.1-2.6,1.3-4.6,0.6c-2-0.8-3.1-2.2-2.5-3.4    C738.4,53.5,740.4,53.3,742.4,54.1z"
   id="path853" />
		<path
   class="st3"
   d="M699.9,23.3c1.6,0.5,2.3,1.4,1.7,2.1c-0.6,0.7-2.4,0.9-4,0.4c-1.6-0.5-2.4-1.4-1.7-2.1    C696.5,23,698.3,22.8,699.9,23.3z"
   id="path855" />
		<path
   class="st3"
   d="M716.4,72.2c2.2,0.8,3.3,2.4,2.6,3.8c-0.8,1.3-3.2,1.8-5.4,1c-2.2-0.8-3.4-2.4-2.6-3.8    C711.8,71.9,714.2,71.5,716.4,72.2z"
   id="path857" />
		<path
   class="st3"
   d="M694.9,167.5c1.8,0.7,2.5,2.4,1.6,4c-0.9,1.6-2.9,2.4-4.7,1.8c-1.8-0.7-2.5-2.4-1.6-4.1    C691.1,167.6,693.1,166.9,694.9,167.5z"
   id="path859" />
		<path
   class="st3"
   d="M681,174.7c1.6,0.5,2.2,2,1.4,3.4c-0.8,1.4-2.6,2.1-4.3,1.6c-1.6-0.5-2.2-2-1.4-3.5    C677.6,174.8,679.4,174.2,681,174.7z"
   id="path861" />
		<path
   class="st3"
   d="M730.1,151.7c2,0.8,3,2.8,2.3,4.6c-0.8,1.8-2.9,2.6-5,1.8c-2-0.8-3-2.9-2.3-4.7    C725.9,151.6,728.1,150.9,730.1,151.7z"
   id="path863" />
		<path
   class="st3"
   d="M711.1,159.8c2,0.8,3,2.8,2.3,4.6c-0.8,1.8-2.9,2.6-5,1.8c-2.1-0.8-3-2.9-2.3-4.7    C706.9,159.7,709.1,159,711.1,159.8z"
   id="path865" />
		<path
   class="st3"
   d="M734.5,69.5c1.5,0.6,2.3,1.7,1.8,2.6c-0.5,0.9-2,1.2-3.6,0.6c-1.5-0.6-2.3-1.7-1.8-2.7    C731.4,69.2,733,69,734.5,69.5z"
   id="path867" />
		<path
   class="st3"
   d="M773.5,27.5c1.3,0.5,2.1,1.3,1.9,2c-0.3,0.7-1.4,0.7-2.7,0.2c-1.3-0.5-2.1-1.4-1.9-2    C771.1,27,772.2,27,773.5,27.5z"
   id="path869" />
		<path
   class="st3"
   d="M750.1,145.4c1.7,0.7,2.6,2.4,2.1,3.9c-0.6,1.5-2.3,2.1-4.1,1.4c-1.7-0.8-2.6-2.5-2.1-4    C746.6,145.3,748.4,144.7,750.1,145.4z"
   id="path871" />
		<path
   class="st3"
   d="M768.8,139.1c1.6,0.7,2.5,2.3,2.1,3.7c-0.5,1.4-2.1,1.9-3.7,1.2c-1.6-0.7-2.5-2.4-2.1-3.8    C765.6,138.9,767.2,138.4,768.8,139.1z"
   id="path873" />
		<path
   class="st3"
   d="M786.2,135.2c1.5,0.7,2.4,2.2,2.1,3.6c-0.4,1.3-1.8,1.7-3.4,1.1c-1.6-0.7-2.5-2.3-2.1-3.6    C783.1,135,784.6,134.5,786.2,135.2z"
   id="path875" />
		<path
   class="st3"
   d="M701.5,68.4c1.5,0.5,2.2,1.5,1.7,2.3c-0.6,0.9-2.2,1.2-3.7,0.7c-1.5-0.5-2.2-1.5-1.7-2.4    C698.4,68.2,700,67.9,701.5,68.4z"
   id="path877" />
		<path
   class="st3"
   d="M711.3,79.2c1.8,0.6,2.7,2,2,3.1c-0.7,1.1-2.6,1.5-4.5,0.9c-1.8-0.6-2.7-2-2.1-3.1    C707.6,79,709.5,78.6,711.3,79.2z"
   id="path879" />
		<path
   class="st3"
   d="M725.5,85.5c1.6,0.6,2.4,1.9,1.9,2.9c-0.6,1-2.2,1.4-3.9,0.8c-1.6-0.6-2.4-1.9-1.9-2.9    C722.2,85.2,723.8,84.9,725.5,85.5z"
   id="path881" />
		<path
   class="st3"
   d="M739.3,91c1.4,0.6,2.1,1.7,1.7,2.7c-0.5,0.9-1.9,1.2-3.3,0.7c-1.4-0.6-2.2-1.8-1.7-2.7    C736.5,90.8,737.9,90.5,739.3,91z"
   id="path883" />
		<path
   class="st3"
   d="M752.6,96.6c1.4,0.6,2.1,1.8,1.7,2.7c-0.4,1-1.8,1.3-3.2,0.7c-1.4-0.6-2.1-1.8-1.8-2.8    C749.9,96.3,751.2,96.1,752.6,96.6z"
   id="path885" />
		<path
   class="st3"
   d="M782.6,30.9c1.2,0.5,2.1,1.3,1.9,2c-0.2,0.7-1.3,0.7-2.5,0.2c-1.3-0.5-2.1-1.3-1.9-2    C780.3,30.5,781.3,30.5,782.6,30.9z"
   id="path887" />
		<path
   class="st3"
   d="M776,23.4c1.1,0.5,1.9,1.2,1.7,1.8c-0.2,0.6-1.2,0.6-2.3,0.2c-1.1-0.5-1.9-1.2-1.7-1.8    C774,22.9,774.9,22.9,776,23.4z"
   id="path889" />
		<path
   class="st3"
   d="M769.1,16.8c1,0.4,1.7,1,1.5,1.6c-0.2,0.6-1,0.6-2,0.2c-1-0.4-1.7-1-1.6-1.6    C767.3,16.4,768.1,16.4,769.1,16.8z"
   id="path891" />
		<path
   class="st3"
   d="M790.1,39.8c1.3,0.7,2.2,1.7,2,2.4c-0.3,0.8-1.4,0.7-2.8,0.1c-1.3-0.7-2.2-1.7-2-2.5    C787.7,39.1,788.8,39.2,790.1,39.8z"
   id="path893" />
		<path
   class="st3"
   d="M696.7,75c1.5,0.5,2.3,1.5,1.7,2.5c-0.6,0.9-2.3,1.3-3.8,0.8c-1.6-0.5-2.3-1.5-1.7-2.5    C693.5,74.9,695.1,74.5,696.7,75z"
   id="path895" />
		<path
   class="st3"
   d="M682.9,71.2c1.5,0.4,2.1,1.3,1.5,2.1c-0.6,0.8-2.2,1.2-3.7,0.8c-1.5-0.4-2.1-1.3-1.5-2.1    C679.9,71.2,681.5,70.9,682.9,71.2z"
   id="path897" />
		<path
   class="st3"
   d="M799.3,66.2c-0.4,1.6,1,3.7,3.3,5.2c-2.8-0.9-5.1-0.5-5.7,1.3c-0.4,1.6,0.6,3.6,2.6,5.3    c-2.4-0.4-4.2,0.2-4.7,1.8c-0.5,1.9,1,4.5,3.6,6.3c-2.9-0.9-5.4-0.2-6,1.8c-0.5,1.7,0.5,3.8,2.4,5.6c-2.4-0.3-4.2,0.5-4.8,2.3    c-0.6,2,0.6,4.4,2.9,6.3c-2.7-0.5-4.9,0.4-5.6,2.5c-0.8,2.8,1.6,6.4,5.4,8.2c3.1,1.4,6,1.1,7.4-0.5c0.4,2.5,2.5,5.2,5.5,6.7    c2.6,1.2,5,1.2,6.5,0.1c0.8,2.2,2.7,4.4,5.3,5.7c2.6,1.3,4.9,1.2,6.3,0c0.8,2.3,2.8,4.4,5.3,5.7c2.6,1.3,4.9,1.2,6.2-0.1    c0.8,2.3,2.8,4.6,5.4,6c3.6,1.8,6.5,0.9,6.9-2.1c0.2-2.2-1.2-4.9-3.5-6.9c2.4,0.4,4.1-0.5,4.3-2.6c0.1-2-1-4.2-3-6.1    c2.1,0.2,3.5-0.6,3.7-2.5c0.2-2.2-1.6-4.9-4.2-6.8c2.7,0.9,4.6,0.2,4.9-1.9c0.1-1.8-1.1-4-3.1-5.7c2.1,0.4,3.6-0.3,3.7-2    c0.1-1.9-1.6-4.5-4.1-6.2c2.3,0.8,4,0.3,4.2-1.3c0.1-1.9-1.9-4.5-4.7-6c-2.4-1.2-4.4-1.2-5.1,0c-0.4-1.8-2.2-3.8-4.6-5.1    c-2.3-1.2-4.3-1.2-5.1-0.2c-0.4-1.9-2.3-4.1-4.9-5.4c-2.6-1.3-5-1.3-5.9-0.1c-0.4-1.7-2.1-3.6-4.4-4.9c-2.9-1.4-5.4-1.3-5.9,0.5    l0,0c0.4-1.8-1.6-4.2-4.5-5.7C802.5,64.2,799.9,64.4,799.3,66.2z M836.6,120.7c1.4,0.7,2.4,2.2,2.3,3.3c-0.2,1.1-1.3,1.4-2.8,0.7    c-1.4-0.7-2.4-2.2-2.3-3.3C834,120.3,835.2,120,836.6,120.7z M825.5,115.3c1.3,0.7,2.1,1.9,2,2.9c-0.2,1-1.3,1.3-2.6,0.6    c-1.3-0.7-2.1-1.9-2-2.9C823.1,115,824.2,114.7,825.5,115.3z M814.2,109.7c1.3,0.6,2.1,1.9,2,2.9c-0.2,1-1.4,1.2-2.7,0.6    c-1.3-0.6-2.1-1.9-2-2.9C811.8,109.4,813,109.1,814.2,109.7z M804.1,106.7c-0.3,1.1-1.6,1.4-3.1,0.7c-1.5-0.7-2.4-2.1-2.2-3.2    c0.3-1.1,1.6-1.3,3.1-0.6C803.5,104.2,804.4,105.6,804.1,106.7z M838,112.8c1.2,0.6,2.1,1.9,2,2.8c-0.1,1-1.2,1.2-2.4,0.6    c-1.2-0.7-2.1-1.9-2-2.8C835.8,112.5,836.8,112.2,838,112.8z M803.9,95.8c1.3,0.6,2.1,1.8,1.9,2.7c-0.2,0.9-1.4,1.1-2.7,0.5    c-1.3-0.7-2.1-1.8-1.9-2.7C801.5,95.4,802.6,95.2,803.9,95.8z M839,104.6c1.2,0.6,2,1.8,2,2.7c-0.1,0.9-1.1,1.1-2.3,0.5    c-1.2-0.6-2.1-1.8-2-2.7C836.8,104.2,837.8,104,839,104.6z M805.9,87.9c1.2,0.6,2,1.8,1.9,2.6c-0.2,0.9-1.3,1-2.6,0.4    c-1.3-0.6-2.1-1.8-1.9-2.6C803.5,87.5,804.6,87.3,805.9,87.9z M839.9,96.9c1.1,0.6,2,1.7,1.9,2.6c-0.1,0.9-1.1,1-2.3,0.4    c-1.2-0.6-2-1.7-1.9-2.6C837.8,96.4,838.8,96.3,839.9,96.9z M807.7,80.5c1.2,0.6,2,1.6,1.8,2.5c-0.2,0.8-1.3,1-2.5,0.4    c-1.2-0.6-2-1.7-1.8-2.5C805.4,80,806.5,79.9,807.7,80.5z M840.4,88.9c1.3,0.7,2.1,1.8,2.1,2.7c-0.1,0.9-1.2,1-2.4,0.4    c-1.3-0.7-2.2-1.9-2.1-2.7C838.1,88.4,839.2,88.3,840.4,88.9z M830.5,84c1.1,0.6,1.9,1.6,1.8,2.4c-0.1,0.8-1.1,0.9-2.2,0.3    c-1.1-0.6-1.9-1.6-1.8-2.4C828.4,83.4,829.3,83.4,830.5,84z M820.4,78.8c1.1,0.6,1.9,1.6,1.8,2.4c-0.2,0.8-1.2,0.9-2.3,0.3    c-1.2-0.6-1.9-1.6-1.8-2.4C818.3,78.3,819.3,78.2,820.4,78.8z M809.5,73.1c1.3,0.7,2.2,1.8,2,2.6c-0.2,0.8-1.4,1-2.7,0.3    c-1.3-0.7-2.2-1.8-2-2.7C807,72.6,808.2,72.4,809.5,73.1z"
   id="path899" />
	</g>
</g>
</svg>
