<?xml version="1.0" encoding="UTF-8" standalone="no"?>
<!-- Generator: Adobe Illustrator 26.5.0, SVG Export Plug-In . SVG Version: 6.00 Build 0)  -->

<svg
   version="1.1"
   id="Layer_1"
   x="0px"
   y="0px"
   viewBox="0 0 415.5 177"
   style="enable-background:new 0 0 415.5 177;"
   xml:space="preserve"
   sodipodi:docname="sadu-logo-gray.svg"
   inkscape:version="1.2.1 (9c6d41e410, 2022-07-14)"
   xmlns:inkscape="http://www.inkscape.org/namespaces/inkscape"
   xmlns:sodipodi="http://sodipodi.sourceforge.net/DTD/sodipodi-0.dtd"
   xmlns="http://www.w3.org/2000/svg"
   xmlns:svg="http://www.w3.org/2000/svg"><defs
   id="defs7252" /><sodipodi:namedview
   id="namedview7250"
   pagecolor="#ffffff"
   bordercolor="#000000"
   borderopacity="0.25"
   inkscape:showpageshadow="2"
   inkscape:pageopacity="0.0"
   inkscape:pagecheckerboard="0"
   inkscape:deskcolor="#d1d1d1"
   showgrid="false"
   inkscape:zoom="1.3333333"
   inkscape:cx="88.875002"
   inkscape:cy="88.500002"
   inkscape:window-width="1440"
   inkscape:window-height="837"
   inkscape:window-x="-8"
   inkscape:window-y="-8"
   inkscape:window-maximized="1"
   inkscape:current-layer="Layer_1" />
<style
   type="text/css"
   id="style7195">
	.st0{fill:#121212;}
	.st1{fill:#F15C41;}
	.st2{fill:#00A8A5;}
	.st3{fill:#F99E35;}
	.st4{fill:#48305E;}
</style>
<g
   id="g7247"
   style="fill:#bebebe;fill-opacity:1">
	<path
   class="st0"
   d="M232.9,33.7c3.6,0,9.3,0.5,17.3,1.4l0.2,0l0,0h0l0,0l2.9-6.5l-2.3-0.4c-4.5-0.8-8.2-1.3-11-1.6   c-2.8-0.3-5.4-0.4-7.8-0.4c-6.5,0-11.5,1.4-14.8,4.2c-3.4,2.8-5,7-5,12.6c0,3.5,0.6,6.4,1.9,8.6c1.2,2.2,3.2,4,5.8,5.3   c2.6,1.4,6.4,2.6,11.1,3.8c3.2,0.7,5.8,1.4,7.6,2.2c1.8,0.7,3.1,1.7,3.9,2.9c0.8,1.2,1.2,2.8,1.2,4.8c0,7.2-4,10.9-11.9,10.9   c-3.7,0-8.8-0.4-15.3-1.2l0,0l-2.9-0.4l-2.7,6.6l1.8,0.2l0,0l3.2,0.5c6.9,1.1,12.4,1.7,16.4,1.7c6.5,0,11.4-1.6,14.8-4.8   c3.4-3.2,5.1-7.9,5.1-14.1c0-3.4-0.5-6.1-1.6-8.1c-1.1-2.1-2.8-3.7-5.2-5c-2.4-1.3-5.7-2.5-9.9-3.5c-4.1-0.9-7.1-1.8-9.1-2.6   c-2-0.8-3.5-1.8-4.4-3c-0.9-1.2-1.4-2.9-1.4-5.1C220.8,36.6,224.9,33.7,232.9,33.7"
   id="path7197"
   style="fill:#bebebe;fill-opacity:1" />
	<path
   class="st0"
   d="M273.2,27.2L257.5,88h8.4l3.8-14.2h24.5L298,88h8.4l-15.7-60.8H273.2z M271.4,66.3l8.2-31.9h4.6l8.2,31.9   H271.4z"
   id="path7199"
   style="fill:#bebebe;fill-opacity:1" />
	<path
   class="st0"
   d="M351.5,31c-3.4-2.5-8.3-3.7-14.7-3.7h-21.3V88h21.3c5.7,0,10.2-1.1,13.6-3.3c3.4-2.2,5.9-5.6,7.5-10.2   c1.6-4.6,2.4-10.7,2.4-18.2c0-6.1-0.6-11.3-1.9-15.4C357.3,36.7,354.9,33.4,351.5,31 M348.3,74.7c-2.3,3.9-6.1,5.9-11.4,5.9h-12.8   V34.7h12.8c3.6,0,6.5,0.7,8.7,2.2c2.1,1.5,3.7,3.8,4.7,7c1,3.2,1.5,7.4,1.5,12.6C351.7,64.7,350.6,70.8,348.3,74.7"
   id="path7201"
   style="fill:#bebebe;fill-opacity:1" />
	<path
   class="st0"
   d="M415.5,29.5l-8.3-2.3l0,0v0l0,0l0,41.9c0,4.2-1.1,7.4-3.4,9.4c-2.3,2-5.7,3-10.3,3c-8.8,0-13.2-4.1-13.2-12.4   V27.2h-8.5v41.7c0,6.9,1.8,12,5.4,15.2c3.6,3.2,9.1,4.8,16.4,4.8c7.4,0,12.8-1.6,16.5-4.8c3.6-3.2,5.4-8.3,5.4-15.2L415.5,29.5z"
   id="path7203"
   style="fill:#bebebe;fill-opacity:1" />
	<path
   class="st0"
   d="M211.7,102.2h5.9c1.6,0,2.8,0.3,3.6,1c0.8,0.7,1.2,1.7,1.2,3.2c0,0.9-0.2,1.7-0.5,2.3c-0.3,0.6-0.9,1-1.6,1.4   c0.9,0.3,1.5,0.8,1.9,1.4c0.4,0.6,0.6,1.5,0.6,2.5c0,1.5-0.4,2.6-1.3,3.3c-0.8,0.7-2.1,1.1-3.7,1.1h-6.2V102.2z M217.7,109.3   c1,0,1.7-0.2,2.2-0.7c0.5-0.5,0.7-1.2,0.7-2.1c0-1-0.2-1.7-0.7-2.1c-0.5-0.4-1.3-0.6-2.3-0.6h-4v5.6H217.7z M217.8,116.7   c1.1,0,1.9-0.2,2.4-0.7c0.6-0.5,0.8-1.2,0.8-2.2c0-1.1-0.3-1.9-0.9-2.3c-0.6-0.4-1.4-0.7-2.5-0.7h-4.2v5.8H217.8z"
   id="path7205"
   style="fill:#bebebe;fill-opacity:1" />
	<path
   class="st0"
   d="M231.6,117.3c-0.9-0.8-1.4-2.1-1.4-3.9v-11.2h1.8v11.3c0,2.3,1.3,3.5,3.8,3.5c1.3,0,2.3-0.3,3-0.8   c0.7-0.6,1-1.4,1-2.7v-11.3h1.8v11.2c0,1.8-0.5,3.1-1.4,3.9c-0.9,0.8-2.4,1.2-4.3,1.2C234,118.6,232.6,118.2,231.6,117.3"
   id="path7207"
   style="fill:#bebebe;fill-opacity:1" />
	<path
   class="st0"
   d="M249.9,118.1l-0.8-0.1l0.2-1.5c2.1,0.3,3.7,0.4,4.8,0.4c2.3,0,3.5-1.1,3.5-3.2c0-0.6-0.1-1.1-0.3-1.4   c-0.2-0.3-0.6-0.6-1.1-0.8c-0.5-0.2-1.2-0.4-2.2-0.6c-1.3-0.3-2.3-0.6-3-0.9c-0.7-0.3-1.2-0.8-1.6-1.4c-0.3-0.6-0.5-1.3-0.5-2.3   c0-2.9,1.7-4.3,5.2-4.3c1.2,0,2.8,0.2,4.9,0.5l-0.2,1.5c-2.2-0.3-3.8-0.4-4.6-0.4c-2.3,0-3.5,0.9-3.5,2.6c0,0.7,0.1,1.2,0.3,1.5   c0.2,0.3,0.6,0.6,1.2,0.9c0.5,0.2,1.4,0.5,2.6,0.7c1.2,0.3,2,0.6,2.7,0.9c0.6,0.3,1.1,0.8,1.4,1.3c0.3,0.5,0.4,1.2,0.4,2.1   c0,3.3-1.7,5-5.2,5C253.1,118.5,251.7,118.4,249.9,118.1"
   id="path7209"
   style="fill:#bebebe;fill-opacity:1" />
	<rect
   x="266.9"
   y="102.2"
   class="st0"
   width="1.8"
   height="16.1"
   id="rect7211"
   style="fill:#bebebe;fill-opacity:1" />
	<polygon
   class="st0"
   points="288.9,102.2 288.9,118.3 285.6,118.3 279.3,103.8 278.9,103.8 278.9,118.3 277.1,118.3 277.1,102.2    280.4,102.2 286.6,116.7 287.1,116.7 287.1,102.2  "
   id="polygon7213"
   style="fill:#bebebe;fill-opacity:1" />
	<polygon
   class="st0"
   points="299.1,103.8 299.1,109.3 305.7,109.3 305.7,110.9 299.1,110.9 299.1,116.7 307.1,116.7 307.1,118.3    297.3,118.3 297.3,102.2 307.1,102.2 307.1,103.8  "
   id="polygon7215"
   style="fill:#bebebe;fill-opacity:1" />
	<path
   class="st0"
   d="M314.7,118.1l-0.8-0.1l0.2-1.5c2.1,0.3,3.7,0.4,4.8,0.4c2.3,0,3.5-1.1,3.5-3.2c0-0.6-0.1-1.1-0.3-1.4   c-0.2-0.3-0.6-0.6-1.1-0.8c-0.5-0.2-1.2-0.4-2.2-0.6c-1.3-0.3-2.3-0.6-3-0.9c-0.7-0.3-1.2-0.8-1.6-1.4c-0.3-0.6-0.5-1.3-0.5-2.3   c0-2.9,1.7-4.3,5.2-4.3c1.2,0,2.8,0.2,4.9,0.5l-0.2,1.5c-2.2-0.3-3.8-0.4-4.6-0.4c-2.3,0-3.5,0.9-3.5,2.6c0,0.7,0.1,1.2,0.3,1.5   c0.2,0.3,0.6,0.6,1.2,0.9c0.5,0.2,1.4,0.5,2.6,0.7c1.2,0.3,2,0.6,2.7,0.9c0.6,0.3,1.1,0.8,1.4,1.3c0.3,0.5,0.4,1.2,0.4,2.1   c0,3.3-1.7,5-5.2,5C317.8,118.5,316.4,118.4,314.7,118.1"
   id="path7217"
   style="fill:#bebebe;fill-opacity:1" />
	<path
   class="st0"
   d="M331.7,118.1l-0.8-0.1l0.2-1.5c2.1,0.3,3.7,0.4,4.8,0.4c2.3,0,3.5-1.1,3.5-3.2c0-0.6-0.1-1.1-0.3-1.4   c-0.2-0.3-0.6-0.6-1.1-0.8c-0.5-0.2-1.2-0.4-2.2-0.6c-1.3-0.3-2.3-0.6-3-0.9c-0.7-0.3-1.2-0.8-1.6-1.4c-0.3-0.6-0.5-1.3-0.5-2.3   c0-2.9,1.7-4.3,5.2-4.3c1.2,0,2.8,0.2,4.9,0.5l-0.2,1.5c-2.2-0.3-3.8-0.4-4.6-0.4c-2.3,0-3.5,0.9-3.5,2.6c0,0.7,0.1,1.2,0.3,1.5   c0.2,0.3,0.6,0.6,1.2,0.9c0.5,0.2,1.4,0.5,2.6,0.7c1.2,0.3,2,0.6,2.7,0.9c0.6,0.3,1.1,0.8,1.4,1.3c0.3,0.5,0.4,1.2,0.4,2.1   c0,3.3-1.7,5-5.2,5C334.9,118.5,333.5,118.4,331.7,118.1"
   id="path7219"
   style="fill:#bebebe;fill-opacity:1" />
	<path
   class="st0"
   d="M212.7,142.7l-0.8-0.1l0.2-1.5c2.1,0.3,3.7,0.4,4.8,0.4c2.3,0,3.5-1.1,3.5-3.2c0-0.6-0.1-1.1-0.3-1.4   c-0.2-0.3-0.6-0.6-1.1-0.8c-0.5-0.2-1.2-0.4-2.2-0.6c-1.3-0.3-2.3-0.6-3-0.9c-0.7-0.3-1.2-0.8-1.6-1.4c-0.3-0.6-0.5-1.3-0.5-2.3   c0-2.9,1.7-4.3,5.2-4.3c1.2,0,2.8,0.2,4.9,0.5l-0.2,1.5c-2.2-0.3-3.8-0.4-4.6-0.4c-2.3,0-3.5,0.9-3.5,2.6c0,0.7,0.1,1.2,0.3,1.5   c0.2,0.3,0.6,0.6,1.2,0.9c0.5,0.2,1.4,0.5,2.6,0.7c1.2,0.3,2,0.6,2.7,0.9c0.6,0.3,1.1,0.8,1.4,1.3c0.3,0.5,0.4,1.2,0.4,2.1   c0,3.3-1.7,5-5.2,5C215.9,143.1,214.5,142.9,212.7,142.7"
   id="path7221"
   style="fill:#bebebe;fill-opacity:1" />
	<path
   class="st0"
   d="M227.2,142.2c-0.9-0.6-1.6-1.5-2-2.6c-0.4-1.2-0.6-2.8-0.6-4.7c0-1.9,0.2-3.5,0.6-4.7c0.4-1.2,1.1-2.1,2-2.7   c0.9-0.6,2.2-0.9,3.8-0.9c1.6,0,2.8,0.3,3.8,0.9c0.9,0.6,1.6,1.5,2,2.7c0.4,1.2,0.6,2.8,0.6,4.8s-0.2,3.6-0.6,4.7   c-0.4,1.2-1.1,2.1-2,2.6c-0.9,0.6-2.2,0.8-3.8,0.8C229.4,143.1,228.1,142.8,227.2,142.2 M233.7,140.9c0.6-0.4,1.1-1.1,1.4-2.1   c0.3-0.9,0.4-2.2,0.4-3.9c0-1.6-0.1-3-0.4-3.9c-0.3-1-0.7-1.7-1.4-2.2c-0.7-0.5-1.6-0.7-2.7-0.7c-1.2,0-2.1,0.2-2.7,0.7   c-0.7,0.5-1.1,1.2-1.4,2.2c-0.3,1-0.4,2.3-0.4,3.9c0,1.6,0.1,2.9,0.4,3.9c0.3,1,0.7,1.7,1.4,2.1c0.7,0.4,1.6,0.7,2.8,0.7   C232.2,141.5,233.1,141.3,233.7,140.9"
   id="path7223"
   style="fill:#bebebe;fill-opacity:1" />
	<polygon
   class="st0"
   points="249.5,141.3 249.5,142.9 240.6,142.9 240.6,126.7 242.4,126.7 242.4,141.3  "
   id="polygon7225"
   style="fill:#bebebe;fill-opacity:1" />
	<path
   class="st0"
   d="M252.8,141.9c-0.9-0.8-1.4-2.1-1.4-3.9v-11.2h1.8V138c0,2.3,1.3,3.5,3.8,3.5c1.3,0,2.3-0.3,3-0.8   c0.7-0.6,1-1.4,1-2.7v-11.3h1.8V138c0,1.8-0.5,3.1-1.4,3.9c-0.9,0.8-2.4,1.2-4.3,1.2C255.1,143.1,253.7,142.7,252.8,141.9"
   id="path7227"
   style="fill:#bebebe;fill-opacity:1" />
	<polygon
   class="st0"
   points="269.8,128.3 264.9,128.3 264.9,126.7 276.5,126.7 276.5,128.3 271.6,128.3 271.6,142.9 269.8,142.9     "
   id="polygon7229"
   style="fill:#bebebe;fill-opacity:1" />
	<rect
   x="278.8"
   y="126.7"
   class="st0"
   width="1.8"
   height="16.1"
   id="rect7231"
   style="fill:#bebebe;fill-opacity:1" />
	<path
   class="st0"
   d="M286.5,142.2c-0.9-0.6-1.6-1.5-2-2.6c-0.4-1.2-0.6-2.8-0.6-4.7c0-1.9,0.2-3.5,0.6-4.7c0.4-1.2,1.1-2.1,2-2.7   c0.9-0.6,2.2-0.9,3.8-0.9s2.8,0.3,3.8,0.9c0.9,0.6,1.6,1.5,2,2.7c0.4,1.2,0.6,2.8,0.6,4.8s-0.2,3.6-0.6,4.7c-0.4,1.2-1.1,2.1-2,2.6   c-0.9,0.6-2.2,0.8-3.8,0.8C288.7,143.1,287.4,142.8,286.5,142.2 M293,140.9c0.6-0.4,1.1-1.1,1.4-2.1c0.3-0.9,0.4-2.2,0.4-3.9   c0-1.6-0.1-3-0.4-3.9c-0.3-1-0.7-1.7-1.4-2.2c-0.7-0.5-1.6-0.7-2.7-0.7c-1.2,0-2.1,0.2-2.7,0.7c-0.7,0.5-1.1,1.2-1.4,2.2   c-0.3,1-0.4,2.3-0.4,3.9c0,1.6,0.1,2.9,0.4,3.9c0.3,1,0.7,1.7,1.4,2.1c0.7,0.4,1.6,0.7,2.8,0.7C291.5,141.5,292.4,141.3,293,140.9"
   id="path7233"
   style="fill:#bebebe;fill-opacity:1" />
	<polygon
   class="st0"
   points="311.7,126.7 311.7,142.9 308.5,142.9 302.2,128.3 301.7,128.3 301.7,142.9 299.9,142.9 299.9,126.7    303.3,126.7 309.5,141.3 310,141.3 310,126.7  "
   id="polygon7235"
   style="fill:#bebebe;fill-opacity:1" />
	<path
   class="st0"
   d="M315.8,142.7l-0.8-0.1l0.2-1.5c2.1,0.3,3.7,0.4,4.8,0.4c2.3,0,3.5-1.1,3.5-3.2c0-0.6-0.1-1.1-0.3-1.4   c-0.2-0.3-0.6-0.6-1.1-0.8c-0.5-0.2-1.2-0.4-2.2-0.6c-1.3-0.3-2.3-0.6-3-0.9c-0.7-0.3-1.2-0.8-1.6-1.4c-0.3-0.6-0.5-1.3-0.5-2.3   c0-2.9,1.7-4.3,5.2-4.3c1.2,0,2.8,0.2,4.9,0.5l-0.2,1.5c-2.2-0.3-3.8-0.4-4.6-0.4c-2.3,0-3.5,0.9-3.5,2.6c0,0.7,0.1,1.2,0.3,1.5   c0.2,0.3,0.6,0.6,1.2,0.9c0.5,0.2,1.4,0.5,2.6,0.7c1.2,0.3,2,0.6,2.7,0.9c0.6,0.3,1.1,0.8,1.4,1.3c0.3,0.5,0.4,1.2,0.4,2.1   c0,3.3-1.7,5-5.2,5C319,143.1,317.6,142.9,315.8,142.7"
   id="path7237"
   style="fill:#bebebe;fill-opacity:1" />
	<polygon
   class="st1"
   points="60.6,65.1 23.4,102.2 9.7,88.5 42,56.2 46.5,60.6 18.6,88.5 23.5,93.3 56.2,60.6 42,46.5 0,88.5    23.4,111.9 60.6,74.8 74.3,88.5 42,120.8 37.6,116.4 65.4,88.6 60.6,83.7 27.9,116.4 42,130.5 84.1,88.5  "
   id="polygon7239"
   style="fill:#bebebe;fill-opacity:1" />
	<polygon
   class="st2"
   points="46.5,135 51.3,139.8 88.5,102.6 120.8,135 88.5,167.3 65.5,144.3 88.5,121.2 102.2,135 88.5,148.7    81.2,141.4 76.3,146.2 88.5,158.4 111.9,135 88.5,111.5 55.8,144.3 88.5,177 130.5,135 88.5,92.9  "
   id="polygon7241"
   style="fill:#bebebe;fill-opacity:1" />
	<polygon
   class="st3"
   points="172.1,93.4 177,88.5 135,46.5 120.8,60.6 158,97.8 135,120.8 102.6,88.5 107.1,84.1 135,111.9    149.1,97.8 116.4,65.1 111.5,69.9 139.4,97.8 135,102.2 107.1,74.3 92.9,88.5 135,130.5 167.7,97.8 130.5,60.6 135,56.2  "
   id="polygon7243"
   style="fill:#bebebe;fill-opacity:1" />
	<path
   class="st4"
   d="M102.6,69.9l-9.3-9.3l13.7-13.7l9.3,9.3L130.5,42l-42-42l-4.9,4.9L120.8,42l-4.4,4.4L79.2,9.3L46.5,42l42,42   L102.6,69.9z M84.1,32.7l-4.9-4.9L65,42l27.9,27.9l-4.4,4.4L56.2,42l23-23l23,23L88.5,55.8L74.8,42L84.1,32.7z"
   id="path7245"
   style="fill:#bebebe;fill-opacity:1" />
</g>
</svg>
