<?xml version="1.0" encoding="UTF-8" standalone="no"?>
<!-- Generator: Adobe Illustrator 26.4.1, SVG Export Plug-In . SVG Version: 6.00 Build 0)  -->

<svg
   version="1.1"
   id="Layer_1"
   x="0px"
   y="0px"
   viewBox="0 0 991 235.8"
   style="enable-background:new 0 0 991 235.8;"
   xml:space="preserve"
   sodipodi:docname="scai-logo-gray.svg"
   inkscape:version="1.2.1 (9c6d41e410, 2022-07-14)"
   xmlns:inkscape="http://www.inkscape.org/namespaces/inkscape"
   xmlns:sodipodi="http://sodipodi.sourceforge.net/DTD/sodipodi-0.dtd"
   xmlns="http://www.w3.org/2000/svg"
   xmlns:svg="http://www.w3.org/2000/svg"><defs
   id="defs11630" /><sodipodi:namedview
   id="namedview11628"
   pagecolor="#ffffff"
   bordercolor="#000000"
   borderopacity="0.25"
   inkscape:showpageshadow="2"
   inkscape:pageopacity="0.0"
   inkscape:pagecheckerboard="0"
   inkscape:deskcolor="#d1d1d1"
   showgrid="false"
   inkscape:zoom="1.0008482"
   inkscape:cx="500.07584"
   inkscape:cy="117.9"
   inkscape:window-width="1440"
   inkscape:window-height="837"
   inkscape:window-x="-8"
   inkscape:window-y="-8"
   inkscape:window-maximized="1"
   inkscape:current-layer="Layer_1" />
<style
   type="text/css"
   id="style11563">
	.st0{fill:url(#SVGID_1_);}
	.st1{fill:url(#SVGID_00000089572784462321393130000007863937505632351386_);}
	.st2{fill:url(#SVGID_00000029735942654990692470000001185778244957364125_);}
	.st3{fill:url(#SVGID_00000142858843776788063120000010298270483789068424_);}
	.st4{fill:url(#SVGID_00000129190357657068981010000007014411006760045733_);}
	.st5{fill:url(#SVGID_00000007399759744756841380000005694480973925686149_);}
	.st6{fill:url(#SVGID_00000150073947148460558790000007303771702070075045_);}
	.st7{fill:url(#SVGID_00000145742434491103949130000013876136392229294736_);}
</style>
<g
   id="g11625"
   style="fill:#bebebe;fill-opacity:1">
	<g
   id="g11593"
   style="fill:#bebebe;fill-opacity:1">
		<linearGradient
   id="SVGID_1_"
   gradientUnits="userSpaceOnUse"
   x1="-79.3112"
   y1="337.2715"
   x2="966.8908"
   y2="-708.9305">
			<stop
   offset="0"
   style="stop-color:#AA00D9"
   id="stop11565" />
			<stop
   offset="1"
   style="stop-color:#0078FF"
   id="stop11567" />
		</linearGradient>
		<path
   class="st0"
   d="M3.5,235.8v-52.9h191.7c22.2,0,31-5.3,31-19.7c-1.4-13.7-10.2-16.9-33.8-18.3l-103.6-7.4    C17.3,132.9,0,111.7,0,70.5C0,28.2,19.7,0,89.2,0h176.6v52.9L85.6,52.5c-21.5,0-32.1,5.3-32.1,19.7c0,13.7,11.3,16.6,34.9,18.7    l103.6,7c70.1,5.6,87.4,24.7,87.7,67.3c0,41.9-18.7,70.5-88.1,70.5H3.5z"
   id="path11570"
   style="fill:#bebebe;fill-opacity:1" />
		
			<linearGradient
   id="SVGID_00000124152042454336865010000009677010606363224711_"
   gradientUnits="userSpaceOnUse"
   x1="19.6257"
   y1="571.5104"
   x2="984.825"
   y2="-393.6889">
			<stop
   offset="0"
   style="stop-color:#AA00D9"
   id="stop11572" />
			<stop
   offset="1"
   style="stop-color:#0078FF"
   id="stop11574" />
		</linearGradient>
		<path
   style="fill:#bebebe;fill-opacity:1"
   d="M431.1,235.8    c-83.2,0-118.8-37.4-118.8-118.1C312.4,38.8,346.2,0,428.3,0h149.4v53.2H432.5c-49,0-65.9,10.2-66.6,64.5    c0,27.1,4.2,43.3,15.5,52.9c11.3,9.5,25.4,12,51.8,12h144.5v53.2H431.1z"
   id="path11577" />
		
			<linearGradient
   id="SVGID_00000173869405494316111130000007717903533594660503_"
   gradientUnits="userSpaceOnUse"
   x1="-1537.1051"
   y1="2619.0227"
   x2="1206.399"
   y2="-124.4815">
			<stop
   offset="0"
   style="stop-color:#AA00D9"
   id="stop11579" />
			<stop
   offset="1"
   style="stop-color:#0078FF"
   id="stop11581" />
		</linearGradient>
		<path
   style="fill:#bebebe;fill-opacity:1"
   d="M937.1,235.8V0H991v235.8H937.1z"
   id="path11584" />
		
			<linearGradient
   id="SVGID_00000103243887734934510280000006045546999614175892_"
   gradientUnits="userSpaceOnUse"
   x1="147.9909"
   y1="777.1396"
   x2="978.988"
   y2="-53.8575">
			<stop
   offset="0"
   style="stop-color:#AA00D9"
   id="stop11586" />
			<stop
   offset="1"
   style="stop-color:#0078FF"
   id="stop11588" />
		</linearGradient>
		<path
   style="fill:#bebebe;fill-opacity:1"
   d="M769.3,0c25.5,0,41.7,4.6,53.5,28.4    c18.4,37.1,84,207.1,84,207.1h-58c0,0-47-125.3-66.4-169.3c-5.4-12-11.5-15.1-26.6-15.1h-3.9c-15.1,0-21.3,3.1-26.6,15.1    c-19.5,44-65.6,169.6-65.6,169.6h-58.4c0,0,64.9-170.2,83.3-207.3C696.2,4.6,712.3,0,737.5,0H769.3z"
   id="path11591" />
	</g>
	<g
   id="g11623"
   style="fill:#bebebe;fill-opacity:1">
		
			<linearGradient
   id="SVGID_00000109719146972078676850000016532352900779740326_"
   gradientUnits="userSpaceOnUse"
   x1="-79.3112"
   y1="337.2715"
   x2="966.8908"
   y2="-708.9305">
			<stop
   offset="0"
   style="stop-color:#AA00D9"
   id="stop11595" />
			<stop
   offset="1"
   style="stop-color:#0078FF"
   id="stop11597" />
		</linearGradient>
		<path
   style="fill:#bebebe;fill-opacity:1"
   d="M3.5,235.8v-52.9h191.7    c22.2,0,31-5.3,31-19.7c-1.4-13.7-10.2-16.9-33.8-18.3l-103.6-7.4C17.3,132.9,0,111.7,0,70.5C0,28.2,19.7,0,89.2,0h176.6v52.9    L85.6,52.5c-21.5,0-32.1,5.3-32.1,19.7c0,13.7,11.3,16.6,34.9,18.7l103.6,7c70.1,5.6,87.4,24.7,87.7,67.3    c0,41.9-18.7,70.5-88.1,70.5H3.5z"
   id="path11600" />
		
			<linearGradient
   id="SVGID_00000012472634720199519740000017417407792277501355_"
   gradientUnits="userSpaceOnUse"
   x1="19.6257"
   y1="571.5104"
   x2="984.825"
   y2="-393.6889">
			<stop
   offset="0"
   style="stop-color:#AA00D9"
   id="stop11602" />
			<stop
   offset="1"
   style="stop-color:#0078FF"
   id="stop11604" />
		</linearGradient>
		<path
   style="fill:#bebebe;fill-opacity:1"
   d="M431.1,235.8    c-83.2,0-118.8-37.4-118.8-118.1C312.4,38.8,346.2,0,428.3,0h149.4v53.2H432.5c-49,0-65.9,10.2-66.6,64.5    c0,27.1,4.2,43.3,15.5,52.9c11.3,9.5,25.4,12,51.8,12h144.5v53.2H431.1z"
   id="path11607" />
		
			<linearGradient
   id="SVGID_00000137827806861421322840000011715902865118447007_"
   gradientUnits="userSpaceOnUse"
   x1="-1537.1051"
   y1="2619.0227"
   x2="1206.399"
   y2="-124.4815">
			<stop
   offset="0"
   style="stop-color:#AA00D9"
   id="stop11609" />
			<stop
   offset="1"
   style="stop-color:#0078FF"
   id="stop11611" />
		</linearGradient>
		<path
   style="fill:#bebebe;fill-opacity:1"
   d="M937.1,235.8V0H991v235.8H937.1z"
   id="path11614" />
		
			<linearGradient
   id="SVGID_00000075154824285608947250000016857845214036976520_"
   gradientUnits="userSpaceOnUse"
   x1="147.9909"
   y1="777.1396"
   x2="978.988"
   y2="-53.8575">
			<stop
   offset="0"
   style="stop-color:#AA00D9"
   id="stop11616" />
			<stop
   offset="1"
   style="stop-color:#0078FF"
   id="stop11618" />
		</linearGradient>
		<path
   style="fill:#bebebe;fill-opacity:1"
   d="M769.3,0c25.5,0,41.7,4.6,53.5,28.4    c18.4,37.1,84,207.1,84,207.1h-58c0,0-47-125.3-66.4-169.3c-5.4-12-11.5-15.1-26.6-15.1h-3.9c-15.1,0-21.3,3.1-26.6,15.1    c-19.5,44-65.6,169.6-65.6,169.6h-58.4c0,0,64.9-170.2,83.3-207.3C696.2,4.6,712.3,0,737.5,0H769.3z"
   id="path11621" />
	</g>
</g>
</svg>
