<?xml version="1.0" encoding="UTF-8" standalone="no"?>
<!-- Generator: Adobe Illustrator 26.5.0, SVG Export Plug-In . SVG Version: 6.00 Build 0)  -->

<svg
   version="1.1"
   id="Layer_1"
   x="0px"
   y="0px"
   viewBox="0 0 450.5 138"
   style="enable-background:new 0 0 450.5 138;"
   xml:space="preserve"
   sodipodi:docname="sec-logo-gray.svg"
   inkscape:version="1.2.1 (9c6d41e410, 2022-07-14)"
   xmlns:inkscape="http://www.inkscape.org/namespaces/inkscape"
   xmlns:sodipodi="http://sodipodi.sourceforge.net/DTD/sodipodi-0.dtd"
   xmlns="http://www.w3.org/2000/svg"
   xmlns:svg="http://www.w3.org/2000/svg"><defs
   id="defs13627" /><sodipodi:namedview
   id="namedview13625"
   pagecolor="#ffffff"
   bordercolor="#000000"
   borderopacity="0.25"
   inkscape:showpageshadow="2"
   inkscape:pageopacity="0.0"
   inkscape:pagecheckerboard="0"
   inkscape:deskcolor="#d1d1d1"
   showgrid="false"
   inkscape:zoom="1.7101449"
   inkscape:cx="132.44492"
   inkscape:cy="69.000001"
   inkscape:window-width="1440"
   inkscape:window-height="837"
   inkscape:window-x="-8"
   inkscape:window-y="-8"
   inkscape:window-maximized="1"
   inkscape:current-layer="Layer_1" />
<style
   type="text/css"
   id="style13616">
	.st0{fill:#08569A;}
	.st1{fill:#F78E46;}
</style>
<g
   id="XMLID_1_"
   style="fill:#bebebe;fill-opacity:1">
	<path
   id="XMLID_85_"
   class="st0"
   d="M47.3,6.8c10.4,1.3,24.2,7.5,32.8,17C68.9,9.9,53.7,0.5,39.1,0C15.4-0.8,2.2,21.9,9.6,50.7   c1,4,2.4,7.9,4.1,11.7c2.3,5.8,5.6,11.7,9.8,17.4c2.8,3.8,5.8,7.3,9.1,10.6c-2.3-2.4-4.4-5-6.4-7.7C6.8,56.6,9.2,27.7,32.6,19.3   c10.2-3.7,23.4-2.1,35.7,2C56.7,13.3,42.6,8.2,27,13.5c-5.8,2-10.1,5.5-13.1,10.2C18.8,11.5,29.6,4.6,47.3,6.8"
   style="fill:#bebebe;fill-opacity:1" />
	<path
   id="XMLID_84_"
   class="st1"
   d="M98.4,60.8h-0.2c13.8,22.9,16.9,46.3,7.8,58.8c-12.4,17-44.6,7.6-72-20.9   c-26.8-27.9-39-63.8-28-81.3c-0.3,0.3-0.5,0.6-0.8,1C-8.1,36.5,5,76,34.3,106.6c29.3,30.5,63.8,40.6,77,22.4   C121.7,114.6,115.8,86.9,98.4,60.8"
   style="fill:#bebebe;fill-opacity:1" />
	<path
   id="XMLID_83_"
   class="st1"
   d="M91.9,49.6c3.5,4.2,4.6,9.1,2.4,10.9c-2.2,1.8-6.7-0.2-10.2-4.4c-3.5-4.2-4.6-9.1-2.4-10.9   C83.8,43.4,88.4,45.4,91.9,49.6"
   style="fill:#bebebe;fill-opacity:1" />
	<path
   id="XMLID_2_"
   class="st0"
   d="M263.6,41.7l-2.4,4.1c1.2,1.6,2.1,3.2,2.6,4.8H253c-1.1,0-1.8-0.3-2-1c-0.4-1.2-0.9-3.2-1.3-6   c-0.5-3.2-0.9-5.4-1.2-6.4l-0.2-0.1l-2.5,4.3c0.1,0.4,0.2,0.8,0.4,1.3c-1.6,0.9-3.1,1.7-4.6,2.6c-1.1,0.7-1.8,1.5-2.4,2.4   c-0.5,0.9-1.1,2.6-1.7,5.1l7.7,1.4c0.4,0.1,0.8-0.4,1.4-1.4c0.7-1.2,1.1-1.9,1.3-2c0.3,0.9,0.6,1.8,0.9,2.7   c0.5,1.1,1.2,1.6,2.1,1.6h15.2c0.6-3.2,0.9-5.4,0.9-6.6C266.9,46.6,265.8,44.3,263.6,41.7 M243.1,48.2c0.6-0.5,1.1-0.9,1.6-1.1   c0.9-0.9,1.5-1.6,1.9-2.1l0.8,3.7L243.1,48.2z M422.6,40.8l3.6,1.8c1.4-1,2.3-1.9,2.6-2.8l-3.6-2c-0.4,0.4-0.7,0.7-1.1,1.1   c-0.7,0.6-1,0.8-1.1,0.8c-0.5,0-1.5-0.6-3.2-1.8c-1.3,1.2-2.2,2.1-2.7,2.8c2.1,1.2,3.3,1.9,3.6,1.9C420.6,42.6,421.2,42,422.6,40.8    M160.3,60.6c0-0.2-0.5-0.8-1.5-1.7c-1-0.9-1.6-1.4-1.8-1.4c-0.2,0-0.8,0.5-1.7,1.4c-1,0.9-1.5,1.5-1.5,1.6c0,0.2,0.5,0.6,1.4,1.4   c0.9,0.8,1.5,1.2,1.8,1.2C159.2,61.9,160.3,61,160.3,60.6 M450.5,48.4c0-2.5-0.4-6.5-1.2-12c-1.6,2.2-2.6,4-3.1,5.6l1.9,13.6   C449.6,53.7,450.5,51.3,450.5,48.4 M260.5,59.1c-0.5,0.6-0.9,0.8-1.1,0.8c-0.3,0-1.3-0.6-3-1.8c-0.8,1-1.6,1.9-2.3,2.9   c0.7,0.6,1.7,1.3,3.2,2.1c0.9-0.9,1.5-1.5,1.9-1.9l3.2,1.9c0.7-0.6,1.5-1.5,2.4-2.9l-3.3-2.1C261.4,58.2,261,58.5,260.5,59.1    M222.4,36.3c-0.1-0.4-0.2-0.8-0.3-1.4l-0.3-0.2c-0.9,1-1.9,2.6-3,5c0.4,0.6,0.9,1,1.3,1.3c0.3,0.6,0.6,2.1,0.9,4.5   c0.3,2.3,0.5,3.9,0.5,4.7c0,0.1,0,0.3-0.1,0.4h-3.2c-0.7,0-1.1,0-1.1,0c-0.4-0.1-0.6-0.3-0.7-0.7c-0.1-1-0.3-3.6-0.6-7.6   c-0.2-3.2-0.6-5.7-1-7.6l-0.2-0.1l-3.3,4.6l1.7,11.4h-4.4v0h-0.8c-1.2,0-2.9-1.2-5-3.6c-1.5-1.7-3-3.4-4.5-5.1l9.6-1.9   c0.5-1.6,0.9-3.1,1.2-4.5c-0.3,0-4.5,0.8-12.6,2.5c-0.8,2.1-1.4,4.2-1.7,6.3l6.6,6.4H195v0h-4c0.5-1.1,0.9-2.2,1.4-3.3   c0.6-1.5,0.9-2.6,0.9-3.4v-2.4c-1.3,0-2.7,0.8-4.4,2.2c-1.4,1.2-2.5,2.5-3.3,3.9c-0.6,1.3-1,2.3-1.2,3h-2.2c-1.8,0-3.1-0.6-4.1-1.8   c-0.9-1.3-1.7-2.5-2.5-3.8c-0.2,0.3-0.7,1-1.4,2.1c-0.7,1.1-1,1.8-1,1.9c0,0.1,0.4,0.6,1.2,1.7c0.8,1.1,1.2,1.8,1.2,2.3   c0,1-1.2,2.3-3.5,3.8c-2.3,1.6-4.1,2.4-5.3,2.4c-0.8,0-1.7-0.3-2.7-0.9c-1-0.6-1.5-0.9-1.4-0.9c-0.2,0-0.2,0-0.2,0.1v0.5   c0.8,0.9,2.1,1.7,4.1,2.8c2,1,3.5,1.5,4.5,1.5c1.6,0,3-0.9,4.2-2.7c0.9-1.6,1.8-3.1,2.6-4.6l0.2-0.2c0.7,0.4,1.3,0.5,1.7,0.5h3.1   c0.1,0,0.4,0.5,1,1.6c0.7,1.3,1.3,2.3,1.8,2.9c0.8,1,1.7,1.6,2.6,1.6c2.3,0,4.1-2,5.3-6h8l1.7-2.9l3.1,2.9h3.5v0h1.8l1.5-2.8   c0,0.5,0.1,1.1,0.1,1.6c0.1,0.8,0.3,1.2,0.7,1.2h8.6c0.4-0.2,0.6-0.3,0.7-0.4c0.2-0.2,0.4-1.1,0.8-2.5c0.3-1.5,0.4-2.3,0.4-2.7   l-0.5-5.7l3.3-4.3c-0.8-0.3-1.7-0.8-2.7-1.5C223.3,37.3,222.6,36.7,222.4,36.3 M190.8,56.7h-1c-0.7,0-1.4-0.3-2.1-0.7   c-0.7-0.5-1.2-1.1-1.5-1.7c0.8,0,1.7,0.2,2.6,0.6c1,0.4,1.7,1,2,1.6V56.7z M189.5,48.6c-0.9,0.4-1.8,0.7-2.7,1.1h-0.3   c1.7-2.3,3.2-3.7,4.2-4.4c0.1,0.3,0.1,0.6,0.1,1C190.8,47.3,190.3,48.1,189.5,48.6 M423.3,55.2h5.7c0.4-0.5,0.7-0.9,0.9-1.2   c0.3,0.5,0.4,0.9,0.5,1.2h7.6c0.4-0.2,0.6-0.3,0.7-0.4c0.2-0.2,0.4-1.1,0.8-2.5c0.3-1.5,0.4-2.3,0.4-2.7l-0.5-5.7l3.3-4.3   c-0.8-0.3-1.7-0.8-2.7-1.5c-1.4-0.8-2.1-1.4-2.2-1.8c-0.2-0.4-0.2-0.8-0.3-1.4l-0.2-0.2c-0.9,1-1.9,2.6-3,5c0.4,0.6,0.9,1,1.3,1.3   c0.3,0.6,0.6,2.1,0.9,4.5c0.4,2.3,0.6,3.9,0.6,4.7c0,0.1-0.1,0.3-0.2,0.4h-4c-1.3,0-1.9-0.9-1.9-2.6c0-0.1,0-0.3,0-0.6   c0-0.3,0-0.5,0-0.6c0-0.7-0.1-1.3-0.2-1.8c-0.3,0.2-0.9,0.8-1.6,1.7c-0.8,0.9-1.1,1.6-1.1,1.9c0,0.2,0,0.4,0.1,0.7   c0.1,0.3,0.1,0.6,0.1,0.8c0,0.2-0.1,0.3-0.2,0.5c-1.9-0.1-3-0.1-3.2,0c0.5-2,0.7-3.8,0.7-5.6c0-0.1-0.1-0.3-0.1-0.5   c-0.4,0.4-1,1.1-1.8,2.1c-0.8,1.2-1.2,1.9-1.2,2.3c0,0.8-0.1,1.3-0.4,1.5h-3.7c0.9-2.5,1.3-4.1,1.3-4.8l-0.1-1.1   c-0.4,0.2-1,0.7-1.8,1.7c-0.8,1-1.2,1.6-1.2,2c0,0.8-0.2,1.5-0.6,2.2h-4.1c-1.7,0-3.1-0.6-4.1-1.8c-0.8-1.3-1.7-2.5-2.5-3.8   c-0.2,0.3-0.7,1-1.4,2.1c-0.7,1.1-1,1.8-1,1.9c0,0.1,0.4,0.6,1.2,1.7c0.8,1.1,1.2,1.8,1.2,2.3c0,1-1.2,2.3-3.5,3.8   c-2.3,1.6-4.1,2.4-5.3,2.4c-0.8,0-1.7-0.3-2.7-0.9c-1-0.6-1.5-0.9-1.4-0.9c-0.1,0-0.2,0-0.2,0.1v0.5c0.8,0.9,2.1,1.7,4.1,2.8   c2,1,3.5,1.5,4.5,1.5c1.6,0,3-0.9,4.3-2.7c0.9-1.6,1.8-3.1,2.6-4.6l0.2-0.2c0.7,0.4,1.2,0.5,1.6,0.5h5.4c0.3,0,0.5-0.2,0.8-0.5   c0.3-0.3,0.5-0.6,0.7-0.7c0.2,0.4,0.4,0.8,0.4,1.2h5c0.1,0,0.2-0.1,0.5-0.4c0.2-0.3,0.4-0.4,0.5-0.4   C422.6,54.4,422.9,54.7,423.3,55.2 M421.2,37.5c0.8,0.6,1.2,0.9,1.4,0.9c0.3,0,0.7-0.3,1.4-0.9c0.6-0.5,1-0.9,1.2-1.2   c-1.5-1.5-2.3-2.2-2.6-2.3c-1.7,1.2-2.5,2-2.5,2.3C420.1,36.5,420.4,36.9,421.2,37.5 M338.4,54.8c0.2-0.3,0.4-1.1,0.7-2.5   c0.3-1.5,0.4-2.3,0.4-2.7l-0.5-5.7l3.3-4.3c-0.8-0.3-1.7-0.8-2.7-1.5c-1.4-0.8-2.1-1.4-2.3-1.8c-0.2-0.4-0.2-0.8-0.2-1.4l-0.3-0.2   c-0.9,1-1.9,2.6-3,5c0.4,0.6,0.9,1,1.3,1.3c0.3,0.6,0.5,2.1,0.9,4.5c0.4,2.3,0.5,3.9,0.5,4.7c0,0.1,0,0.3-0.1,0.4h-4.1   c-1.3,0-2-0.9-2-2.6c0-0.1,0.1-0.3,0.1-0.6c0-0.3,0-0.5-0.1-0.6c0-0.7-0.1-1.3-0.2-1.8c-0.3,0.2-0.9,0.8-1.6,1.7   c-0.8,0.9-1.1,1.6-1.1,1.9c0,0.2,0.1,0.4,0.1,0.7c0.1,0.3,0.1,0.6,0.1,0.8c0,0.2-0.1,0.3-0.2,0.5c-2-0.1-3-0.1-3.2,0   c0.5-2,0.7-3.8,0.7-5.6c0-0.1,0-0.3-0.1-0.5c-0.4,0.4-1.1,1.1-1.8,2.1c-0.8,1.2-1.2,1.9-1.2,2.4c0,0.8-0.1,1.3-0.4,1.6h-3.7   c0.8-2.5,1.3-4.1,1.3-4.8l-0.1-1.1c-0.4,0.2-1,0.7-1.9,1.7c-0.8,1-1.2,1.6-1.2,2c0,0.8-0.2,1.5-0.5,2.2h-6.2c0.3-0.5,0.6-1,0.9-1.5   c0.4-0.6,0.6-1.1,0.6-1.5c0-1.1-0.6-2.2-1.8-3c-1.2-0.8-2.3-1.2-3.5-1.2c-2,0-3.4,0.5-4.4,1.5c-0.5,0.6-1.3,1.9-2.2,4.1   c0.9-0.1,1.4-0.2,1.5-0.2c1.3,0,2.4,0.6,3.3,1.8h-7.9c-0.8-4.9-2.1-7.3-4-7.3c-1.2,0-2.5,1.2-3.7,3.5c-1.1,2.1-1.6,3.8-1.6,5.1   c0,1.2,0.7,2.1,2.1,2.6c0.2,0.1,1.4,0.3,3.7,0.7c-1,1-2.3,1.9-3.7,2.7c-1.7,0.9-3.1,1.3-4.4,1.3c-0.4,0-1-0.1-1.8-0.3   c-0.8-0.2-1.4-0.3-1.9-0.3c-0.1,0-0.3,0-0.4,0.2v0.4c0.7,0.8,1.9,1.6,3.5,2.2c1.5,0.6,2.9,0.9,4.1,0.9c1.4,0,2.9-0.9,4.5-2.5   c1.2-1.3,2.2-2.8,2.9-4.5h9c0.6-0.9,1.1-1.6,1.3-2.1c0.6,0.9,1,1.7,1.2,2.1h7.7c0.2,0,0.5-0.2,0.8-0.5c0.3-0.3,0.5-0.6,0.7-0.7   c0.2,0.4,0.4,0.8,0.4,1.2h5c0.1,0,0.2-0.1,0.5-0.4c0.3-0.3,0.4-0.4,0.5-0.4c0.2,0,0.4,0.3,0.8,0.8h5.7c0.4-0.5,0.6-0.9,0.8-1.2   c0.2,0.5,0.4,0.9,0.5,1.2h7.6C338.1,55,338.3,54.9,338.4,54.8 M291.5,50.6c-1.2,0-2-0.4-2.5-1.3c0-0.1,0-0.1,0-0.2   c0-0.2,0.1-0.5,0.5-0.9c0.4-0.4,0.7-0.6,0.9-0.6c0.4,0,0.8,0.3,1.2,1c0.1,0.1,0.3,0.6,0.8,1.6C292,50.5,291.8,50.6,291.5,50.6    M128.5,54.2c0.8,0.2,1.7,0.4,2.5,0.7c-0.9,0.4-1.6,1-2.3,1.7c-0.9,0.9-1.3,1.7-1.3,2.4v0.3c2.9-2.6,6.3-4,10.2-4.1   c0.9-1.3,1.8-2.5,2.5-3.7c-5.5,0-8.8-0.5-9.8-1.6c0.9-0.7,1.7-1,2.2-1c0.5,0,1,0.2,1.6,0.5c0.5,0.3,1,0.7,1.4,1   c1.2-1.8,1.8-2.8,1.8-3c0-0.6-0.3-1.2-0.9-1.6c-0.6-0.5-1.2-0.7-1.8-0.7c-1.9,0-3.6,0.8-5.3,2.4c-1.6,1.6-2.4,3.3-2.4,5.1   C127,53.4,127.5,53.9,128.5,54.2 M241.5,37.2c1.9,1.2,3.1,1.8,3.5,1.8c0.2,0,0.6-0.4,1.3-1.2c0.6-0.7,1-1.3,1.2-1.6l-3.5-1.9   c-1.5,1.2-2.3,1.8-2.2,1.8c-0.5,0-1.6-0.6-3.2-1.8c-1.4,1.5-2.2,2.5-2.5,2.8c1.5,1,2.7,1.6,3.5,1.8C240.5,38,241.2,37.4,241.5,37.2    M162.5,55.2c0.9,0,1.3-2.1,1.3-6.4c0-1.4-0.3-2.7-0.9-4.2c-0.6-1.4-1.4-2.5-2.4-3.3l-2.5,4.4c0.5,0.4,1,1.2,1.7,2.3   c0.6,1.1,0.9,1.9,0.9,2.5c0,0.1,0,0.2,0,0.2h-9.4c-0.8,0-1.3-0.2-1.4-0.7c-0.4-1.5-0.7-4-0.9-7.4c-0.2-2.5-0.3-5.1-0.5-7.7   c-0.3,0.3-0.8,0.9-1.6,1.9c-0.9,1.1-1.3,1.7-1.3,1.9l1.5,16.6H162.5z M350.2,48.4c0-2.5-0.4-6.5-1.2-12c-1.6,2.2-2.6,4-3.1,5.6   l1.9,13.6C349.4,53.7,350.2,51.3,350.2,48.4 M388.5,45.8c-1.7-1.3-3.3-2.7-5-4c4-1.2,7-2.1,9-2.7c0.5-1.7,0.9-3.2,1.2-4.6   l-13.3,3.9c-0.2,0.9-0.5,1.9-0.7,2.8c-0.3,1.1-0.5,2.1-0.5,2.8c0,0.2,0.5,0.9,1.5,2c1,1.1,1.7,1.6,2,1.6c0.3,0,0.6-0.2,0.7-0.5   l4.7,3.7h-10.5c-1.1,0-1.7-0.3-2-1c-0.4-1.2-0.8-3.2-1.3-6c-0.5-3.2-0.9-5.4-1.2-6.4l-0.2-0.1l-2.5,4.3c0.1,0.4,0.2,0.8,0.4,1.3   c-1.5,0.9-3.1,1.7-4.6,2.6c-1.1,0.7-1.9,1.5-2.3,2.4c-0.5,0.9-1.1,2.6-1.7,5.1l7.7,1.4c0.4,0.1,0.9-0.4,1.4-1.4   c0.6-1.2,1.1-1.9,1.3-2c0.3,0.9,0.6,1.8,0.9,2.7c0.5,1.1,1.2,1.6,2.1,1.6h15.4c0.9-2.9,1.4-4.5,1.4-5   C392.2,49.4,391,47.9,388.5,45.8 M367.8,48.2c0.6-0.5,1.2-0.9,1.6-1.1c0.9-0.9,1.5-1.6,1.9-2.1l0.8,3.7L367.8,48.2z M366.2,37.2   c1.9,1.2,3.1,1.8,3.5,1.8c0.2,0,0.6-0.4,1.3-1.2c0.6-0.7,1-1.3,1.2-1.6l-3.5-1.9c-1.5,1.2-2.3,1.8-2.2,1.8c-0.5,0-1.5-0.6-3.2-1.8   c-1.4,1.5-2.2,2.5-2.5,2.8c1.5,1,2.7,1.6,3.5,1.8C365.3,38,365.9,37.4,366.2,37.2 M280.7,50.3c0-4.5-2.1-7.7-6.4-9.7l-1.5,4.9   c0.8,0.1,1.8,0.8,3.1,1.9c1.2,1.2,1.9,2.2,1.9,2.9c0,0,0,0.1,0,0.2h-8.3l-0.4,4.6h10.2C280.3,55.2,280.7,53.6,280.7,50.3 M191,83.3   h3.5V80H191V83.3z M168,90.8c0,1.9-0.1,3.1-0.3,3.6c-0.2,0.5-0.5,0.9-1,1.3c-0.5,0.3-1,0.5-1.6,0.5c-0.5,0-1-0.1-1.3-0.4   c-0.3-0.2-0.6-0.6-0.7-1c-0.1-0.5-0.2-1.6-0.2-3.5v-6.2h-3.5v8.5c0,1.3,0.1,2.2,0.5,3c0.3,0.7,0.8,1.3,1.5,1.7   c0.7,0.4,1.5,0.6,2.4,0.6c0.9,0,1.7-0.2,2.5-0.6c0.8-0.4,1.4-1,1.9-1.7v2h3.3V85.1H168V90.8z M155.9,94.1l0-4.1   c0-1.5-0.2-2.6-0.5-3.1c-0.3-0.6-0.9-1.1-1.6-1.5c-0.8-0.4-1.9-0.5-3.5-0.5c-1.7,0-3,0.3-3.9,0.9c-0.9,0.6-1.5,1.6-1.8,2.9l3.2,0.6   c0.2-0.6,0.5-1.1,0.9-1.3c0.3-0.2,0.8-0.4,1.5-0.4c0.9,0,1.6,0.2,1.9,0.4c0.3,0.3,0.5,0.8,0.5,1.5v0.3c-0.6,0.3-1.8,0.6-3.4,0.9   c-1.2,0.2-2.1,0.5-2.8,0.8c-0.6,0.3-1.1,0.8-1.5,1.4c-0.4,0.6-0.5,1.3-0.5,2c0,1.1,0.4,2.1,1.2,2.8c0.8,0.7,1.9,1.1,3.3,1.1   c0.8,0,1.5-0.2,2.2-0.5c0.7-0.3,1.3-0.8,1.9-1.3c0,0.1,0.1,0.2,0.1,0.4c0.1,0.4,0.3,0.8,0.3,1h3.5c-0.3-0.7-0.5-1.3-0.6-1.8   C156,96.1,155.9,95.3,155.9,94.1 M152.5,92.8c0,0.9,0,1.4-0.1,1.7c-0.1,0.5-0.4,0.9-0.8,1.2c-0.6,0.4-1.2,0.6-1.8,0.6   c-0.6,0-1-0.2-1.4-0.5c-0.4-0.4-0.6-0.8-0.6-1.3c0-0.5,0.3-0.9,0.7-1.3c0.3-0.2,0.9-0.4,1.9-0.6c1-0.2,1.7-0.4,2.1-0.5V92.8z    M190.9,98.5h3.5V85.1h-3.5V98.5z M139.2,88.3c-0.9-0.4-2.2-0.9-4-1.3c-1.8-0.4-3-0.9-3.4-1.2c-0.4-0.3-0.5-0.7-0.5-1.1   c0-0.5,0.2-0.9,0.6-1.1c0.6-0.4,1.5-0.7,2.5-0.7c1,0,1.8,0.2,2.3,0.6c0.5,0.4,0.9,1.1,1,2l3.7-0.1c-0.1-1.7-0.7-3.1-1.8-4.1   c-1.2-1-2.9-1.6-5.2-1.6c-1.4,0-2.6,0.2-3.6,0.7c-1,0.4-1.7,1.1-2.3,1.9c-0.6,0.8-0.8,1.7-0.8,2.6c0,1.5,0.6,2.7,1.7,3.7   c0.8,0.7,2.2,1.3,4.2,1.8c1.6,0.4,2.5,0.6,3,0.8c0.6,0.2,1.1,0.5,1.4,0.8c0.3,0.3,0.4,0.7,0.4,1.1c0,0.7-0.3,1.3-0.9,1.8   c-0.6,0.5-1.5,0.8-2.7,0.8c-1.1,0-2-0.3-2.7-0.9c-0.7-0.6-1.1-1.5-1.3-2.7l-3.6,0.4c0.2,2.1,1,3.6,2.2,4.7c1.2,1.1,3,1.6,5.4,1.6   c1.6,0,2.9-0.2,4-0.7c1.1-0.4,1.9-1.1,2.5-2.1c0.6-0.9,0.9-1.9,0.9-3c0-1.2-0.2-2.1-0.7-2.9C140.7,89.4,140.1,88.8,139.2,88.3    M208.9,90.3h9.3v-3.1h-9.3v-4.1h9.9V80h-13.6v18.5h14v-3.1h-10.3V90.3z M183.9,86.7c-1.1-1.2-2.4-1.8-3.9-1.8c-1.6,0-3,0.6-4,1.8   c-1.1,1.2-1.6,2.9-1.6,5.2c0,2.2,0.5,3.9,1.6,5.2c1.1,1.2,2.4,1.9,3.9,1.9c0.8,0,1.5-0.2,2.3-0.6c0.8-0.4,1.4-1,1.9-1.7v2h3.3V80   h-3.5V86.7z M183.1,95c-0.6,0.7-1.3,1-2.1,1c-1,0-1.8-0.5-2.4-1.4c-0.4-0.6-0.6-1.7-0.6-3.1c0-1.3,0.3-2.4,0.9-3   c0.6-0.7,1.3-1,2.1-1c0.9,0,1.6,0.3,2.1,1c0.6,0.7,0.8,1.8,0.8,3.3C183.9,93.3,183.6,94.3,183.1,95 M345.8,94.7   c-0.7,0.6-1.6,0.9-2.5,0.9c-1.3,0-2.4-0.5-3.3-1.5c-0.8-1-1.3-2.7-1.3-5c0-2.2,0.4-3.8,1.3-4.8c0.9-1,2-1.5,3.3-1.5   c1,0,1.8,0.3,2.5,0.8c0.7,0.5,1.2,1.3,1.4,2.3l3.7-0.9c-0.4-1.5-1-2.6-1.9-3.4c-1.4-1.3-3.2-2-5.5-2c-2.6,0-4.7,0.9-6.3,2.6   c-1.6,1.7-2.4,4.1-2.4,7.1c0,2.9,0.8,5.2,2.4,6.9c1.6,1.7,3.6,2.5,6,2.5c2,0,3.6-0.5,4.9-1.5c1.3-1,2.2-2.5,2.8-4.5l-3.6-1.1   C347,93,346.5,94,345.8,94.7 M360.1,84.8c-1.3,0-2.5,0.3-3.6,0.9c-1.1,0.6-1.9,1.4-2.5,2.5c-0.6,1.1-0.9,2.3-0.9,3.4   c0,1.5,0.3,2.8,0.9,3.9c0.6,1.1,1.4,1.9,2.5,2.4c1.1,0.6,2.3,0.8,3.5,0.8c2,0,3.6-0.7,5-2c1.3-1.3,2-3,2-5c0-2-0.6-3.7-2-5   C363.8,85.5,362.1,84.8,360.1,84.8 M362.4,94.9c-0.6,0.7-1.4,1.1-2.3,1.1c-0.9,0-1.7-0.4-2.3-1.1c-0.7-0.7-0.9-1.7-0.9-3.1   c0-1.3,0.3-2.4,0.9-3.1c0.6-0.7,1.4-1.1,2.3-1.1c0.9,0,1.7,0.3,2.3,1.1c0.6,0.7,1,1.7,1,3C363.4,93.2,363.1,94.2,362.4,94.9    M387.3,85.4c-0.7-0.4-1.5-0.6-2.5-0.6c-0.8,0-1.5,0.2-2.2,0.5c-0.7,0.3-1.3,0.9-1.9,1.6c-0.4-0.7-0.9-1.2-1.5-1.6   c-0.6-0.3-1.4-0.5-2.2-0.5c-1.6,0-3,0.7-4.2,2.1v-1.8h-3.3v13.4h3.5V92c0-1.3,0.1-2.2,0.3-2.7c0.2-0.6,0.5-1,0.9-1.3   c0.5-0.3,1-0.4,1.5-0.4c0.5,0,0.8,0.1,1.1,0.3c0.3,0.2,0.5,0.5,0.6,0.9c0.1,0.4,0.2,1.2,0.2,2.5v7.3h3.6V92c0-1.3,0.1-2.2,0.3-2.8   c0.2-0.6,0.5-1,0.9-1.3c0.4-0.3,0.9-0.4,1.4-0.4c0.7,0,1.2,0.2,1.5,0.8c0.2,0.4,0.3,1.2,0.3,2.6v7.6h3.6V90c0-1.3-0.1-2.2-0.4-2.8   C388.5,86.4,388,85.8,387.3,85.4 M310.2,95.9c-0.3,0-0.5-0.1-0.6-0.2c-0.2-0.1-0.3-0.3-0.3-0.4c0-0.2-0.1-0.8-0.1-1.9v-5.4h2.4   v-2.8h-2.4v-4.7l-3.5,2.1v2.6H304v2.8h1.6v5.9c0,1.3,0.1,2.1,0.1,2.5c0.1,0.6,0.3,1,0.5,1.4c0.2,0.4,0.6,0.6,1.1,0.8   c0.5,0.2,1.1,0.3,1.7,0.3c1,0,2-0.2,2.8-0.5l-0.3-2.8C311,95.8,310.5,95.9,310.2,95.9 M319.2,94.6l-3.2-9.5h-3.7l5,13.4   c-0.2,0.7-0.5,1.4-0.9,1.9c-0.4,0.5-1,0.7-1.8,0.7c-0.4,0-0.9-0.1-1.5-0.2l0.3,2.8c0.6,0.1,1.3,0.2,2,0.2c0.7,0,1.3-0.1,1.8-0.2   c0.5-0.2,1-0.4,1.3-0.6c0.4-0.3,0.7-0.6,0.9-1c0.3-0.4,0.6-1,0.9-1.8l0.9-2.4l4.7-12.9h-3.7L319.2,94.6z M434,86.3   c-0.3-0.4-0.8-0.8-1.5-1.1c-0.7-0.3-1.3-0.4-2.1-0.4c-1.8,0-3.2,0.7-4.4,2.2v-2h-3.3v13.4h3.5v-6.1c0-1.5,0.1-2.5,0.3-3.1   c0.2-0.5,0.5-1,1-1.3c0.5-0.3,1-0.5,1.7-0.5c0.4,0,0.9,0.1,1.2,0.3c0.3,0.2,0.6,0.6,0.7,1c0.1,0.4,0.2,1.4,0.2,2.8v6.8h3.5v-8.3   c0-1-0.1-1.8-0.2-2.4C434.5,87.2,434.3,86.8,434,86.3 M443.7,94.6l-3.2-9.5h-3.7l5,13.4c-0.2,0.7-0.5,1.4-0.9,1.9   c-0.4,0.5-1,0.7-1.8,0.7c-0.4,0-0.9-0.1-1.5-0.2l0.3,2.8c0.6,0.1,1.3,0.2,2,0.2c0.7,0,1.2-0.1,1.8-0.2c0.5-0.2,1-0.4,1.4-0.6   c0.3-0.3,0.7-0.6,0.9-1c0.3-0.4,0.6-1,0.9-1.8l0.9-2.4l4.7-12.9h-3.7L443.7,94.6z M419.2,94.1l0-4.1c0-1.5-0.1-2.6-0.4-3.1   c-0.3-0.6-0.9-1.1-1.6-1.5c-0.8-0.4-2-0.5-3.5-0.5c-1.7,0-3,0.3-3.9,0.9c-0.9,0.6-1.5,1.6-1.9,2.9l3.2,0.6c0.2-0.6,0.5-1.1,0.8-1.3   c0.4-0.2,0.9-0.4,1.5-0.4c0.9,0,1.6,0.2,1.9,0.4c0.4,0.3,0.5,0.8,0.5,1.5v0.3c-0.6,0.3-1.8,0.6-3.4,0.9c-1.2,0.2-2.1,0.5-2.8,0.8   c-0.6,0.3-1.1,0.8-1.5,1.4c-0.3,0.6-0.5,1.3-0.5,2c0,1.1,0.4,2.1,1.2,2.8c0.8,0.7,1.9,1.1,3.2,1.1c0.8,0,1.5-0.2,2.2-0.5   c0.7-0.3,1.3-0.8,1.9-1.3c0,0.1,0.1,0.2,0.1,0.4c0.1,0.4,0.3,0.8,0.4,1h3.5c-0.3-0.7-0.5-1.3-0.6-1.8   C419.3,96.1,419.2,95.3,419.2,94.1 M415.8,92.8c0,0.9-0.1,1.4-0.2,1.7c-0.1,0.5-0.4,0.9-0.8,1.2c-0.6,0.4-1.2,0.6-1.8,0.6   c-0.6,0-1-0.2-1.4-0.5c-0.4-0.4-0.5-0.8-0.5-1.3c0-0.5,0.2-0.9,0.7-1.3c0.3-0.2,1-0.4,1.9-0.6c1-0.2,1.7-0.4,2.2-0.5V92.8z    M400.1,84.8c-0.9,0-1.7,0.2-2.4,0.6c-0.7,0.4-1.3,0.9-1.7,1.6v-2h-3.3v18.5h3.5v-6.7c0.7,0.7,1.3,1.2,1.9,1.5   c0.6,0.3,1.3,0.5,2,0.5c1.6,0,2.9-0.6,4-1.9c1.1-1.2,1.6-3,1.6-5.2c0-2.2-0.6-3.9-1.6-5.1C403,85.5,401.6,84.8,400.1,84.8    M401.2,95c-0.5,0.7-1.2,1-2.1,1c-0.9,0-1.6-0.3-2.2-1.1c-0.6-0.7-0.9-1.8-0.9-3.3c0-1.3,0.3-2.3,0.8-3c0.6-0.7,1.3-1,2.2-1   c0.8,0,1.5,0.3,2.1,1c0.6,0.7,0.8,1.7,0.8,3.1C402,93.3,401.8,94.4,401.2,95 M291.4,95.4c-0.4,0.4-1,0.6-1.6,0.6   c-0.9,0-1.6-0.3-2.1-1c-0.5-0.7-0.8-1.8-0.8-3.4c0-1.4,0.3-2.4,0.8-3.1c0.5-0.6,1.2-0.9,2.1-0.9c0.6,0,1.2,0.2,1.6,0.5   c0.4,0.3,0.7,0.8,0.8,1.5l3.5-0.6c-0.4-1.4-1.1-2.5-2.1-3.2c-1-0.7-2.2-1-3.9-1c-2,0-3.5,0.6-4.7,1.8c-1.2,1.2-1.8,3-1.8,5.2   c0,2.2,0.6,3.9,1.7,5.1c1.2,1.2,2.7,1.9,4.7,1.9c1.7,0,3.1-0.4,4.1-1.3c1-0.8,1.7-2,2.1-3.6l-3.5-0.6   C292.1,94.3,291.8,95,291.4,95.4 M298.6,83.3h3.5V80h-3.5V83.3z M251.3,95.4c-0.4,0.4-1,0.6-1.6,0.6c-0.9,0-1.6-0.3-2.1-1   c-0.5-0.7-0.8-1.8-0.8-3.4c0-1.4,0.3-2.4,0.8-3.1c0.5-0.6,1.2-0.9,2.1-0.9c0.7,0,1.2,0.2,1.6,0.5c0.4,0.3,0.7,0.8,0.8,1.5l3.5-0.6   c-0.4-1.4-1.1-2.5-2.1-3.2c-1-0.7-2.2-1-3.9-1c-2,0-3.6,0.6-4.7,1.8c-1.2,1.2-1.7,3-1.7,5.2c0,2.2,0.6,3.9,1.7,5.1   c1.1,1.2,2.7,1.9,4.6,1.9c1.7,0,3.1-0.4,4.1-1.3c1-0.8,1.7-2,2.1-3.6l-3.5-0.6C252,94.3,251.7,95,251.3,95.4 M262.9,95.9   c-0.2,0-0.4-0.1-0.6-0.2c-0.2-0.1-0.3-0.3-0.3-0.4c-0.1-0.2-0.1-0.8-0.1-1.9v-5.4h2.4v-2.8h-2.4v-4.7l-3.5,2.1v2.6h-1.6v2.8h1.6   v5.9c0,1.3,0,2.1,0.1,2.5c0.1,0.6,0.3,1,0.5,1.4c0.2,0.4,0.6,0.6,1.1,0.8c0.5,0.2,1.1,0.3,1.7,0.3c1,0,2-0.2,2.8-0.5l-0.2-2.8   C263.7,95.8,263.3,95.9,262.9,95.9 M239.3,86.8c-1.1-1.3-2.7-2-4.7-2c-1.8,0-3.2,0.6-4.4,1.9c-1.1,1.2-1.7,3-1.7,5.2   c0,1.9,0.5,3.4,1.3,4.6c1.1,1.5,2.8,2.3,5.2,2.3c1.5,0,2.7-0.3,3.7-1c1-0.7,1.7-1.7,2.1-3l-3.5-0.6c-0.2,0.7-0.5,1.2-0.8,1.5   c-0.4,0.3-0.9,0.5-1.4,0.5c-0.8,0-1.5-0.3-2-0.9c-0.5-0.6-0.8-1.4-0.9-2.5h8.8C241,90.1,240.5,88.1,239.3,86.8 M232.2,90.7   c0-1,0.2-1.7,0.7-2.3c0.5-0.6,1.2-0.9,1.9-0.9c0.7,0,1.3,0.3,1.8,0.8c0.5,0.5,0.8,1.3,0.8,2.4H232.2z M271.4,85.3   c-0.4,0.3-0.9,0.9-1.5,1.8v-1.9h-3.3v13.4h3.5v-4.1c0-2.3,0.1-3.8,0.3-4.5c0.2-0.7,0.5-1.2,0.8-1.5c0.4-0.3,0.8-0.4,1.3-0.4   c0.5,0,1,0.2,1.6,0.6l1.1-3.1c-0.8-0.5-1.5-0.7-2.3-0.7C272.4,84.8,271.8,85,271.4,85.3 M298.2,98.5h3.5V85.1h-3.5V98.5z    M276.8,98.5h3.5V85.1h-3.5V98.5z M222.4,98.5h3.5V80h-3.5V98.5z M277.1,83.3h3.5V80h-3.5V83.3z"
   style="fill:#bebebe;fill-opacity:1" />
	<path
   id="XMLID_3_"
   class="st1"
   d="M132.6,116.2H127v16.3h5.6c2,0,3.6-0.6,4.9-1.9c1.3-1.3,1.9-2.9,1.9-4.9V123   c0-2-0.6-3.6-1.9-4.9C136.2,116.8,134.6,116.2,132.6,116.2 M136.2,125.7c0,1.3-0.3,2.3-1,3.1c-0.7,0.8-1.6,1.2-2.8,1.2h-2.2v-11.3   h2.2c1.2,0,2.1,0.4,2.8,1.2c0.7,0.8,1,1.8,1,3.1V125.7z M141.9,117.5h3.3V115h-3.3V117.5z M141.9,132.5h3.3v-12.1h-3.3V132.5z    M148.1,132.5h3.3V115h-3.3V132.5z M154.2,132.5h3.3v-12.1h-3.3V132.5z M154.2,117.5h3.3V115h-3.3V117.5z M167.5,122   c-0.4-0.6-0.8-1-1.3-1.3c-0.5-0.3-1.1-0.5-1.8-0.5c-1.5,0-2.7,0.6-3.5,1.8c-0.8,1.2-1.3,2.7-1.3,4.6v0.2c0,1.8,0.4,3.2,1.3,4.3   c0.8,1.1,2,1.6,3.5,1.6c0.6,0,1.2-0.1,1.7-0.4c0.5-0.2,0.9-0.6,1.3-1v1.1c0,0.8-0.2,1.4-0.6,1.7c-0.4,0.4-1.1,0.6-2,0.6   c-0.6,0-1.2-0.1-1.7-0.2c-0.5-0.1-1-0.3-1.5-0.5l-0.6,2.4c0.6,0.3,1.2,0.5,1.9,0.7c0.7,0.2,1.3,0.3,2,0.3c1.8,0,3.3-0.4,4.3-1.3   c1-0.9,1.6-2.1,1.6-3.7v-12.1h-2.8L167.5,122z M167.3,129.2c-0.2,0.4-0.5,0.6-0.8,0.8c-0.3,0.2-0.8,0.3-1.3,0.3   c-0.8,0-1.4-0.3-1.7-0.9c-0.4-0.6-0.5-1.5-0.5-2.5v-0.2c0-1.1,0.2-2.1,0.6-2.8c0.4-0.7,1-1.1,1.7-1.1c0.5,0,0.9,0.1,1.3,0.3   c0.3,0.2,0.6,0.5,0.8,0.9V129.2z M178.2,120.2c-1.7,0-3,0.6-4,1.7c-1,1.2-1.5,2.7-1.5,4.5v0.4c0,1.7,0.5,3.1,1.6,4.3   c1,1.1,2.4,1.7,4.2,1.7c1,0,1.9-0.1,2.7-0.4c0.8-0.3,1.4-0.6,1.9-1l-0.9-2c-0.6,0.3-1.1,0.5-1.6,0.7c-0.5,0.1-1.1,0.2-1.8,0.2   c-0.8,0-1.5-0.3-1.9-0.8c-0.5-0.5-0.7-1.2-0.8-2l0-0.1h7.2v-1.8c0-1.7-0.5-3-1.4-4C181.1,120.7,179.9,120.2,178.2,120.2    M180.2,125.3h-4l0-0.1c0.1-0.8,0.3-1.4,0.7-1.8c0.3-0.5,0.8-0.7,1.4-0.7c0.7,0,1.2,0.2,1.5,0.6c0.3,0.4,0.5,1,0.5,1.7V125.3z    M191.9,120.2c-0.7,0-1.4,0.2-2,0.5c-0.6,0.3-1.1,0.8-1.5,1.4l-0.1-1.7h-3.1v12.1h3.3v-8.8c0.2-0.3,0.5-0.6,0.9-0.7   c0.3-0.2,0.7-0.3,1.2-0.3c0.7,0,1.2,0.2,1.5,0.5c0.3,0.3,0.5,0.9,0.5,1.7v7.6h3.3V125c0-1.6-0.3-2.9-1-3.6   C194.1,120.6,193.1,120.2,191.9,120.2 M203.7,130.2c-0.1,0-0.3,0-0.4,0c-0.3,0-0.6-0.1-0.8-0.3c-0.2-0.2-0.3-0.5-0.3-1v-6.2h2v-2.3   h-2v-3h-3.3v3h-1.8v2.3h1.8v6.2c0,1.3,0.3,2.3,0.9,2.9c0.6,0.6,1.5,0.9,2.6,0.9c0.4,0,0.7,0,1-0.1c0.3-0.1,0.6-0.1,1-0.3l-0.3-2.4   C203.9,130.1,203.8,130.1,203.7,130.2 M206.4,132.5h3.3V115h-3.3V132.5z M217,128.1L217,128.1l-0.2-0.7l-2-7h-3.5l4.3,12.1   l-0.4,0.9c-0.2,0.4-0.4,0.7-0.7,1c-0.3,0.3-0.7,0.4-1.2,0.4c-0.1,0-0.2,0-0.3,0c-0.1,0-0.2,0-0.3,0l-0.4,2.4   c0.3,0.1,0.6,0.1,0.9,0.2c0.2,0,0.5,0.1,0.8,0.1c1.2,0,2.1-0.3,2.7-0.9c0.6-0.6,1.1-1.3,1.4-2.2l4.9-14h-3.5L217,128.1z M236.7,123   c-1.3-0.4-2.1-0.8-2.6-1.1c-0.5-0.4-0.8-0.8-0.8-1.4c0-0.6,0.2-1.1,0.7-1.5c0.5-0.4,1.2-0.6,2-0.6c0.9,0,1.6,0.2,2.1,0.7   c0.5,0.5,0.8,1.1,0.8,1.8h3.2l0-0.1c0-1.4-0.5-2.6-1.6-3.5c-1.1-1-2.6-1.4-4.4-1.4c-1.8,0-3.2,0.4-4.4,1.3   c-1.1,0.8-1.7,1.9-1.7,3.3c0,1.3,0.5,2.4,1.5,3.2c1,0.8,2.5,1.4,4.4,2c1.1,0.3,1.9,0.7,2.3,1.1c0.4,0.4,0.7,0.9,0.7,1.5   c0,0.6-0.2,1.1-0.7,1.5c-0.5,0.4-1.1,0.6-2,0.6c-1.1,0-1.9-0.2-2.5-0.7c-0.6-0.5-0.9-1.2-0.9-2.1h-3.2l0,0.1c0,1.7,0.6,2.9,1.9,3.9   c1.3,0.9,2.9,1.4,4.7,1.4c1.8,0,3.3-0.4,4.4-1.2c1.1-0.8,1.7-1.9,1.7-3.3c0-1.3-0.5-2.4-1.4-3.2C239.9,124.2,238.5,123.5,236.7,123    M249.5,120.2c-1.7,0-3,0.6-4,1.7c-1,1.2-1.5,2.7-1.5,4.5v0.4c0,1.7,0.5,3.1,1.6,4.3c1,1.1,2.4,1.7,4.2,1.7c1,0,1.9-0.1,2.7-0.4   c0.8-0.3,1.4-0.6,1.9-1l-0.9-2c-0.6,0.3-1.1,0.5-1.6,0.7c-0.5,0.1-1.1,0.2-1.8,0.2c-0.8,0-1.5-0.3-1.9-0.8c-0.5-0.5-0.7-1.2-0.8-2   l0-0.1h7.2v-1.8c0-1.7-0.5-3-1.4-4C252.4,120.7,251.2,120.2,249.5,120.2 M251.5,125.3h-4l0-0.1c0.1-0.8,0.3-1.4,0.7-1.8   c0.3-0.5,0.8-0.7,1.4-0.7c0.7,0,1.1,0.2,1.5,0.6c0.3,0.4,0.5,1,0.5,1.7V125.3z M262.4,120.2c-0.6,0-1.1,0.2-1.6,0.5   c-0.5,0.3-0.8,0.8-1.1,1.5l-0.1-1.8h-3v12.1h3.3v-8.2c0.2-0.4,0.4-0.6,0.7-0.9c0.3-0.2,0.7-0.3,1.2-0.3l1.2,0l0.3-2.9   c-0.1,0-0.3-0.1-0.4-0.1C262.8,120.2,262.6,120.2,262.4,120.2 M269.8,128l-0.2,1.1h-0.1l-0.2-1.1l-2-7.6h-3.4l4.1,12.1h3.1   l4.1-12.1h-3.4L269.8,128z M276.8,117.5h3.3V115h-3.3V117.5z M276.8,132.5h3.3v-12.1h-3.3V132.5z M289.4,120.2   c-0.7,0-1.4,0.2-2,0.5c-0.6,0.3-1.1,0.8-1.5,1.4l-0.1-1.7h-3.1v12.1h3.3v-8.8c0.2-0.3,0.5-0.6,0.9-0.7c0.3-0.2,0.7-0.3,1.2-0.3   c0.7,0,1.2,0.2,1.5,0.5c0.3,0.3,0.5,0.9,0.5,1.7v7.6h3.3V125c0-1.6-0.3-2.9-1-3.6C291.6,120.6,290.7,120.2,289.4,120.2 M303.1,122   c-0.4-0.6-0.8-1-1.3-1.3c-0.5-0.3-1.1-0.5-1.8-0.5c-1.5,0-2.7,0.6-3.5,1.8c-0.8,1.2-1.2,2.7-1.2,4.6v0.2c0,1.8,0.4,3.2,1.2,4.3   c0.8,1.1,2,1.6,3.5,1.6c0.6,0,1.2-0.1,1.7-0.4c0.5-0.2,0.9-0.6,1.3-1v1.1c0,0.8-0.2,1.4-0.6,1.7c-0.4,0.4-1.1,0.6-2,0.6   c-0.6,0-1.2-0.1-1.7-0.2c-0.5-0.1-1-0.3-1.5-0.5l-0.6,2.4c0.6,0.3,1.2,0.5,1.9,0.7c0.7,0.2,1.3,0.3,2,0.3c1.8,0,3.3-0.4,4.3-1.3   c1-0.9,1.6-2.1,1.6-3.7v-12.1h-2.8L303.1,122z M302.9,129.2c-0.2,0.4-0.5,0.6-0.8,0.8c-0.4,0.2-0.8,0.3-1.3,0.3   c-0.8,0-1.4-0.3-1.7-0.9c-0.4-0.6-0.5-1.5-0.5-2.5v-0.2c0-1.1,0.2-2.1,0.6-2.8c0.4-0.7,1-1.1,1.8-1.1c0.5,0,0.9,0.1,1.3,0.3   c0.3,0.2,0.6,0.5,0.8,0.9V129.2z M324.1,116.2l-3.6,7.5h-0.1l-3.6-7.5h-3.6l5.5,10.4v5.9h3.3v-5.7l5.6-10.6H324.1z M332.5,120.2   c-1.8,0-3.2,0.6-4.2,1.7c-1,1.2-1.5,2.6-1.5,4.4v0.2c0,1.8,0.5,3.3,1.5,4.5c1,1.1,2.4,1.7,4.2,1.7c1.8,0,3.2-0.6,4.2-1.7   c1-1.1,1.5-2.6,1.5-4.5v-0.2c0-1.8-0.5-3.3-1.5-4.4C335.7,120.8,334.3,120.2,332.5,120.2 M335,126.6c0,1.1-0.2,2-0.6,2.7   c-0.4,0.7-1,1-1.9,1c-0.9,0-1.5-0.3-1.9-1c-0.4-0.7-0.6-1.6-0.6-2.7v-0.2c0-1.1,0.2-1.9,0.6-2.6c0.4-0.7,1-1,1.9-1   c0.9,0,1.5,0.3,1.9,1c0.4,0.7,0.6,1.6,0.6,2.6V126.6z M347.5,120.4v8.8c-0.2,0.3-0.5,0.6-0.9,0.8c-0.4,0.2-0.8,0.3-1.3,0.3   c-0.6,0-1-0.2-1.3-0.6c-0.3-0.4-0.4-1-0.4-1.9v-7.4h-3.3v7.3c0,1.7,0.4,3,1.1,3.8c0.7,0.8,1.7,1.2,3,1.2c0.8,0,1.4-0.2,2-0.5   c0.6-0.3,1-0.8,1.4-1.5l0.3,1.8h2.8v-12.1H347.5z"
   style="fill:#bebebe;fill-opacity:1" />
</g>
</svg>
