<?xml version="1.0" encoding="UTF-8" standalone="no"?>
<!-- Generator: Adobe Illustrator 26.5.0, SVG Export Plug-In . SVG Version: 6.00 Build 0)  -->

<svg
   version="1.1"
   id="Layer_1"
   x="0px"
   y="0px"
   viewBox="0 0 618 308.8"
   style="enable-background:new 0 0 618 308.8;"
   xml:space="preserve"
   sodipodi:docname="stc-logo-gray.svg"
   inkscape:version="1.2.1 (9c6d41e410, 2022-07-14)"
   xmlns:inkscape="http://www.inkscape.org/namespaces/inkscape"
   xmlns:sodipodi="http://sodipodi.sourceforge.net/DTD/sodipodi-0.dtd"
   xmlns:xlink="http://www.w3.org/1999/xlink"
   xmlns="http://www.w3.org/2000/svg"
   xmlns:svg="http://www.w3.org/2000/svg"><defs
   id="defs17584" /><sodipodi:namedview
   id="namedview17582"
   pagecolor="#ffffff"
   bordercolor="#000000"
   borderopacity="0.25"
   inkscape:showpageshadow="2"
   inkscape:pageopacity="0.0"
   inkscape:pagecheckerboard="0"
   inkscape:deskcolor="#d1d1d1"
   showgrid="false"
   inkscape:zoom="0.76424873"
   inkscape:cx="101.40678"
   inkscape:cy="154.39999"
   inkscape:window-width="1440"
   inkscape:window-height="837"
   inkscape:window-x="-8"
   inkscape:window-y="-8"
   inkscape:window-maximized="1"
   inkscape:current-layer="Layer_1" />
<style
   type="text/css"
   id="style17569">
	.st0{clip-path:url(#SVGID_00000065780668955174199660000007493781677192806053_);fill:#4F008C;}
</style>
<g
   id="g17579">
	<defs
   id="defs17572">
		<rect
   id="SVGID_1_"
   width="618"
   height="308.8" />
	</defs>
	<clipPath
   id="SVGID_00000067232036791900536660000011253769234279615363_">
		<use
   xlink:href="#SVGID_1_"
   style="overflow:visible;"
   id="use17574" />
	</clipPath>
	<path
   style="clip-path:url(#SVGID_00000067232036791900536660000011253769234279615363_);fill:#bebebe;fill-opacity:1"
   d="M101.5,308.7   c32.2,0,58.7-10.1,76-26.9c13-13,20.7-30.3,20.7-50.5c0-18.3-6.7-34.6-19.2-47.1c-12.5-12.5-30.3-21.6-52.9-26L89,151   c-15.4-2.9-24-10.6-24-21.2c0-13.9,13.5-23.6,35.1-23.6c13.5,0,25,4.3,32.7,12c4.8,5.3,8.2,12,9.1,19.7l53.4-12   c-1.4-15.4-8.7-28.9-19.7-39.9c-17.3-17.3-44.2-28.4-76-28.4c-29.3,0-53.9,9.6-70.7,25C14.4,96.2,6.3,114.5,6.3,134.7   c0,17.8,5.8,32.7,17.3,44.2c11.5,11.5,28.4,20.2,50.5,25.5l36.6,8.7c18.3,4.3,26.4,11.1,26.4,23.1c0,14.9-13.5,23.6-35.6,23.6   c-15.9,0-28.9-5.3-37-13.9c-5.8-5.8-9.1-13.5-9.6-22.1L0,235.7C1.4,252,9.1,266.4,20.7,278C39,297.2,68.3,308.7,101.5,308.7    M507.4,308.7c35.6,0,63-13,81.8-31.3c14.9-14.4,24-31.3,28.9-48.6l-56.3-18.8c-2.4,8.7-7.2,17.8-14.9,25   c-9.1,8.7-21.6,14.9-39.4,14.9c-16.4,0-31.7-6.3-42.8-17.3c-11.1-11.5-17.8-28.4-17.8-49.5c0-21.6,6.7-38,17.8-49.5   c11.1-11.1,26-16.8,42.3-16.8c17.3,0,29.3,5.8,38,14.4c7.2,7.2,11.5,16.4,14.4,25.5l57.2-19.2c-4.3-16.8-13.5-33.7-26.9-47.6   c-19.2-18.8-47.1-32.2-84.2-32.2c-34.1,0-64.9,13-87,35.1c-22.1,22.6-35.6,53.9-35.6,90.4c0,36.5,13.9,67.8,36.5,90.4   C441.5,295.8,472.7,308.7,507.4,308.7 M313.1,308.7c25,0,42.8-7.7,50.5-14.4v-51.9c-5.8,4.3-17.3,9.6-32.2,9.6   c-10.6,0-18.3-2.4-24-7.7c-4.8-4.8-7.2-13-7.2-24V0h-63.5v64.9h127v61.6h-127v109.2c0,22.1,6.7,39.9,18.8,52.4   C268.8,301.5,288.6,308.7,313.1,308.7"
   clip-path="url(#SVGID_00000067232036791900536660000011253769234279615363_)"
   id="path17577" />
</g>
</svg>
