<?xml version="1.0" encoding="UTF-8" standalone="no"?>
<!-- Generator: Adobe Illustrator 26.5.0, SVG Export Plug-In . SVG Version: 6.00 Build 0)  -->

<svg
   version="1.1"
   id="Layer_1"
   x="0px"
   y="0px"
   viewBox="0 0 204.6 95.8"
   style="enable-background:new 0 0 204.6 95.8;"
   xml:space="preserve"
   sodipodi:docname="stc_iot-gray.svg"
   inkscape:version="1.2.1 (9c6d41e410, 2022-07-14)"
   xmlns:inkscape="http://www.inkscape.org/namespaces/inkscape"
   xmlns:sodipodi="http://sodipodi.sourceforge.net/DTD/sodipodi-0.dtd"
   xmlns:xlink="http://www.w3.org/1999/xlink"
   xmlns="http://www.w3.org/2000/svg"
   xmlns:svg="http://www.w3.org/2000/svg"><defs
   id="defs15607" /><sodipodi:namedview
   id="namedview15605"
   pagecolor="#ffffff"
   bordercolor="#000000"
   borderopacity="0.25"
   inkscape:showpageshadow="2"
   inkscape:pageopacity="0.0"
   inkscape:pagecheckerboard="0"
   inkscape:deskcolor="#d1d1d1"
   showgrid="false"
   inkscape:zoom="2.4634655"
   inkscape:cx="37.954662"
   inkscape:cy="47.900001"
   inkscape:window-width="1440"
   inkscape:window-height="837"
   inkscape:window-x="-8"
   inkscape:window-y="-8"
   inkscape:window-maximized="1"
   inkscape:current-layer="Layer_1" />
<style
   type="text/css"
   id="style15590">
	.st0{clip-path:url(#SVGID_00000075142868064199324090000017930060441584652715_);fill:#4F008C;}
	.st1{clip-path:url(#SVGID_00000075142868064199324090000017930060441584652715_);fill:#FF375E;}
</style>
<g
   id="g15602"
   style="fill:#bebebe;fill-opacity:1">
	<defs
   id="defs15593">
		<rect
   id="SVGID_1_"
   width="204.6"
   height="95.8" />
	</defs>
	<clipPath
   id="SVGID_00000173866748608082469790000003972914096634177690_">
		<use
   xlink:href="#SVGID_1_"
   style="overflow:visible;"
   id="use15595" />
	</clipPath>
	<path
   style="clip-path:url(#SVGID_00000173866748608082469790000003972914096634177690_);fill:#bebebe;fill-opacity:1"
   d="M204.6,27.2   c0-10.3-8.3-18.6-18.6-18.6v20.9v0.7v15.4C196.6,45.6,204.6,36.9,204.6,27.2 M0,45.6h12.5V94h19.1V29.5H0V45.6z M12.5,18.7h19.1V0   H12.5V18.7z M79.1,27.7c-20.7,0-34.1,14.1-34.1,34c0,20,13.4,34.1,34.1,34.1c20.8,0,34.2-14.1,34.2-34.1   C113.3,41.8,99.9,27.7,79.1,27.7 M79.1,79.1c-9.8,0-15.5-6.8-15.5-17.4c0-10.4,5.7-17.2,15.5-17.2c9.8,0,15.6,6.8,15.6,17.2   C94.7,72.3,88.9,79.1,79.1,79.1 M148.5,29.5V9.4h-19.1v20.1h-10.8v16.1h10.8v29.2c0,11.8,7,19.2,21.8,19.2h16.2V77.9h-13.9   c-3.2,0-5.1-1.7-5.1-5.4V45.6h18.9V29.5H148.5z M167.5,45.6v16.1h37.1V45.6H186H167.5z"
   clip-path="url(#SVGID_00000173866748608082469790000003972914096634177690_)"
   id="path15598" />
	<path
   style="clip-path:url(#SVGID_00000173866748608082469790000003972914096634177690_);fill:#bebebe;fill-opacity:1"
   d="M167.4,27.2   c0,0.8,0,1.5,0.1,2.3H186V8.6C175.7,8.6,167.4,17,167.4,27.2"
   clip-path="url(#SVGID_00000173866748608082469790000003972914096634177690_)"
   id="path15600" />
</g>
</svg>
