<?xml version="1.0" encoding="UTF-8" standalone="no"?>
<!-- Generator: Adobe Illustrator 26.5.0, SVG Export Plug-In . SVG Version: 6.00 Build 0)  -->

<svg
   version="1.1"
   id="Layer_1"
   x="0px"
   y="0px"
   viewBox="0 0 163.5 87.2"
   style="enable-background:new 0 0 163.5 87.2;"
   xml:space="preserve"
   sodipodi:docname="tahakom-logo-gray.svg"
   inkscape:version="1.2.1 (9c6d41e410, 2022-07-14)"
   xmlns:inkscape="http://www.inkscape.org/namespaces/inkscape"
   xmlns:sodipodi="http://sodipodi.sourceforge.net/DTD/sodipodi-0.dtd"
   xmlns:xlink="http://www.w3.org/1999/xlink"
   xmlns="http://www.w3.org/2000/svg"
   xmlns:svg="http://www.w3.org/2000/svg"><defs
   id="defs19812" /><sodipodi:namedview
   id="namedview19810"
   pagecolor="#ffffff"
   bordercolor="#000000"
   borderopacity="0.25"
   inkscape:showpageshadow="2"
   inkscape:pageopacity="0.0"
   inkscape:pagecheckerboard="0"
   inkscape:deskcolor="#d1d1d1"
   showgrid="false"
   inkscape:zoom="2.7064221"
   inkscape:cx="22.723728"
   inkscape:cy="43.599998"
   inkscape:window-width="1440"
   inkscape:window-height="837"
   inkscape:window-x="-8"
   inkscape:window-y="-8"
   inkscape:window-maximized="1"
   inkscape:current-layer="Layer_1" />
<style
   type="text/css"
   id="style19671">
	.st0{fill:#4A4F55;}
	.st1{fill:#612551;}
	
		.st2{clip-path:url(#SVGID_00000139974439154279996960000014425783864531484565_);fill:url(#SVGID_00000153691273334418468890000006208068553067101580_);}
	
		.st3{clip-path:url(#SVGID_00000117644723081200868800000004511795493150192532_);fill:url(#SVGID_00000004506570531927486150000007659722749118983612_);}
</style>
<rect
   x="157.4"
   y="46.4"
   class="st0"
   width="6"
   height="6.1"
   id="rect19673"
   style="fill:#bebebe;fill-opacity:1" />
<rect
   x="148.4"
   y="46.4"
   class="st0"
   width="6.1"
   height="6.1"
   id="rect19675"
   style="fill:#bebebe;fill-opacity:1" />
<g
   id="g19681"
   style="fill:#bebebe;fill-opacity:1">
	<path
   class="st0"
   d="M157.4,58.6v14.8h-8.8v-7.3v-4.9c0-1.5-1.2-2.6-2.6-2.6h-30.7v6.1h27.3v8.8h-36.1v-7.1v-5.1   c0-1.5-1.2-2.6-2.7-2.6H81.7l10.2-11.3l0.7-0.8h-7.2c-0.1,0-0.2,0-0.2,0.1L68.6,64.1c-0.2,0.2,0,0.6,0.2,0.6h31.6v8.8H59.6V61.2   c0-1.5-1.2-2.6-2.6-2.6H26.2v28.6h6.1V64.6h6.4v14.8h0.9h123.8V58.6H157.4z M53.4,73.6h-8.7v-8.7h8.7V73.6z"
   id="path19677"
   style="fill:#bebebe;fill-opacity:1" />
	<polygon
   class="st1"
   points="26.2,7.5 45,26.2 52.5,26.2 26.2,0 0,26.2 7.5,26.2  "
   id="polygon19679"
   style="fill:#bebebe;fill-opacity:1" />
</g>
<g
   id="g19712"
   style="fill:#bebebe;fill-opacity:1">
	<defs
   id="defs19684">
		<path
   id="SVGID_1_"
   d="M15,34.1l7.5-7.5l3.7-3.7l3.8,3.7L18.7,37.9L15,34.1z M15,26.6l-3.7,3.5l-3.7-3.9H0l18.7,18.9l18.7-18.6    L26.2,15.4L15,26.6z" />
	</defs>
	<clipPath
   id="SVGID_00000150820681375797462500000018330228520072754835_">
		<use
   xlink:href="#SVGID_1_"
   style="overflow:visible;"
   id="use19686" />
	</clipPath>
	
		<radialGradient
   id="SVGID_00000150807899432656884620000003162361858723740303_"
   cx="-14.181"
   cy="99.5654"
   r="1"
   gradientTransform="matrix(0 31.0923 27.159 0 -2673.5149 453.6735)"
   gradientUnits="userSpaceOnUse">
		<stop
   offset="0"
   style="stop-color:#FFFFFF"
   id="stop19689" />
		<stop
   offset="7.638910e-02"
   style="stop-color:#DACFD6"
   id="stop19691" />
		<stop
   offset="0.2114"
   style="stop-color:#B298A8"
   id="stop19693" />
		<stop
   offset="0.3479"
   style="stop-color:#967188"
   id="stop19695" />
		<stop
   offset="0.4832"
   style="stop-color:#815572"
   id="stop19697" />
		<stop
   offset="0.6169"
   style="stop-color:#724162"
   id="stop19699" />
		<stop
   offset="0.7486"
   style="stop-color:#693258"
   id="stop19701" />
		<stop
   offset="0.8773"
   style="stop-color:#632853"
   id="stop19703" />
		<stop
   offset="1"
   style="stop-color:#612551"
   id="stop19705" />
		<stop
   offset="1"
   style="stop-color:#612551"
   id="stop19707" />
	</radialGradient>
	
		<rect
   y="15.4"
   style="clip-path:url(#SVGID_00000150820681375797462500000018330228520072754835_);fill:#bebebe;fill-opacity:1"
   width="37.5"
   height="29.8"
   clip-path="url(#SVGID_00000150820681375797462500000018330228520072754835_)"
   id="rect19710" />
</g>
<g
   id="g19776"
   style="fill:#bebebe;fill-opacity:1">
	<polygon
   class="st0"
   points="42.4,81.4 38.8,81.4 38.8,82 40.2,82 40.2,85.8 41,85.8 41,82 42.4,82  "
   id="polygon19714"
   style="fill:#bebebe;fill-opacity:1" />
	<path
   class="st0"
   d="M44.7,82.7h-1.3c-0.8,0-1.2,0.3-1.2,0.8v1.5c0,0.3,0.1,0.5,0.4,0.7c0.2,0.1,0.5,0.2,0.9,0.2h2.3v-0.5h-2.2   c-0.2,0-0.4,0-0.4-0.1c-0.1-0.1-0.2-0.3-0.2-0.4h2.8v-1.2C45.7,83,45.4,82.7,44.7,82.7 M45,84.2h-2.1v-0.6c0-0.3,0.2-0.4,0.7-0.4   h0.8c0.4,0,0.6,0.1,0.6,0.4V84.2z"
   id="path19716"
   style="fill:#bebebe;fill-opacity:1" />
	<path
   class="st0"
   d="M103,82.7h-1.3c-0.8,0-1.2,0.3-1.2,0.8v1.5c0,0.3,0.1,0.5,0.4,0.7c0.2,0.1,0.5,0.2,0.9,0.2h2.3v-0.5h-2.2   c-0.2,0-0.4,0-0.4-0.1c-0.1-0.1-0.2-0.3-0.2-0.4h2.8v-1.2C104.1,83,103.7,82.7,103,82.7 M103.3,84.2h-2.1v-0.6   c0-0.3,0.2-0.4,0.7-0.4h0.8c0.4,0,0.6,0.1,0.6,0.4V84.2z"
   id="path19718"
   style="fill:#bebebe;fill-opacity:1" />
	<path
   class="st0"
   d="M156.5,82.7h-1.3c-0.8,0-1.2,0.3-1.2,0.8v1.5c0,0.3,0.1,0.5,0.4,0.7c0.2,0.1,0.5,0.2,0.9,0.2h2.3v-0.5h-2.2   c-0.2,0-0.4,0-0.4-0.1c-0.1-0.1-0.2-0.3-0.2-0.4h2.8v-1.2C157.5,83,157.2,82.7,156.5,82.7 M156.8,84.2h-2.1v-0.6   c0-0.3,0.2-0.4,0.7-0.4h0.8c0.4,0,0.6,0.1,0.6,0.4V84.2z"
   id="path19720"
   style="fill:#bebebe;fill-opacity:1" />
	<path
   class="st0"
   d="M47.2,84.8v-1.2c0-0.2,0-0.3,0.1-0.3c0.1-0.1,0.2-0.1,0.4-0.1h1.5v-0.5h-1.8c-0.7,0-1,0.3-1,0.8V85   c0,0.6,0.4,0.8,1.2,0.8h1.7v-0.5h-1.5C47.4,85.3,47.2,85.1,47.2,84.8"
   id="path19722"
   style="fill:#bebebe;fill-opacity:1" />
	<path
   class="st0"
   d="M52.4,82.6h-1.6v-1.3h-0.7v4.4h0.7v-2.3c0-0.1,0.1-0.2,0.2-0.2h1.3c0.2,0,0.4,0,0.5,0.1   c0.1,0.1,0.1,0.2,0.1,0.4v1.9h0.7v-2.1C53.6,83,53.2,82.6,52.4,82.6"
   id="path19724"
   style="fill:#bebebe;fill-opacity:1" />
	<path
   class="st0"
   d="M56.7,82.7h-1.3c-0.7,0-1.1,0.3-1.1,1v2.2H55v-2c0-0.3,0.2-0.5,0.6-0.5h0.8c0.4,0,0.6,0.2,0.6,0.5v2h0.7v-2.2   C57.8,83,57.4,82.7,56.7,82.7"
   id="path19726"
   style="fill:#bebebe;fill-opacity:1" />
	<path
   class="st0"
   d="M61.8,82.8c-0.2-0.1-0.4-0.2-0.8-0.2h-1.3c-0.4,0-0.6,0.1-0.8,0.2c-0.2,0.2-0.4,0.4-0.4,0.6V85   c0,0.2,0.1,0.4,0.3,0.6c0.2,0.1,0.5,0.2,0.9,0.2H61c0.3,0,0.6-0.1,0.8-0.2c0.2-0.1,0.4-0.3,0.4-0.6v-1.6C62.1,83.2,62,83,61.8,82.8    M61.4,84.9c0,0.1-0.1,0.2-0.2,0.3c-0.1,0.1-0.2,0.1-0.4,0.1h-1c-0.2,0-0.3,0-0.4-0.1c-0.1-0.1-0.2-0.2-0.2-0.3v-1.2   c0-0.1,0.1-0.2,0.2-0.3c0.1-0.1,0.2-0.1,0.4-0.1h0.9c0.2,0,0.3,0,0.4,0.1c0.1,0.1,0.2,0.2,0.2,0.3V84.9z"
   id="path19728"
   style="fill:#bebebe;fill-opacity:1" />
	<rect
   x="63.1"
   y="81.3"
   class="st0"
   width="0.7"
   height="4.5"
   id="rect19730"
   style="fill:#bebebe;fill-opacity:1" />
	<path
   class="st0"
   d="M67.8,82.8c-0.2-0.1-0.4-0.2-0.8-0.2h-1.3c-0.4,0-0.6,0.1-0.8,0.2c-0.2,0.2-0.4,0.4-0.4,0.6V85   c0,0.2,0.1,0.4,0.3,0.6c0.2,0.1,0.5,0.2,0.9,0.2H67c0.3,0,0.6-0.1,0.8-0.2c0.2-0.1,0.4-0.3,0.4-0.6v-1.6C68.1,83.2,68,83,67.8,82.8    M67.4,84.9c0,0.1-0.1,0.2-0.2,0.3c-0.1,0.1-0.2,0.1-0.4,0.1h-1c-0.2,0-0.3,0-0.4-0.1c-0.1-0.1-0.2-0.2-0.2-0.3v-1.2   c0-0.1,0.1-0.2,0.2-0.3c0.1-0.1,0.2-0.1,0.4-0.1h0.9c0.2,0,0.3,0,0.4,0.1c0.1,0.1,0.2,0.2,0.2,0.3V84.9z"
   id="path19732"
   style="fill:#bebebe;fill-opacity:1" />
	<path
   class="st0"
   d="M72.3,82.8c-0.2-0.1-0.5-0.2-0.9-0.2h-1.2c-0.4,0-0.7,0.1-0.9,0.2c-0.2,0.1-0.3,0.4-0.3,0.7V85   c0,0.2,0.1,0.4,0.3,0.6c0.2,0.1,0.5,0.2,0.9,0.2h1.6c0,0.2,0,0.6-0.1,0.7c-0.1,0.1-0.3,0.2-0.5,0.2h-2.2v0.5h2.3   c0.8,0,1.2-0.3,1.2-0.9v-2.8C72.6,83.2,72.5,83,72.3,82.8 M71.9,85.2c0,0.1-0.1,0.1-0.2,0.1h-1.3c-0.4,0-0.6-0.1-0.6-0.4v-1.2   c0-0.3,0.2-0.4,0.6-0.4h0.9c0.2,0,0.4,0,0.5,0.1c0.1,0.1,0.1,0.2,0.1,0.3V85.2z"
   id="path19734"
   style="fill:#bebebe;fill-opacity:1" />
	<path
   class="st0"
   d="M76.3,84.9c0,0.1-0.1,0.2-0.2,0.2h-1.3c-0.4,0-0.6-0.2-0.6-0.5v-1.9l-0.7,0v2.1c0,0.3,0.1,0.6,0.3,0.8   c0.2,0.2,0.5,0.3,0.8,0.3H76h0.3c0,0.2,0,0.4-0.1,0.5c-0.1,0.1-0.2,0.2-0.5,0.2h-2.1v0.7H76c0.3,0,0.6-0.1,0.8-0.3   c0.2-0.2,0.3-0.5,0.3-0.8v-3.5h-0.7V84.9z"
   id="path19736"
   style="fill:#bebebe;fill-opacity:1" />
	<path
   class="st0"
   d="M82.8,82.7h-2.3v0.5h2.2c0.2,0,0.4,0,0.5,0.1c0.1,0.1,0.1,0.2,0.1,0.4h-1.7c-0.3,0-0.6,0.1-0.8,0.2   c-0.2,0.1-0.3,0.3-0.3,0.6V85c0,0.2,0.1,0.4,0.3,0.6c0.2,0.1,0.5,0.2,0.8,0.2H83c0.3,0,0.6-0.1,0.8-0.2c0.2-0.1,0.3-0.3,0.3-0.6   v-1.6C84,82.9,83.6,82.7,82.8,82.7 M83.3,84.9c0,0.2-0.2,0.3-0.5,0.3h-1c-0.1,0-0.3,0-0.4-0.1c-0.1-0.1-0.2-0.1-0.2-0.3v-0.3   c0-0.3,0.2-0.4,0.5-0.4h1.4c0.1,0,0.2,0,0.2,0.1V84.9z"
   id="path19738"
   style="fill:#bebebe;fill-opacity:1" />
	<path
   class="st0"
   d="M87.1,82.7h-1.3c-0.7,0-1.1,0.3-1.1,1v2.2h0.7v-2c0-0.3,0.2-0.5,0.6-0.5h0.8c0.4,0,0.6,0.2,0.6,0.5v2h0.7v-2.2   C88.2,83,87.8,82.7,87.1,82.7"
   id="path19740"
   style="fill:#bebebe;fill-opacity:1" />
	<path
   class="st0"
   d="M91.9,81.5L91.9,81.5l0,1.1h-1.7c-0.3,0-0.6,0.1-0.8,0.2c-0.2,0.2-0.3,0.4-0.3,0.6v1.5c0,0.6,0.4,0.9,1.1,0.9   h1.3c0.3,0,0.6-0.1,0.8-0.2c0.2-0.1,0.3-0.4,0.3-0.7v-3.4v-0.1l-0.7,0V81.5z M91.9,84.8c0,0.3-0.2,0.4-0.6,0.4h-0.9   c-0.2,0-0.4,0-0.5-0.1c-0.1-0.1-0.1-0.2-0.1-0.3v-1.2c0-0.3,0.2-0.4,0.6-0.4h1.3c0.1,0,0.2,0,0.2,0.1V84.8z"
   id="path19742"
   style="fill:#bebebe;fill-opacity:1" />
	<path
   class="st0"
   d="M96.3,81.6c-0.3,0.2-0.4,0.4-0.4,0.7V83c0,0.3,0.1,0.5,0.4,0.7c0.2,0.1,0.5,0.2,0.9,0.2h0.9   c0.5,0,0.7,0.1,0.7,0.5c0,0.3,0,0.5-0.1,0.6c-0.1,0.1-0.3,0.2-0.7,0.2h-2.1v0.6h2.4c0.4,0,0.7-0.1,0.9-0.2c0.2-0.2,0.3-0.4,0.3-0.7   v-0.7c0-0.3-0.1-0.5-0.3-0.7c-0.2-0.2-0.5-0.2-0.9-0.2h-0.9c-0.2,0-0.4,0-0.5-0.1c-0.1-0.1-0.2-0.2-0.2-0.4c0-0.3,0-0.5,0.1-0.6   c0.1-0.1,0.3-0.2,0.6-0.2h2.1v-0.6h-2.4C96.8,81.4,96.5,81.4,96.3,81.6"
   id="path19744"
   style="fill:#bebebe;fill-opacity:1" />
	<path
   class="st0"
   d="M105.6,84.8v-1.2c0-0.2,0-0.3,0.1-0.3c0.1-0.1,0.2-0.1,0.4-0.1h1.5v-0.5h-1.8c-0.7,0-1,0.3-1,0.8V85   c0,0.6,0.4,0.8,1.2,0.8h1.7v-0.5h-1.5C105.8,85.3,105.6,85.1,105.6,84.8"
   id="path19746"
   style="fill:#bebebe;fill-opacity:1" />
	<path
   class="st0"
   d="M111.2,84.6c0,0.3-0.2,0.5-0.6,0.5h-0.8c-0.2,0-0.4,0-0.5-0.1c-0.1-0.1-0.2-0.2-0.2-0.4v-1.9h-0.7v2.1   c0,0.7,0.4,1,1.1,1h1.2c0.8,0,1.1-0.3,1.1-1v-2.1h-0.7V84.6z"
   id="path19748"
   style="fill:#bebebe;fill-opacity:1" />
	<path
   class="st0"
   d="M112.6,83.5v2.3h0.8v-2.2c0-0.2,0.1-0.4,0.3-0.4c0.1,0,0.4,0,1,0v-0.5h-0.8C113,82.6,112.6,82.9,112.6,83.5"
   id="path19750"
   style="fill:#bebebe;fill-opacity:1" />
	<rect
   x="115.4"
   y="81.4"
   class="st0"
   width="0.7"
   height="0.5"
   id="rect19752"
   style="fill:#bebebe;fill-opacity:1" />
	<rect
   x="115.3"
   y="82.7"
   class="st0"
   width="0.7"
   height="3.1"
   id="rect19754"
   style="fill:#bebebe;fill-opacity:1" />
	<polygon
   class="st0"
   points="117.8,81.4 117.1,81.4 117.1,85.8 117.8,85.8 117.8,83.1 118.7,83.1 118.7,82.5 117.8,82.5  "
   id="polygon19756"
   style="fill:#bebebe;fill-opacity:1" />
	<path
   class="st0"
   d="M122.4,84.9c0,0.1-0.1,0.2-0.2,0.2h-1.3c-0.4,0-0.6-0.2-0.6-0.5v-1.9l-0.7,0v2.1c0,0.3,0.1,0.6,0.3,0.8   c0.2,0.2,0.5,0.3,0.8,0.3h1.3h0.3c0,0.2,0,0.4-0.1,0.5c-0.1,0.1-0.2,0.2-0.5,0.2h-2.1v0.7h2.3c0.3,0,0.6-0.1,0.8-0.3   c0.2-0.2,0.3-0.5,0.3-0.8v-3.5h-0.7V84.9z"
   id="path19758"
   style="fill:#bebebe;fill-opacity:1" />
	<path
   class="st0"
   d="M126.8,81.6c-0.2,0.2-0.3,0.4-0.3,0.7v2.5c0,0.3,0.1,0.5,0.4,0.7c0.2,0.2,0.5,0.2,1,0.2h2.4v-0.6H128   c-0.5,0-0.7-0.2-0.7-0.5v-0.8h2.7v-0.6h-2.7v-0.8c0-0.3,0.2-0.5,0.7-0.5h2.1v-0.6h-2.4C127.3,81.4,127,81.5,126.8,81.6"
   id="path19760"
   style="fill:#bebebe;fill-opacity:1" />
	<path
   class="st0"
   d="M132,84.8v-1.2c0-0.2,0-0.3,0.1-0.3c0.1-0.1,0.2-0.1,0.4-0.1h1.5v-0.5h-1.8c-0.7,0-1,0.3-1,0.8V85   c0,0.6,0.4,0.8,1.2,0.8h1.7v-0.5h-1.5C132.2,85.3,132,85.1,132,84.8"
   id="path19762"
   style="fill:#bebebe;fill-opacity:1" />
	<path
   class="st0"
   d="M137.9,82.8c-0.2-0.1-0.4-0.2-0.8-0.2h-1.3c-0.3,0-0.6,0.1-0.8,0.2c-0.2,0.2-0.4,0.4-0.4,0.6V85   c0,0.2,0.1,0.4,0.3,0.6c0.2,0.1,0.5,0.2,0.9,0.2h1.3c0.3,0,0.6-0.1,0.8-0.2c0.2-0.1,0.4-0.3,0.4-0.6v-1.6   C138.2,83.2,138.1,83,137.9,82.8 M137.5,84.9c0,0.1-0.1,0.2-0.2,0.3c-0.1,0.1-0.2,0.1-0.4,0.1h-1c-0.2,0-0.3,0-0.4-0.1   c-0.1-0.1-0.2-0.2-0.2-0.3v-1.2c0-0.1,0.1-0.2,0.2-0.3c0.1-0.1,0.2-0.1,0.4-0.1h0.9c0.2,0,0.3,0,0.4,0.1c0.1,0.1,0.2,0.2,0.2,0.3   V84.9z"
   id="path19764"
   style="fill:#bebebe;fill-opacity:1" />
	<path
   class="st0"
   d="M139.4,82.8c-0.3,0.1-0.4,0.3-0.4,0.6v0.4c0,0.2,0.1,0.4,0.3,0.5c0.2,0.1,0.4,0.2,0.8,0.2h0.9   c0.3,0,0.5,0.1,0.5,0.3c0,0.2,0,0.3-0.1,0.3c-0.1,0.1-0.2,0.1-0.4,0.1h-2v0.5h2.2c0.2,0,0.3,0,0.4,0c0.1,0,0.2-0.1,0.3-0.2   c0.2-0.2,0.3-0.3,0.3-0.5v-0.4c0-0.2-0.1-0.4-0.3-0.5c-0.2-0.1-0.4-0.2-0.7-0.2h-1c-0.4,0-0.6-0.1-0.6-0.3v-0.1   c0-0.1,0.1-0.2,0.2-0.2c0.1,0,0.2-0.1,0.4-0.1h1.9v-0.5h-2.1C139.8,82.7,139.6,82.7,139.4,82.8"
   id="path19766"
   style="fill:#bebebe;fill-opacity:1" />
	<path
   class="st0"
   d="M145.9,84.9c0,0.1-0.1,0.2-0.2,0.2h-1.3c-0.4,0-0.6-0.2-0.6-0.5v-1.9l-0.7,0v2.1c0,0.3,0.1,0.6,0.3,0.8   c0.2,0.2,0.5,0.3,0.8,0.3h1.3h0.3c0,0.2,0,0.4-0.1,0.5c-0.1,0.1-0.2,0.2-0.5,0.2h-2.1v0.7h2.3c0.3,0,0.6-0.1,0.8-0.3   c0.2-0.2,0.3-0.5,0.3-0.8v-3.5h-0.7V84.9z"
   id="path19768"
   style="fill:#bebebe;fill-opacity:1" />
	<path
   class="st0"
   d="M147.8,82.8c-0.3,0.1-0.4,0.3-0.4,0.6v0.4c0,0.2,0.1,0.4,0.3,0.5c0.2,0.1,0.4,0.2,0.8,0.2h0.9   c0.3,0,0.5,0.1,0.5,0.3c0,0.2,0,0.3-0.1,0.3c-0.1,0.1-0.2,0.1-0.4,0.1h-2v0.5h2.2c0.2,0,0.3,0,0.4,0c0.1,0,0.2-0.1,0.3-0.2   c0.2-0.2,0.3-0.3,0.3-0.5v-0.4c0-0.2-0.1-0.4-0.3-0.5c-0.2-0.1-0.4-0.2-0.7-0.2h-1c-0.4,0-0.6-0.1-0.6-0.3v-0.1   c0-0.1,0.1-0.2,0.2-0.2c0.1,0,0.2-0.1,0.4-0.1h1.9v-0.5h-2.1C148.2,82.7,148,82.7,147.8,82.8"
   id="path19770"
   style="fill:#bebebe;fill-opacity:1" />
	<polygon
   class="st0"
   points="152.2,81.4 151.5,81.4 151.5,85.8 152.2,85.8 152.2,83.1 153.2,83.1 153.2,82.5 152.2,82.5  "
   id="polygon19772"
   style="fill:#bebebe;fill-opacity:1" />
	<path
   class="st0"
   d="M163.2,83c-0.2-0.2-0.4-0.3-0.8-0.3h-0.7c-0.4,0-0.7,0.1-0.9,0.4c-0.1-0.2-0.2-0.3-0.4-0.3   c-0.1-0.1-0.3-0.1-0.5-0.1h-0.7c-0.7,0-1.1,0.3-1.1,1v2.1h0.7l0-1.9c0-0.3,0.2-0.5,0.6-0.5c0.4,0,0.6,0,0.7,0   c0.2,0.1,0.3,0.2,0.3,0.5v1.9h0.7v-1.9c0-0.2,0-0.3,0.1-0.4c0.1-0.1,0.2-0.2,0.4-0.2c0.4,0,0.6,0,0.7,0c0.2,0.1,0.3,0.2,0.3,0.5   v1.9h0.7v-2.1C163.5,83.4,163.4,83.2,163.2,83"
   id="path19774"
   style="fill:#bebebe;fill-opacity:1" />
</g>
<g
   id="g19807">
	<defs
   id="defs19779">
		<polygon
   id="SVGID_00000016761092950301508920000005431456735972754079_"
   points="45,26.2 26.2,45 26.2,52.5 52.5,26.2 52.5,26.2       " />
	</defs>
	<clipPath
   id="SVGID_00000085223756058614012260000003299217002117508495_">
		<use
   xlink:href="#SVGID_00000016761092950301508920000005431456735972754079_"
   style="overflow:visible;"
   id="use19781" />
	</clipPath>
	
		<radialGradient
   id="SVGID_00000127759735942813499520000011767808539218697906_"
   cx="-14.181"
   cy="99.5654"
   r="1"
   gradientTransform="matrix(-32.2386 32.2386 32.2386 32.2386 -3611.8049 -2724.8796)"
   gradientUnits="userSpaceOnUse">
		<stop
   offset="0"
   style="stop-color:#FFFFFF"
   id="stop19784" />
		<stop
   offset="7.619804e-02"
   style="stop-color:#DACFD6"
   id="stop19786" />
		<stop
   offset="0.2109"
   style="stop-color:#B298A8"
   id="stop19788" />
		<stop
   offset="0.3471"
   style="stop-color:#967188"
   id="stop19790" />
		<stop
   offset="0.482"
   style="stop-color:#815572"
   id="stop19792" />
		<stop
   offset="0.6153"
   style="stop-color:#724162"
   id="stop19794" />
		<stop
   offset="0.7467"
   style="stop-color:#693258"
   id="stop19796" />
		<stop
   offset="0.8751"
   style="stop-color:#632853"
   id="stop19798" />
		<stop
   offset="0.9975"
   style="stop-color:#612551"
   id="stop19800" />
		<stop
   offset="1"
   style="stop-color:#612551"
   id="stop19802" />
	</radialGradient>
	
		<polygon
   style="clip-path:url(#SVGID_00000085223756058614012260000003299217002117508495_);fill:#bebebe;fill-opacity:1"
   points="   65.6,39.4 39.4,65.6 13.1,39.4 39.4,13.1  "
   clip-path="url(#SVGID_00000085223756058614012260000003299217002117508495_)"
   id="polygon19805" />
</g>
</svg>
